<?xml version="1.0" encoding="UTF-8"?>
<!-- Generated by Pixelmator Pro 3.7.1 -->
<svg width="500" height="285" viewBox="0 0 500 285" xmlns="http://www.w3.org/2000/svg">
    <g id="Group" opacity="0.502101">
        <path id="Path" fill="#fdfbd8" stroke="none" d="M 1.480664 123.929306 L 1.480664 212.584366 L 264.196472 283.941315 L 264.196472 192.582611 Z"/>
        <linearGradient id="linearGradient1" x1="448.609087" y1="111.000068" x2="485.876933" y2="143.002038" gradientUnits="userSpaceOnUse">
            <stop offset="1e-05" stop-color="#e6e2a7" stop-opacity="1"/>
            <stop offset="1" stop-color="#bebc99" stop-opacity="1"/>
        </linearGradient>
        <path id="path1" fill="url(#linearGradient1)" stroke="none" d="M 264.282043 192.578369 L 498.891754 59.595688 L 498.891754 137.438644 L 264.282043 283.937012 Z"/>
        <linearGradient id="linearGradient2" x1="257.560537" y1="167.747374" x2="192.550515" y2="101.238932" gradientUnits="userSpaceOnUse">
            <stop offset="1e-05" stop-color="#efebb2" stop-opacity="1"/>
            <stop offset="1" stop-color="#bbb877" stop-opacity="1"/>
        </linearGradient>
        <path id="path2" fill="url(#linearGradient2)" stroke="#e6e3ab" stroke-width="2.1406" stroke-linecap="round" stroke-linejoin="round" d="M 498.913177 59.58287 L 354.576843 35.257065 L 1.570552 123.912186 L 264.286346 192.565491 Z"/>
        <linearGradient id="linearGradient3" x1="130.644363" y1="83.279298" x2="344.704363" y2="50.014374" gradientUnits="userSpaceOnUse">
            <stop offset="1e-05" stop-color="#f8f5ce" stop-opacity="1"/>
            <stop offset="1" stop-color="#c7a227" stop-opacity="1"/>
        </linearGradient>
        <path id="path3" fill="url(#linearGradient3)" stroke="none" d="M 1.480664 123.929306 L 1.480664 119.404892 L 257.282227 9.699158 C 295.823761 15.321045 332.693451 18.781921 407.916229 11.745758 C 426.743713 9.984741 443.664276 5.461182 467.709717 0.334015 L 248.683517 122.080643 C 173.195221 135.940979 94.134254 142.956207 1.486935 123.929245 Z"/>
        <linearGradient id="linearGradient4" x1="235.640793" y1="41.216508" x2="364.847409" y2="41.751658" gradientUnits="userSpaceOnUse">
            <stop offset="1e-05" stop-color="#fdfdfd" stop-opacity="1"/>
            <stop offset="1" stop-color="#fdfd70" stop-opacity="1"/>
        </linearGradient>
        <path id="path4" fill="url(#linearGradient4)" stroke="none" d="M 185.700562 50.014389 L 239.215561 25.932648 C 295.832367 34.450943 353.562195 32.131805 411.610962 26.697144 L 351.980255 58.806152 C 294.477386 59.450653 236.882385 60.258209 185.700562 50.014267 Z"/>
        <linearGradient id="linearGradient5" x1="262.526729" y1="17.520066" x2="430.328363" y2="14.844316" gradientUnits="userSpaceOnUse">
            <stop offset="1e-05" stop-color="#a99e36" stop-opacity="1"/>
            <stop offset="1" stop-color="#825a00" stop-opacity="1"/>
        </linearGradient>
        <path id="path5" fill="url(#linearGradient5)" stroke="none" d="M 467.831604 0.288239 C 443.784241 5.415405 426.856323 9.966064 408.027557 11.727203 C 332.802673 18.763306 295.924347 15.275238 257.382843 9.653473 L 227.883209 22.363312 C 287.126526 35.116364 353.748383 32.134689 422.076294 25.707977 L 467.831604 0.288361 Z"/>
        <linearGradient id="linearGradient6" x1="61.845479" y1="114.232374" x2="265.973095" y2="107.361048" gradientUnits="userSpaceOnUse">
            <stop offset="1e-05" stop-color="#565534" stop-opacity="1"/>
            <stop offset="1" stop-color="#a48e35" stop-opacity="1"/>
        </linearGradient>
        <path id="path6" fill="url(#linearGradient6)" stroke="none" d="M 307.757629 89.251556 C 249.010925 92.278564 229.424515 112.515625 63.857647 92.663269 L 1.578914 119.354401 C 0.769917 120.921249 0.366726 122.462738 1.578914 123.903183 C 94.226364 142.930145 173.261597 135.890549 248.754059 122.030151 Z"/>
        <path id="path7" fill="none" stroke="#eadaa0" stroke-width="2.1406" stroke-linecap="round" stroke-linejoin="round" d="M 257.36795 9.685486 L 1.480664 119.369812"/>
        <linearGradient id="linearGradient7" x1="-0.017861" y1="119.241378" x2="249.832971" y2="127.504094" gradientUnits="userSpaceOnUse">
            <stop offset="1e-05" stop-color="#dcc577" stop-opacity="0"/>
            <stop offset="0.001251" stop-color="#d8c170" stop-opacity="1"/>
            <stop offset="1" stop-color="#b89a30" stop-opacity="1"/>
        </linearGradient>
        <path id="path8" fill="none" stroke="url(#linearGradient7)" stroke-width="2.1406" stroke-linecap="round" stroke-linejoin="round" d="M 1.480664 119.391251 C 0.969031 120.836716 0.724973 122.337311 1.480664 123.910034 C 125.699615 145.397369 185.236099 132.701462 248.677109 122.066925"/>
        <path id="path9" fill="none" stroke="#e2e0dc" stroke-width="2.1406" stroke-linecap="round" stroke-linejoin="round" d="M 467.788879 0.331024 L 248.76268 122.077637"/>
        <linearGradient id="linearGradient8" x1="-1.944401" y1="147.11199" x2="469.715403" y2="135.253066" gradientUnits="userSpaceOnUse">
            <stop offset="1e-05" stop-color="#fdfbd8" stop-opacity="1"/>
            <stop offset="0.30346" stop-color="#e5e4c0" stop-opacity="1"/>
            <stop offset="0.55019" stop-color="#e3e2bb" stop-opacity="1"/>
            <stop offset="0.57538" stop-color="#ccc88d" stop-opacity="1"/>
            <stop offset="1" stop-color="#c7c28a" stop-opacity="1"/>
        </linearGradient>
        <path id="path10" fill="url(#linearGradient8)" stroke="none" d="M 498.720581 61.980331 C 498.597656 62.026138 498.484375 62.094131 498.386108 62.180893 L 264.054565 197.372635 L 3.71481 127.469193 C 3.142294 127.321426 2.55828 127.665817 2.410382 128.238464 C 2.262484 128.811111 2.607144 129.395126 3.17966 129.542892 L 263.990417 199.581177 C 264.265198 199.644012 264.553528 199.595947 264.793152 199.447388 L 499.445709 63.988129 C 499.890442 63.746033 500.104858 63.225388 499.95929 62.74028 C 499.813751 62.255234 499.348236 61.938522 498.843658 61.981323 C 498.799103 61.978516 498.754425 61.978516 498.709869 61.981323 Z M 498.386108 67.06427 L 264.118866 203.728714 L 2.301941 132.219818 L 1.699897 134.293533 L 263.987549 205.937256 L 264.455811 206.071045 L 264.790283 205.870483 L 499.442841 68.938461 L 498.372528 67.065445 Z M 498.386108 72.482529 L 264.118866 209.348251 L 2.301941 138.040558 L 1.766791 140.114258 L 263.990417 211.556793 L 264.458679 211.690582 L 264.793152 211.490021 L 499.445709 74.290359 L 498.375397 72.484222 Z M 498.386108 77.566452 L 264.118866 215.367584 L 2.494783 143.858673 L 1.892739 145.932388 L 263.987823 217.576172 L 264.456055 217.709961 L 264.857422 217.509354 L 499.445709 79.355072 L 498.375397 77.54895 Z M 498.319214 83.25235 L 264.116241 221.856201 L 2.299328 149.878525 L 1.697284 151.95224 L 263.985077 224.064743 L 264.453308 224.198532 L 264.854675 223.997986 L 499.442963 85.126556 L 498.305756 83.253525 Z M 498.319214 88.871429 L 264.051971 227.809158 L 2.299328 156.032761 L 1.697284 158.106461 L 263.985077 230.017761 L 264.453308 230.084534 L 264.854675 229.883972 L 499.442963 90.74498 L 498.305756 88.871948 Z M 498.319214 95.02565 L 264.116241 233.428238 L 2.49217 161.850876 L 1.890126 163.924591 L 263.985199 235.634689 L 264.453461 235.768463 L 264.854828 235.5009 L 499.443237 96.830673 L 498.30603 95.024551 Z M 498.319214 100.845474 L 264.116241 239.31665 L 2.08532 167.739227 L 1.55017 169.746033 L 263.96637 241.522507 L 264.434631 241.656296 L 264.835999 241.45575 L 499.424408 102.650635 L 498.287231 100.844498 Z M 498.319214 106.330765 L 264.137665 245.790833 L 2.513597 173.344391 L 1.911553 175.418091 L 264.006622 247.997284 L 264.474884 248.131073 L 264.876251 247.930527 L 499.464661 108.190002 L 498.327454 106.316986 Z M 498.319214 112.083633 L 264.137665 251.543701 L 2.513597 179.499725 L 1.911553 181.573425 L 264.006622 253.752304 L 264.474884 253.886093 L 264.876251 253.618515 L 499.464661 113.944366 L 498.327454 112.07135 Z M 498.319214 118.104065 L 264.051971 257.778198 L 2.49217 185.93544 L 1.890126 188.00914 L 263.985199 259.986816 L 264.453461 260.053589 L 264.854828 259.853027 L 499.443237 119.911301 L 498.30603 118.105179 Z M 498.319214 123.254822 L 264.116241 264.600708 L 1.892739 192.689423 L 1.357589 194.763123 L 263.987823 266.807159 L 264.456055 266.940948 L 264.857422 266.740417 L 499.445709 125.058334 L 498.308502 123.252197 Z M 498.319214 128.67308 L 264.051971 270.755402 L 2.299328 199.111679 L 1.697284 201.185394 L 263.985077 272.961853 L 264.453308 273.028625 L 264.854675 272.828064 L 499.442963 130.544479 L 498.305756 128.671448 Z M 498.319214 133.355637 L 264.116241 277.311005 L 2.49217 205.132111 L 1.890126 207.205811 L 263.985199 279.517456 L 264.453461 279.651215 L 264.854828 279.383667 L 499.443237 135.227036 L 498.30603 133.354004 Z"/>
        <path id="path11" fill="none" stroke="#c7c38f" stroke-width="2.1406" stroke-opacity="0.98039" stroke-linecap="round" stroke-linejoin="round" d="M 498.913177 59.58287 L 498.913177 137.425781"/>
        <linearGradient id="linearGradient9" x1="1.480559" y1="122.901804" x2="5.333639" y2="129.623288" gradientUnits="userSpaceOnUse">
            <stop offset="1e-05" stop-color="#ae8410" stop-opacity="0"/>
            <stop offset="1" stop-color="#ae8410" stop-opacity="1"/>
        </linearGradient>
        <path id="path12" fill="none" stroke="url(#linearGradient9)" stroke-width="2.1406" stroke-linecap="round" stroke-linejoin="round" d="M 1.480664 123.929306 L 1.480664 212.584366 L 264.196472 283.941315 L 498.806152 137.442886"/>
        <g id="g1">
            <path id="path13" fill="#2c2c2a" fill-opacity="0.73333" stroke="none" d="M 468.045746 93.704041 L 468.045746 80.516434 L 486.871246 69.647507 L 486.871246 81.854309 Z"/>
            <path id="path14" fill="#2c2c2a" fill-opacity="0.73333" stroke="none" d="M 433.453583 125.063828 L 433.453583 111.876221 L 452.279083 101.007294 L 452.279083 113.214096 Z"/>
            <path id="path15" fill="#2c2c2a" fill-opacity="0.73333" stroke="none" d="M 403.720764 153.705063 L 403.720764 140.517456 L 422.546234 129.648529 L 422.546234 141.855331 Z"/>
            <path id="path16" fill="#2c2c2a" fill-opacity="0.73333" stroke="none" d="M 373.987793 181.811081 L 373.987793 168.623535 L 392.813293 157.754608 L 392.813293 169.961426 Z"/>
            <path id="path17" fill="#2c2c2a" fill-opacity="0.73333" stroke="none" d="M 343.184509 211.544052 L 343.184509 198.356445 L 362.01001 187.487579 L 362.01001 199.694321 Z"/>
            <path id="path18" fill="#2c2c2a" fill-opacity="0.73333" stroke="none" d="M 309.127625 244.530701 L 309.127625 231.343094 L 327.953125 220.474243 L 327.953125 232.680969 Z"/>
            <path id="path19" fill="#2c2c2a" fill-opacity="0.73333" stroke="none" d="M 277.596497 274.713165 L 277.596497 261.525574 L 296.421997 250.656647 L 296.421997 262.863434 Z"/>
        </g>
    </g>
</svg>
