<svg height="1000" viewBox="0 0 1000 1000" width="1000" xmlns="http://www.w3.org/2000/svg"><g fill="#fff" stroke="#fff" stroke-linecap="round" stroke-linejoin="round"><path d="m409.633392 278.376831h181.224823c25.309327 0 45.826538 20.517151 45.826538 45.826477 0 25.309265-20.517211 45.826538-45.826538 45.826538h-181.224823c-25.309295 0-45.826538-20.517273-45.826538-45.826538 0-25.309326 20.517243-45.826477 45.826538-45.826477z" stroke-width="8.248321"/><path d="m252.341797 720.025391c-35.722809 0-64.681641-28.958863-64.681641-64.681641v-252.833984c0-35.722779 28.958832-64.681641 64.681641-64.681641h504.335937c35.722779 0 64.681641 28.958862 64.681641 64.681641v252.833984c0 35.722778-28.958862 64.681641-64.681641 64.681641zm253.09375-79.13086c59.772827 0 108.228516-48.455688 108.228516-108.228515v-.042969c-.022156-59.756165-48.47223-108.185547-108.228516-108.185547-59.772797 0-108.228516 48.455627-108.228516 108.228516 0 59.772827 48.455719 108.228515 108.228516 108.228515zm-.015625-51.367187c-32.040711 0-58.015625-25.974854-58.015625-58.015625 0-32.040741 25.974914-58.015625 58.015625-58.015625 32.032043 0 58.002563 25.960174 58.015625 57.992187v.023438c0 32.040771-25.974915 58.015625-58.015625 58.015625z" fill-rule="evenodd" stroke-width="8.768061"/></g></svg>