<svg height="300" viewBox="0 0 300 300" width="300" xmlns="http://www.w3.org/2000/svg"><g fill="#fff" fill-rule="evenodd"><path d="m208.385284 164.268387h-34.448272v-76.633591c0-14.061844 3.68425-25.513779 11.052917-34.356171 4.236954-5.096633 9.625199-9.149322 16.164902-12.158203 6.539688-3.00888 13.248123-4.513275 20.125519-4.513275 13.69342 0 25.237457 4.605347 34.632492 13.816147 9.395019 9.210815 14.092468 20.509247 14.092468 33.89563 0 13.017944-4.666717 24.25499-14.000366 33.71141-9.333634 9.456421-20.386414 14.184586-33.158753 14.184586-2.087814 0-5.158035-.21492-9.210769-.64476v-37.948364c2.824661 2.272018 5.649231 3.407989 8.473907 3.407989 3.561524 0 6.616364-1.32019 9.164704-3.960632 2.548355-2.640457 3.822479-5.772064 3.822479-9.394989 0-3.62291-1.320191-6.708481-3.960632-9.256821-2.640458-2.54834-5.802796-3.822464-9.487092-3.822464-8.842392 0-13.263504 6.109772-13.263504 18.329422z"/><path d="m173.94989 138.839279h34.448273v76.633591c0 14.061859-3.684265 25.513794-11.052918 34.356171-4.236953 5.096633-9.625198 9.149353-16.164886 12.158203-6.539703 3.008911-13.248123 4.513275-20.125534 4.513275-13.693421 0-25.237457-4.605347-34.632485-13.816147-9.395027-9.2108-14.092475-20.509262-14.092475-33.895615 0-13.017975 4.66674-24.255005 14.000373-33.711425 9.333641-9.456406 20.386422-14.184556 33.15876-14.184556 2.087784 0 5.15802.214875 9.210755.64473v37.948364c-2.824646-2.272003-5.649246-3.407959-8.473877-3.407959-3.561539 0-6.616379 1.32016-9.164734 3.960602s-3.822464 5.772064-3.822464 9.394989c0 3.62291 1.32019 6.708481 3.960632 9.256836 2.640457 2.548325 5.80278 3.822464 9.487076 3.822464 8.842377 0 13.263504-6.109787 13.263504-18.329422z"/><path d="m166.828568 129.932251v-34.448288h-76.633591c-14.061852 0-25.513787 3.684265-34.356175 11.052933-5.096626 4.236953-9.149303 9.625198-12.158203 16.164901-3.008869 6.539689-4.513275 13.248124-4.513275 20.125519 0 13.693421 4.605347 25.237458 13.816151 34.632492 9.21083 9.39502 20.509254 14.092469 33.89563 14.092469 13.017959 0 24.254989-4.666718 33.711403-14.000367 9.456413-9.333633 14.184608-20.386413 14.184608-33.158767 0-2.087799-.214935-5.15802-.644775-9.21077h-37.948357c2.272034 2.824677 3.407989 5.649246 3.407989 8.473923 0 3.561523-1.320182 6.616363-3.96064 9.164703-2.640441 2.54834-5.772071 3.822464-9.394996 3.822464-3.622902 0-6.708473-1.32016-9.256798-3.960617-2.548355-2.640457-3.822487-5.80278-3.822487-9.487091 0-8.842392 6.10978-13.263504 18.329422-13.263504z"/></g></svg>