<svg height="237" viewBox="0 0 1000 237" width="1000" xmlns="http://www.w3.org/2000/svg" xmlns:xlink="http://www.w3.org/1999/xlink"><linearGradient id="a" gradientUnits="userSpaceOnUse" x1="840.788752" x2="783.810546" y1="104.015641" y2="90.103113"><stop offset="0" stop-color="#fd6cd8"/><stop offset="1" stop-color="#ff9068"/></linearGradient><radialGradient id="b" cx="820.446326" cy="69.591298" gradientUnits="userSpaceOnUse" r="6.845053"><stop offset=".00001" stop-color="#b37fab"/><stop offset=".5" stop-color="#704468"/><stop offset="1" stop-color="#fd8569"/></radialGradient><linearGradient id="c"><stop offset=".00001" stop-color="#7f7373"/><stop offset="1" stop-color="#706e6e"/></linearGradient><linearGradient id="d" gradientUnits="userSpaceOnUse" x1="790.884927" x2="790.884927" xlink:href="#c" y1="114.040779" y2="126.454593"/><linearGradient id="e"><stop offset=".00001" stop-color="#dedede"/><stop offset="1" stop-color="#1e1e1e"/></linearGradient><linearGradient id="f" gradientUnits="userSpaceOnUse" x1="788.961124" x2="788.961124" xlink:href="#e" y1="113.851525" y2="121.534393"/><linearGradient id="g"><stop offset=".00001" stop-color="#ff7020"/><stop offset=".27586" stop-color="#df0000"/><stop offset=".34561" stop-color="#b10000"/><stop offset=".52103" stop-color="#5b0000"/><stop offset=".70899" stop-color="#1e0000"/><stop offset="1"/></linearGradient><radialGradient id="h" cx="790.338535" cy="120.153227" gradientUnits="userSpaceOnUse" r="5.244461" xlink:href="#g"/><linearGradient id="i"><stop offset=".00001" stop-color="#fff"/><stop offset="1" stop-color="#fff" stop-opacity="0"/></linearGradient><linearGradient id="j" gradientUnits="userSpaceOnUse" x1="793.134544" x2="794.845755" xlink:href="#i" y1="116.43995" y2="118.300626"/><linearGradient id="k" gradientUnits="userSpaceOnUse" x1="787.433377" x2="786.16835" xlink:href="#i" y1="116.366886" y2="118.542426"/><linearGradient id="l"><stop offset=".00001" stop-color="#ff9"/><stop offset="1" stop-color="#ff9" stop-opacity="0"/></linearGradient><linearGradient id="m" gradientUnits="userSpaceOnUse" x1="791.109129" x2="791.479561" xlink:href="#l" y1="119.091333" y2="119.507581"/><linearGradient id="n" gradientUnits="userSpaceOnUse" x1="789.615932" x2="789.28736" xlink:href="#l" y1="119.110469" y2="119.560091"/><linearGradient id="o"><stop offset=".00001" stop-color="#ff0707"/><stop offset="1" stop-color="#d40000" stop-opacity="0"/></linearGradient><linearGradient id="p" gradientUnits="userSpaceOnUse" x1="791.594256" x2="789.763802" xlink:href="#o" y1="117.832873" y2="117.828867"/><linearGradient id="q" gradientUnits="userSpaceOnUse" x1="791.907402" x2="792.325379" xlink:href="#l" y1="118.729733" y2="119.096641"/><linearGradient id="r"><stop offset=".00001" stop-color="#eee"/><stop offset="1" stop-color="#eee" stop-opacity="0"/></linearGradient><linearGradient id="s" gradientUnits="userSpaceOnUse" x1="787.577581" x2="786.989581" xlink:href="#r" y1="118.288957" y2="119.065701"/><linearGradient id="t" gradientUnits="userSpaceOnUse" x1="787.730858" x2="787.217879" xlink:href="#r" y1="117.869537" y2="118.971911"/><linearGradient id="u" gradientUnits="userSpaceOnUse" x1="793.564724" x2="794.077703" xlink:href="#r" y1="117.869537" y2="118.971911"/><linearGradient id="v" gradientUnits="userSpaceOnUse" x1="809.807209" x2="809.807209" xlink:href="#c" y1="114.040779" y2="126.454593"/><linearGradient id="w" gradientUnits="userSpaceOnUse" x1="807.883406" x2="807.883406" xlink:href="#e" y1="113.851525" y2="121.534393"/><radialGradient id="x" cx="809.260817" cy="120.153227" gradientUnits="userSpaceOnUse" r="5.244461" xlink:href="#g"/><linearGradient id="y" gradientUnits="userSpaceOnUse" x1="812.056826" x2="813.768038" xlink:href="#i" y1="116.43995" y2="118.300626"/><linearGradient id="z" gradientUnits="userSpaceOnUse" x1="806.355659" x2="805.090633" xlink:href="#i" y1="116.366886" y2="118.542426"/><linearGradient id="A" gradientUnits="userSpaceOnUse" x1="810.031411" x2="810.401844" xlink:href="#l" y1="119.091333" y2="119.507581"/><linearGradient id="B" gradientUnits="userSpaceOnUse" x1="808.538214" x2="808.209642" xlink:href="#l" y1="119.110469" y2="119.560091"/><linearGradient id="C" gradientUnits="userSpaceOnUse" x1="810.516538" x2="808.686085" xlink:href="#o" y1="117.832873" y2="117.828867"/><linearGradient id="D" gradientUnits="userSpaceOnUse" x1="810.829684" x2="811.247661" xlink:href="#l" y1="118.729733" y2="119.096641"/><linearGradient id="E" gradientUnits="userSpaceOnUse" x1="806.499863" x2="805.911863" xlink:href="#r" y1="118.288957" y2="119.065701"/><linearGradient id="F" gradientUnits="userSpaceOnUse" x1="806.65314" x2="806.140161" xlink:href="#r" y1="117.869537" y2="118.971911"/><linearGradient id="G" gradientUnits="userSpaceOnUse" x1="812.487006" x2="812.999985" xlink:href="#r" y1="117.869537" y2="118.971911"/><linearGradient id="H"><stop offset=".00001" stop-color="#5f5e3a"/><stop offset="1" stop-color="#a19f62"/></linearGradient><radialGradient id="I" cx="758.952644" cy="178.445199" gradientUnits="userSpaceOnUse" r="13.03451" xlink:href="#H"/><linearGradient id="J"><stop offset=".00001" stop-color="#414a07"/><stop offset=".66381" stop-color="#a0a483"/><stop offset="1" stop-color="#fff"/></linearGradient><linearGradient id="K" gradientUnits="userSpaceOnUse" x1="771.963197" x2="748.832867" xlink:href="#J" y1="180.054524" y2="198.913193"/><radialGradient id="L" cx="720.855772" cy="174.65879" gradientUnits="userSpaceOnUse" r="13.046553" xlink:href="#H"/><linearGradient id="M" gradientUnits="userSpaceOnUse" x1="733.867003" x2="710.736674" xlink:href="#J" y1="176.265201" y2="195.12387"/><radialGradient id="N" cx="704.336054" cy="177.780854" gradientUnits="userSpaceOnUse" r="13.052956" xlink:href="#H"/><linearGradient id="O" gradientUnits="userSpaceOnUse" x1="717.346316" x2="694.215986" xlink:href="#J" y1="179.378524" y2="198.237193"/><radialGradient id="P" cx="721.306447" cy="182.490005" gradientUnits="userSpaceOnUse" r="12.901285" xlink:href="#H"/><linearGradient id="Q" gradientUnits="userSpaceOnUse" x1="734.17053" x2="711.238716" xlink:href="#J" y1="183.989389" y2="202.849798"/><radialGradient id="R" cx="744.965601" cy="184.036053" gradientUnits="userSpaceOnUse" r="13.003637" xlink:href="#H"/><linearGradient id="S" gradientUnits="userSpaceOnUse" x1="757.976057" x2="734.845727" xlink:href="#J" y1="185.590991" y2="204.44966"/><filter id="T" color-interpolation-filters="sRGB" filterUnits="userSpaceOnUse" height="237" width="1000" x="0" y="0"><feGaussianBlur stdDeviation=".081819"/></filter><filter id="U" color-interpolation-filters="sRGB" filterUnits="userSpaceOnUse" height="237" width="1000" x="0" y="0"><feGaussianBlur stdDeviation=".172952"/></filter><filter id="V" color-interpolation-filters="sRGB" filterUnits="userSpaceOnUse" height="237" width="1000" x="0" y="0"><feGaussianBlur stdDeviation=".169593"/></filter><filter id="W" color-interpolation-filters="sRGB" filterUnits="userSpaceOnUse" height="237" width="1000" x="0" y="0"><feGaussianBlur stdDeviation=".075558"/></filter><filter id="X" color-interpolation-filters="sRGB" filterUnits="userSpaceOnUse" height="237" width="1000" x="0" y="0"><feGaussianBlur stdDeviation=".116935"/></filter><filter id="Y" color-interpolation-filters="sRGB" filterUnits="userSpaceOnUse" height="237" width="1000" x="0" y="0"><feGaussianBlur stdDeviation=".052312"/></filter><filter id="Z" color-interpolation-filters="sRGB" filterUnits="userSpaceOnUse" height="237" width="1000" x="0" y="0"><feGaussianBlur stdDeviation=".043099"/></filter><filter id="aa" color-interpolation-filters="sRGB" filterUnits="userSpaceOnUse" height="237" width="1000" x="0" y="0"><feGaussianBlur stdDeviation=".040751"/></filter><filter id="ab" color-interpolation-filters="sRGB" filterUnits="userSpaceOnUse" height="237" width="1000" x="0" y="0"><feGaussianBlur stdDeviation=".162353"/></filter><filter id="ac" color-interpolation-filters="sRGB" filterUnits="userSpaceOnUse" height="237" width="1000" x="0" y="0"><feGaussianBlur stdDeviation=".126232"/></filter><path d="m749.954651 85.521286v-5.913986l20.457336 11.827637v5.91397z" fill="#650000" stroke="#000" stroke-width=".333568"/><path d="m770.411316 97.351257v-5.913986l20.457336 11.827637v5.913978z" fill="#650000" stroke="#000" stroke-width=".333568"/><path d="m790.867981 109.177887v-5.913986l20.457336 11.827636v5.913979z" fill="#650000" stroke="#000" stroke-width=".333568"/><path d="m811.324646 121.004517v-5.913987l20.457336 11.827645v5.913978z" fill="#650000" stroke="#000" stroke-width=".333568"/><path d="m760.181335 97.351257v-5.913986l20.457337 11.827637v5.913978z" fill="#650000" stroke="#000" stroke-width=".333568"/><path d="m780.638 109.177887v-5.913986l20.457337 11.827636v5.913979z" fill="#650000" stroke="#000" stroke-width=".333568"/><path d="m801.098022 121.004517v-5.913987l20.457337 11.827645v5.913978z" fill="#650000" stroke="#000" stroke-width=".333568"/><path d="m749.954651 97.351257v-5.913986l20.457336 11.827637v5.913978z" fill="#650000" stroke="#000" stroke-width=".333568"/><path d="m770.411316 109.177887v-5.913986l20.457336 11.827636v5.913979z" fill="#650000" stroke="#000" stroke-width=".333568"/><path d="m790.867981 121.004517v-5.913987l20.457336 11.827645v5.913978z" fill="#650000" stroke="#000" stroke-width=".333568"/><path d="m760.181335 109.177887v-5.913986l20.457337 11.827636v5.913979z" fill="#650000" stroke="#000" stroke-width=".333568"/><path d="m780.638 121.004517v-5.913987l20.457337 11.827645v5.913978z" fill="#650000" stroke="#000" stroke-width=".333568"/><path d="m801.098022 132.834503v-5.914001l20.457337 11.827636v5.913987z" fill="#650000" stroke="#000" stroke-width=".333568"/><path d="m749.954651 109.177887v-5.913986l20.457336 11.827636v5.913979z" fill="#650000" stroke="#000" stroke-width=".333568"/><path d="m770.411316 121.004517v-5.913987l20.457336 11.827645v5.913978z" fill="#650000" stroke="#000" stroke-width=".333568"/><path d="m790.867981 132.834503v-5.914001l20.457336 11.827636v5.913987z" fill="#650000" stroke="#000" stroke-width=".333568"/><path d="m760.181335 121.004517v-5.913987l20.457337 11.827645v5.913978z" fill="#650000" stroke="#000" stroke-width=".333568"/><path d="m780.638 132.834503v-5.914001l20.457337 11.827636v5.913987z" fill="#650000" stroke="#000" stroke-width=".333568"/><path d="m749.954651 121.004517v-5.913987l20.457336 11.827645v5.913978z" fill="#650000" stroke="#000" stroke-width=".333568"/><path d="m770.411316 132.834503v-5.914001l20.457336 11.827636v5.913987z" fill="#650000" stroke="#000" stroke-width=".333568"/><path d="m760.181335 132.834503v-5.914001l20.457337 11.827636v5.913987z" fill="#650000" stroke="#000" stroke-width=".333568"/><path d="m780.638 144.661133v-5.914002l20.457337 11.827637v5.914002z" fill="#650000" stroke="#000" stroke-width=".333568"/><path d="m749.954651 91.436264v-5.913986l10.228699 5.913986v5.913986z" fill="#650000" stroke="#000" stroke-width=".333568"/><path d="m749.954651 103.262909v-5.914002l10.228699 5.914002v5.913979z" fill="#650000" stroke="#000" stroke-width=".333568"/><path d="m749.954651 115.092873v-5.913987l10.228699 5.913987v5.913978z" fill="#650000" stroke="#000" stroke-width=".333568"/><path d="m749.954651 126.919502v-5.913986l10.228699 5.913986v5.913994z" fill="#650000" stroke="#000" stroke-width=".333568"/><path d="m821.554688 132.834503v-5.914001l10.228637 5.914001v5.913971z" fill="#650000" stroke="#000" stroke-width=".333568"/><path d="m811.324646 132.834503v-5.914001l10.228699 5.914001v5.913971z" fill="#650000" stroke="#000" stroke-width=".333568"/><path d="m801.098022 144.661133v-5.914002l10.228638 5.914002v5.913971z" fill="#650000" stroke="#000" stroke-width=".333568"/><path d="m790.867981 144.661133v-5.914002l10.228699 5.914002v5.913971z" fill="#650000" stroke="#000" stroke-width=".333568"/><path d="m678.353027 121.004517v5.913993l20.457276-11.827644v-5.913978z" fill="#c80000" stroke="#000" stroke-width=".333568"/><path d="m698.81134 109.177887v5.913979l20.457337-11.82763v-5.913986z" fill="#c80000" stroke="#000" stroke-width=".333568"/><path d="m719.268005 97.351257v5.913971l20.457337-11.827621v-5.913986z" fill="#c80000" stroke="#000" stroke-width=".333568"/><path d="m688.58136 121.004517v5.913993l20.457275-11.827644v-5.913978z" fill="#c80000" stroke="#000" stroke-width=".333568"/><path d="m709.038025 109.177887v5.913979l20.457275-11.82763v-5.913986z" fill="#c80000" stroke="#000" stroke-width=".333568"/><path d="m729.49469 97.351257v5.913971l20.457275-11.827621v-5.913986z" fill="#c80000" stroke="#000" stroke-width=".333568"/><path d="m678.353027 132.834503v5.913971l20.457276-11.827637v-5.913986z" fill="#c80000" stroke="#000" stroke-width=".333568"/><path d="m698.81134 121.004517v5.913993l20.457337-11.827644v-5.913978z" fill="#c80000" stroke="#000" stroke-width=".333568"/><path d="m719.268005 109.177887v5.913979l20.457337-11.82763v-5.913986z" fill="#c80000" stroke="#000" stroke-width=".333568"/><path d="m688.58136 132.834503v5.913971l20.457275-11.827637v-5.913986z" fill="#c80000" stroke="#000" stroke-width=".333568"/><path d="m709.038025 121.004517v5.913993l20.457275-11.827644v-5.913978z" fill="#c80000" stroke="#000" stroke-width=".333568"/><path d="m729.49469 109.177887v5.913979l20.457275-11.82763v-5.913986z" fill="#c80000" stroke="#000" stroke-width=".333568"/><path d="m698.81134 132.834503v5.913971l20.457337-11.827637v-5.913986z" fill="#c80000" stroke="#000" stroke-width=".333568"/><path d="m719.268005 121.004517v5.913993l20.457337-11.827644v-5.913978z" fill="#c80000" stroke="#000" stroke-width=".333568"/><path d="m729.49469 121.004517v5.913993l20.457275-11.827644v-5.913978z" fill="#c80000" stroke="#000" stroke-width=".333568"/><path d="m709.038025 132.834503v5.913971l20.457275-11.827637v-5.913986z" fill="#c80000" stroke="#000" stroke-width=".333568"/><path d="m688.58136 144.661133v5.913971l20.457275-11.827637v-5.913971z" fill="#c80000" stroke="#000" stroke-width=".333568"/><path d="m698.81134 144.661133v5.913971l20.457337-11.827637v-5.913971z" fill="#c80000" stroke="#000" stroke-width=".333568"/><path d="m668.124329 132.834503v5.913971l20.457336-11.827637v-5.913986z" fill="#c80000" stroke="#000" stroke-width=".333568"/><path d="m719.268005 132.834503v5.913971l20.457337-11.827637v-5.913986z" fill="#c80000" stroke="#000" stroke-width=".333568"/><path d="m709.038025 144.661133v5.913971l20.457275-11.827637v-5.913971z" fill="#c80000" stroke="#000" stroke-width=".333568"/><path d="m729.49469 132.834503v5.913971l20.457275-11.827637v-5.913986z" fill="#c80000" stroke="#000" stroke-width=".333568"/><path d="m668.124329 126.919502v5.913994l10.228698-5.913994v-5.913986z" fill="#c80000" stroke="#000" stroke-width=".333568"/><path d="m678.353027 138.74614v5.913986l10.228638-5.913986v-5.913987z" fill="#c80000" stroke="#000" stroke-width=".333568"/><path d="m688.58136 138.74614v5.913986l10.228638-5.913986v-5.913987z" fill="#c80000" stroke="#000" stroke-width=".333568"/><path d="m698.81134 150.576111v5.914001l10.228638-5.914001v-5.913986z" fill="#c80000" stroke="#000" stroke-width=".333568"/><path d="m739.72467 85.521286v5.913971l10.228638-5.913971v-5.913986z" fill="#c80000" stroke="#000" stroke-width=".333568"/><path d="m739.72467 97.351257v5.913971l10.228638-5.913971v-5.913986z" fill="#c80000" stroke="#000" stroke-width=".333568"/><path d="m739.72467 109.177887v5.913979l10.228638-5.913979v-5.913986z" fill="#c80000" stroke="#000" stroke-width=".333568"/><path d="m739.72467 121.004517v5.913993l10.228638-5.913993v-5.913987z" fill="#c80000" stroke="#000" stroke-width=".333568"/><path d="m647.666992 126.919502 20.457337-11.826629 10.228698 5.911644-20.457336 11.829986z" fill="#ff3c3c" stroke="#000" stroke-width=".333568"/><path d="m668.124329 115.092873 20.457336-11.827645 10.228638 5.913994-20.457276 11.827629z" fill="#ff3c3c" stroke="#000" stroke-width=".333568"/><path d="m688.58136 103.262909 20.457275-11.827652 10.228699 5.913986-20.457336 11.827645z" fill="#ff3c3c" stroke="#000" stroke-width=".333568"/><path d="m709.038025 91.436264 20.457275-11.827637 10.228699 5.913987-20.457336 11.827636z" fill="#ff3c3c" stroke="#000" stroke-width=".333568"/><path d="m729.49469 79.609634 20.457275-11.827636 10.228699 5.913986-20.457336 11.827637z" fill="#ff3c3c" stroke="#000" stroke-width=".333568"/><path d="m780.638 85.521286-20.457336-11.827637-10.228638 5.913986 20.457276 11.827622z" fill="#ff3c3c" stroke="#000" stroke-width=".333568"/><path d="m801.098022 97.351257-20.457336-11.827636-10.228699 5.913986 20.457337 11.827621z" fill="#ff3c3c" stroke="#000" stroke-width=".333568"/><path d="m821.554688 109.177887-20.457337-11.827637-10.228699 5.913986 20.457337 11.82763z" fill="#ff3c3c" stroke="#000" stroke-width=".333568"/><path d="m842.011353 121.004517-20.457337-11.827629-10.228699 5.913978 20.457337 11.827644z" fill="#ff3c3c" stroke="#000" stroke-width=".333568"/><path d="m809.435852 122.016045s22.825073-13.858315 12.700867-46.942971" fill="none" stroke="url(#a)" stroke-linecap="round" stroke-width="2.533735"/><path d="m819.378357 76.062668c2.519653 1.424621 5.635254.47905 6.95874-2.112106 1.323486-2.591172.353699-5.846665-2.166076-7.271439-2.519715-1.424606-5.635376-.479019-6.958802 2.112122-.973144 1.905273-.729126 4.255004.617432 5.945861" fill="url(#b)"/><path d="m799.990967 179.522614c2.836609 0 5.15039-2.316773 5.15039-5.157853 0-2.840606-2.313781-5.157379-5.15039-5.157379-2.836731 0-5.150391 2.316773-5.150391 5.157379 0 2.84108 2.31366 5.157853 5.150391 5.157853z" fill="#333" fill-rule="evenodd"/><path d="m799.990723 95.914505c14.858581 0 26.903625 12.062286 26.903625 26.941772 0 7.793442-3.305176 14.813523-8.587768 19.732148-4.270081 3.976181-6.456421 9.001358-6.456421 14.840118v.241821h-23.718628v-.241821c0-5.83876-2.186463-10.863937-6.456665-14.840118-5.282593-4.918625-8.587769-11.938706-8.587769-19.732148 0-14.879486 12.045288-26.941772 26.903626-26.941772z" fill="#ffe500" fill-rule="evenodd"/><path d="m800.517395 100.962997c5.918823 3.774918 6.38562 13.645424 1.042664 22.046296-5.342957 8.400894-14.472413 12.151107-20.391419 8.376068-5.91864-3.775162-6.385498-13.645653-1.042419-22.04644 5.342956-8.401024 14.472534-12.150963 20.391174-8.375924z" fill="#ffed4f" fill-rule="evenodd"/><path d="m788.131531 173.957275h23.718628v-16.287384h-23.718628z" fill="#666" fill-rule="evenodd"/><path d="m794.568848 177.554474h10.843872l6.437439-3.597199h-23.718628z" fill="#4d4d4d" fill-rule="evenodd"/><path d="m801.905823 157.670364v-30.075996h-3.8302v30.075996h-3.842102v-30.075996h-4.727479l-.190979-.029945c-1.997192-.313713-3.694152-1.379631-4.837585-2.867928-1.147522-1.493736-1.743957-3.409752-1.5354-5.416595.208862-2.012162 1.185547-3.765328 2.613403-4.988404 1.428467-1.223549 3.307922-1.918258 5.321838-1.813858 2.016297.10479 3.814698.990364 5.107727 2.35392 1.297669 1.368973 2.090577 3.213944 2.090577 5.231179v3.68431h3.8302v-3.68431c0-2.017479.792907-3.862443 2.090576-5.231179 1.293152-1.363792 3.091186-2.24913 5.107727-2.35392 2.013916-.1044 3.893738.590546 5.321838 1.813858 1.427735 1.223076 2.404541 2.976136 2.613648 4.988404.208313 2.006843-.388123 3.922859-1.535645 5.416595-1.143432 1.488297-2.840454 2.554215-4.837707 2.867928l-.190796.029945h-4.727783v30.075996zm3.841858-37.607627v3.68431h4.499511c.911133-.185279 1.688233-.696472 2.225159-1.395225.56543-.735756.858948-1.68412.755249-2.681343-.102966-.99234-.586365-1.858292-1.29303-2.463402-.706237-.605316-1.637207-.948944-2.635254-.897148-.995666.051773-1.885437.49073-2.526428 1.166893-.636352.671059-1.025207 1.58255-1.025207 2.585915zm-16.01355 3.68431h4.49939v-3.68431c0-1.003129-.388611-1.914856-1.024964-2.585915-.640991-.676048-1.530762-1.11512-2.526306-1.166893-.998169-.051796-1.928894.291832-2.635254.897148-.706665.605225-1.189941 1.471397-1.293152 2.463402-.103454.997337.190064 1.945587.755371 2.681343.536805.698753 1.313904 1.209946 2.224915 1.395225z" fill="#ffc" fill-rule="evenodd"/><path d="m794.233521 130.399963v-2.805595h-4.727479l-.190979-.029945c-1.997192-.313713-3.694152-1.379631-4.837585-2.867928-1.147522-1.493736-1.743957-3.409752-1.5354-5.416595.208862-2.012162 1.185547-3.765328 2.613403-4.988404 1.428467-1.223549 3.307922-1.918258 5.321838-1.813858 2.016297.10479 3.814698.990364 5.107727 2.35392 1.297669 1.368973 2.090577 3.213944 2.090577 5.231179v3.68431h2.997131c-1.942627 2.836144-4.321655 5.094384-6.839233 6.652916zm7.672302-7.95153v-2.385696c0-2.017479.792907-3.862443 2.090576-5.231179.324463-.342346.680603-.654289 1.06427-.931465-.425903 2.809509-1.473084 5.749825-3.154846 8.54834zm-12.171692 1.298614h4.49939v-3.68431c0-1.003129-.388611-1.914856-1.024964-2.585915-.640991-.676048-1.530762-1.11512-2.526306-1.166893-.998169-.051796-1.928894.291832-2.635254.897148-.706665.605225-1.189941 1.471397-1.293152 2.463402-.103454.997337.190064 1.945587.755371 2.681343.536805.698753 1.313904 1.209946 2.224915 1.395225z" fill="#fffff0" fill-rule="evenodd"/><path d="m790.571594 173.957275h6.031433v-16.287384h-6.031433z" fill="#808080" fill-rule="evenodd"/><path d="m787.013123 162.708313 25.955078-2.459152v2.985611l-25.955078 2.459594zm0 5.564651 25.955078-2.459152v2.985596l-25.955078 2.459839z" fill="#808080" fill-rule="evenodd"/><path d="m789.724365 162.451599 5.654907-.535919v2.985962l-5.654907.535904zm5.654907 5.029083v2.985596l-5.654907.536148v-2.986313z" fill="#999" fill-rule="evenodd"/><path d="m796.408447 120.153984c0 3.356705-2.717346 6.077881-6.069336 6.077881-3.351989 0-6.069336-2.721176-6.069336-6.077881 0-3.356712 2.717347-6.077888 6.069336-6.077888 3.35199 0 6.069336 2.721176 6.069336 6.077888z" fill="none" stroke="#000" stroke-opacity=".69792" stroke-width=".576253"/><path d="m796.346619 120.153458c0 3.322837-2.689942 6.016555-6.008118 6.016555-3.318115 0-6.008057-2.693718-6.008057-6.016555 0-3.322831 2.689942-6.016556 6.008057-6.016556 3.318176 0 6.008118 2.693725 6.008118 6.016556z" fill="url(#d)" stroke="url(#f)" stroke-width=".380298"/><path d="m795.582825 120.153229c0 2.900497-2.348023 5.251846-5.244446 5.251846s-5.244507-2.351349-5.244507-5.251846c0-2.900505 2.348084-5.251847 5.244507-5.251847s5.244446 2.351342 5.244446 5.251847z" fill="url(#h)"/><path d="m790.677979 120.083351c0 .165535-.134034.299729-.299317.299729-.165344 0-.299316-.134194-.299316-.299729s.133972-.299736.299316-.299736c.165283 0 .299317.134201.299317.299736z" fill="#ff9"/><path d="m790.422363 115.382805c-.64209-.026261-1.643799.08387-2.30841.503868.049865.210831.108886.391335.268676.702621.628663-.277938 1.202149-.416961 1.934143-.398307.731995.018623 1.412232.254486 1.950684.46138.185913-.369553.22467-.494484.296387-.705674-.765564-.441169-1.453247-.535705-2.141541-.563873z" fill="#fff" fill-opacity=".70833" fill-rule="evenodd"/><path d="m794.761719 118.10762c-.112366-.474167-.753662-1.15007-1.040528-1.330719-.127136.105362-.170532.181542-.329467.394486.335693.206161.876342.535316 1.107727 1.029579.192993-.068215.143371-.03302.262268-.093331z" fill="url(#j)" fill-rule="evenodd"/><path d="m786.047913 118.713196c.023803-.495125.667175-1.668381.901245-1.901695.134948.082122.187866.150558.370117.334533-.274902.267853-.881226.987847-1.011536 1.524987-.189453-.032944-.140197.080848-.259826.042175z" fill="url(#k)" fill-rule="evenodd"/><g fill-rule="evenodd" opacity=".51053"><path d="m790.389282 118.721931c-.155639-.007934-.374634.063614-.535766.190514.012085.063706.020446.02256.059143.116615.152466-.083984.291504-.125984.468933-.120346.17749.005638.342407.076882.472961.139389.045105-.111641.054444-.087234.071839-.151001-.185608-.133293-.37024-.166671-.53711-.175186z" fill="#ff9" fill-opacity=".77604"/><path d="m791.389893 119.416801c-.024659-.134338-.171753-.327583-.237915-.379661-.029847.029297-.040162.050651-.077759.110214.077392.059456.202148.154411.254455.294853.045044-.018562.033448-.008804.061219-.025406z" fill="url(#m)"/><path d="m789.287354 119.512329c.024719-.134338.226745-.423096.292907-.475159.029846.029297.040161.050652.077759.110215-.077454.059463-.253174.22602-.305481.366485-.045105-.018524-.037476.015-.065185-.001533z" fill="url(#n)"/></g><path d="m791.351746 117.734734c-.586304-.307366-1.509888.013771-1.915711.202362-.599304.278556.246826.100479.543274-.027611.255249-.110283.598877-.1744 1.297608.023674.258911-.002533.181396-.122955.074768-.198433z" fill="url(#p)" opacity=".51053"/><g fill="url(#q)" fill-rule="evenodd" opacity=".23684"><path d="m790.431458 118.085617c-.187378-.012863-.560181.111641-.699585.210564.02478.099685.036254.135193.1156.282371.11554-.076042.364807-.23011.56134-.22155.202698.00882.39148.04831.486084.101837.044678-.09719.069825-.150772.117432-.228416-.284912-.114441-.393555-.131943-.580933-.144806z"/><path d="m792.325378 118.99147c-.116149-.138229-.161193-.174827-.296691-.256324-.061158.045845-.082337.079261-.159363.172477.15863.093041.211548.125328.306762.206658.074463-.051194.092347-.09684.149292-.122811z"/><path d="m788.352295 119.113297c.098205-.121621.172424-.213532.325806-.344864.061218.045852.165771.101417.254699.161407-.15863.109657-.250488.193108-.315918.268906-.092346-.029045-.207641-.059471-.264587-.085449z"/></g><path d="m790.329224 116.890594c-.339356.009087-.889161.145371-1.132325.23182.043213.207565.063782.317955.079346.449043.24939-.098572.734863-.244583 1.077759-.226753.353638.018371.767761.11486.98053.190452.042785-.190422.087219-.301429.146301-.487015-.473084-.106819-.812805-.166603-1.151611-.157531z" fill="url(#s)" fill-rule="evenodd" opacity=".38421"/><path d="m787.080261 118.357811c.171448-.253258.288941-.38488.55658-.658363.10675.095466.384643.282905.539795.407829-.276734.228332-.413086.318458-.563111.476303-.161132-.060486-.433837-.171677-.533264-.225754z" fill="url(#t)" fill-rule="evenodd" opacity=".38421"/><path d="m794.215942 118.357811c-.171447-.253258-.28894-.38488-.556579-.658363-.10669.095466-.384644.282905-.539795.407829.276733.228332.413147.318458.56311.476303.161133-.060486.433899-.171677.533264-.225754z" fill="url(#u)" fill-rule="evenodd" opacity=".38421"/><path d="m815.33075 120.153984c0 3.356705-2.717347 6.077881-6.069336 6.077881-3.35199 0-6.069336-2.721176-6.069336-6.077881 0-3.356712 2.717346-6.077888 6.069336-6.077888 3.351989 0 6.069336 2.721176 6.069336 6.077888z" fill="none" stroke="#000" stroke-opacity=".69792" stroke-width=".576253"/><path d="m815.268921 120.153458c0 3.322837-2.689942 6.016555-6.008118 6.016555s-6.008117-2.693718-6.008117-6.016555c0-3.322831 2.689941-6.016556 6.008117-6.016556s6.008118 2.693725 6.008118 6.016556z" fill="url(#v)" stroke="url(#w)" stroke-width=".380298"/><path d="m814.505127 120.153229c0 2.900497-2.348084 5.251846-5.244507 5.251846s-5.244446-2.351349-5.244446-5.251846c0-2.900505 2.348023-5.251847 5.244446-5.251847s5.244507 2.351342 5.244507 5.251847z" fill="url(#x)"/><path d="m809.60022 120.083351c0 .165535-.133972.299729-.299317.299729-.165283 0-.299255-.134194-.299255-.299729s.133972-.299736.299255-.299736c.165345 0 .299317.134201.299317.299736z" fill="#ff9"/><path d="m809.344666 115.382805c-.64209-.026261-1.643799.08387-2.308472.503868.049927.210831.108948.391335.268738.702621.628601-.277938 1.202087-.416961 1.934082-.398307.732055.018623 1.412231.254486 1.950683.46138.185974-.369553.224732-.494484.296387-.705674-.765503-.441169-1.453186-.535705-2.141541-.563873z" fill="#fff" fill-opacity=".70833" fill-rule="evenodd"/><path d="m813.68396 118.10762c-.112305-.474167-.753601-1.15007-1.040527-1.330719-.127076.105362-.170533.181542-.329468.394486.335754.206161.876404.535316 1.107788 1.029579.192993-.068215.143372-.03302.262207-.093331z" fill="url(#y)" fill-rule="evenodd"/><path d="m804.970154 118.713196c.023865-.495125.667175-1.668381.901306-1.901695.134888.082122.187866.150558.370117.334533-.274963.267853-.881225.987847-1.011535 1.524987-.189454-.032944-.140198.080848-.259888.042175z" fill="url(#z)" fill-rule="evenodd"/><g fill-rule="evenodd" opacity=".51053"><path d="m809.311584 118.721931c-.1557-.007934-.374633.063614-.535766.190514.012085.063706.020447.02256.059143.116615.152405-.083984.291443-.125984.468933-.120346s.342407.076882.4729.139389c.045105-.111641.054505-.087234.0719-.151001-.185608-.133293-.370239-.166671-.53711-.175186z" fill="#ff9" fill-opacity=".77604"/><path d="m810.312195 119.416801c-.024719-.134338-.171753-.327583-.237915-.379661-.029907.029297-.040222.050651-.07782.110214.077454.059456.202148.154411.254517.294853.045044-.018562.033386-.008804.061218-.025406z" fill="url(#A)"/><path d="m808.209656 119.512329c.024658-.134338.226684-.423096.292846-.475159.029908.029297.040223.050652.07782.110215-.077453.059463-.253174.22602-.305481.366485-.045105-.018524-.037475.015-.065185-.001533z" fill="url(#B)"/></g><path d="m810.274048 117.734734c-.586304-.307366-1.509888.013771-1.915711.202362-.599365.278556.246766.100479.543213-.027611.255249-.110283.598938-.1744 1.297669.023674.258911-.002533.181335-.122955.074768-.198433z" fill="url(#C)" opacity=".51053"/><g fill="url(#D)" fill-rule="evenodd" opacity=".23684"><path d="m809.353699 118.085617c-.187317-.012863-.56012.111641-.699524.210564.02478.099685.036255.135193.115539.282371.115601-.076042.364807-.23011.561341-.22155.202697.00882.39154.04831.486145.101837.044677-.09719.069824-.150772.11737-.228416-.284851-.114441-.393493-.131943-.580871-.144806z"/><path d="m811.247681 118.99147c-.11615-.138229-.161194-.174827-.296753-.256324-.061157.045845-.082276.079261-.159302.172477.15863.093041.211487.125328.306763.206658.074463-.051194.092285-.09684.149292-.122811z"/><path d="m807.274536 119.113297c.098267-.121621.172485-.213532.325867-.344864.061157.045852.165771.101417.254639.161407-.15857.109657-.250428.193108-.315918.268906-.092286-.029045-.207581-.059471-.264588-.085449z"/></g><path d="m809.251526 116.890594c-.339356.009087-.88916.145371-1.132324.23182.043213.207565.06372.317955.079345.449043.24939-.098572.734864-.244583 1.077759-.226753.353638.018371.767761.11486.98053.190452.042786-.190422.087219-.301429.146301-.487015-.473144-.106819-.812866-.166603-1.151611-.157531z" fill="url(#E)" fill-rule="evenodd" opacity=".38421"/><path d="m806.002563 118.357811c.171387-.253258.288941-.38488.55658-.658363.10669.095466.384644.282905.539795.407829-.276733.228332-.413147.318458-.563171.476303-.161072-.060486-.433838-.171677-.533204-.225754z" fill="url(#F)" fill-rule="evenodd" opacity=".38421"/><path d="m813.138245 118.357811c-.171448-.253258-.288941-.38488-.55658-.658363-.10675.095466-.384644.282905-.539795.407829.276734.228332.413086.318458.56311.476303.161072-.060486.433838-.171677.533265-.225754z" fill="url(#G)" fill-rule="evenodd" opacity=".38421"/><path d="m833.925659 45.811081c7.709046 4.249054 13.080139 11.275604 14.866028 19.447967 1.785889 8.172364-.168884 16.779496-5.410278 23.822693" fill="none" stroke="#fff" stroke-linejoin="round" stroke-width="7.013188"/><path d="m825.934631 59.346695c3.891236 2.144745 6.602295 5.691391 7.503723 9.816467.901429 4.125077-.085205 8.469559-2.730896 12.024628" fill="none" stroke="#fff" stroke-linejoin="round" stroke-width="7.013188"/><path d="m757.617859 186.879196c.237183-1.877701-.63794-4.123886-.880371 3.95459-5.006348.072433-6.805237 3.191574-1.658692 3.587784 5.146607.396149 5.279725-.607941 3.118287-2.790573.408508-9.311539-.816468-2.8741-.579224-4.751801z" fill="url(#I)" stroke="url(#K)" stroke-linecap="round" stroke-linejoin="round" stroke-width=".525811"/><path d="m719.521912 184.743774c.237243-1.877716-.637879-5.779419-.880371 2.299103-5.006226.072434-6.805176 3.191635-1.658631 3.587784 5.146607.396149 5.279663-.607941 3.118225-2.790512.40857-9.3116-.816406-1.218674-.579223-3.096375z" fill="url(#L)" stroke="url(#M)" stroke-linecap="round" stroke-linejoin="round" stroke-width=".525811"/><path d="m725.153992 109.980904c2.549926-1.469826 5.451538-2.683602 8.970703-3.447487-.432373.537857-.928223 1.05838-.893738 1.723739 2.523438-.916153 5.267761-1.579742 8.407959-1.790039-.546204.432007-1.137573.836914-1.257874 1.524857 3.222962-.995514 5.38733-.930832 7.878357-1.193359-1.774414 1.071716-3.079284 2.03865-3.376464 3.149139z" fill="#f7ba00" fill-rule="evenodd"/><path d="m708.139465 112.971924c3.092408-3.096771 6.294129-2.502403 8.43628-.360916-2.061585 2.064483-6.423828 6.940666-8.485535 9.005157-2.138367-2.145218-3.043152-5.5475.049255-8.644279z" fill="#feff2a" fill-rule="evenodd"/><path d="m761.295593 112.971924c-3.092407-3.096771-6.294067-2.502403-8.436279-.360916 2.061584 2.064483 6.423828 6.940666 8.485535 9.005157 2.138427-2.145218 3.043151-5.5475-.049256-8.644279z" fill="#feff2a" fill-rule="evenodd"/><path d="m705.038086 130.608612s-14.317932-1.362884-17.117981-5.876114c-2.089844-3.368538 2.369385-8.574234 1.115478-12.335769-1.469787-4.408814-8.627014-4.526154-9.263061-9.130417-.450684-3.26207 4.742859-6.280747 4.946716-9.567505.215515-3.475174-4.073791-8.596176-4.073791-8.596176s7.409302 4.389984 8.050659 8.159088c.558655 3.283844-4.488953 6.129028-3.734375 9.373245.955444 4.107132 7.594177 3.638763 9.2229 7.527733 1.307862 3.122406-2.251403 7.270912-.396301 10.10173 1.89447 2.890846 11.276733 2.521156 11.276733 2.521156z" fill="#fffc67"/><path d="m680.64624 85.102234s4.289307 5.121002 4.073792 8.596191c-.203797 3.286759-5.3974 6.30542-4.946778 9.567505.636048 4.604248 7.793213 4.721588 9.263062 9.130417 1.254028 3.761536-3.205261 8.967232-1.115418 12.33577 2.800049 4.513336 17.11969 5.876495 17.11969 5.876495v-.084991c-2.985717-.354126-13.279052-1.902131-15.692138-5.791413-2.089844-3.368538 2.163818-8.951881.909729-12.713615-1.469849-4.408821-8.798462-4.148506-9.434571-8.752571-.450622-3.26207 4.640076-6.280747 4.843934-9.567505.15686-2.53009-2.238282-5.924851-3.463318-7.588333-.912415-.625305-1.557984-1.007752-1.557984-1.007752zm24.419556 37.681412s-.145935.00769-.406189.012146c.150879.000381.282043.000969.406189 0z" fill-opacity=".4709"/><path d="m734.741638 109.178566c-29.579284 0-29.560364 16.615822-29.578308 37.115837l-1.006714 35.577164 29.299195 2.859451s3.632385-.695816 5.858886-.526138c2.355713.179519 6.251282 1.633072 6.251282 1.633072l16.142456 1.639938s1.146973.036255 1.796143-.551224c.704467-.637481.815368-2.035919.815368-2.035919v-38.596344c-.017883-20.500015.000977-37.115837-29.578308-37.115837z" fill="#feff2a" fill-rule="evenodd"/><path d="m749.674072 128.592026c0 8.417679-6.703674 15.241546-14.973083 15.241546s-14.973084-6.823867-14.973084-15.241546c0-8.417671 6.703675-15.241547 14.973084-15.241547s14.973083 6.823876 14.973083 15.241547z" fill-opacity=".73016" fill-rule="evenodd"/><path d="m748.724731 128.230164c0 7.935821-6.319946 14.36911-14.116027 14.36911-7.796082 0-14.116028-6.433289-14.116028-14.36911 0-7.935837 6.319946-14.369111 14.116028-14.369111 7.796081 0 14.116027 6.433274 14.116027 14.369111z" fill="#fff" fill-rule="evenodd"/><path d="m737.763367 131.390991 3.630371 4.401184-3.984253-4.082702 3.142578 4.762649-3.528259-4.483688 2.619262 5.070282-3.032348-4.833862 2.066223 5.320266-2.502197-5.129226 1.489929 5.510131-1.943604-5.366516.896607 5.637451-1.362976-5.542999.293091 5.700928-.766846-5.656647-.313721 5.69986-.162048-5.706269-.916931 5.634186.444519-5.691162-1.509705 5.504669 1.046082-5.611602-2.085511 5.312774 1.635804-5.468429-2.637574 5.060714 2.20691-5.263366-3.159852 4.751251 2.753113-4.998642-3.646179 4.388046 3.268127-4.677215-4.091369 3.975036 3.746033-4.302856-4.490052 3.517059 4.181519-3.879715-4.838013 3.01915 4.569763-3.412628-5.130981 2.487045 4.906067-2.906906-5.366028 1.926819 5.186829-2.36818-5.540101 1.344681 5.408814-1.802765-5.651367.747437 5.569458-1.216828-5.698792.141633 5.667115-.617066-5.681397-.465767 5.700501-.01033-5.599915-1.067886 5.66925.596489-5.454772-1.657845 5.573913 1.196518-5.247925-2.229141 5.415284 1.783119-4.981629-2.775139 5.195374 2.349411-4.658814-3.28965 4.916504 2.889107-4.283264-3.766937 4.58197 3.396034-3.85907-4.201454 4.195557 3.864517-3.391235-4.588425 3.761596 4.289269-2.88501-4.923409 3.285035 4.66539-2.346131-5.202591 2.771241 4.988533-1.78064-5.422943 2.226013 5.255348-1.194946-5.581748 1.655639 5.462455-.595703-5.677276 1.066407 5.607803.010314-5.708534.465088 5.689537.616211-5.675102-.141418 5.706794 1.215088-5.577293-.746338 5.659363 1.800232-5.416436-1.342835 5.547883 2.364991-5.194123-1.924134 5.373558 2.902832-4.912986-2.483581 5.138221 3.407837-4.576164-3.014893 4.844818 3.874268-4.187454-3.512085 4.496384 4.296753-3.751313-3.969422 4.097145 4.670655-3.27272-4.381897 3.651337 4.991577-2.757012-4.744507 3.164284 5.25592-2.210037-5.053589 2.641296 5.460755-1.638099-5.305298 2.088462 5.603699-1.047561-5.496949 1.511856 5.683167-.44516-5.626221.918228 5.698242.162308-5.691833.314148 5.648621.767914-5.692872-.293488 5.535218 1.364868-5.629517-.897796 5.358948 1.946258-5.50238-1.492004 5.122009 2.505737-5.312866-2.069153 4.827026 3.036637-5.06311-2.622956 4.477356 3.533234-4.755921-3.147019 4.076965 3.989899z" fill-opacity=".88889"/><path d="m734.741638 109.179512c-29.579284 0-29.563232 16.615814-29.581177 37.115837h5.524903c.01593-20.159302.000915-36.560272 25.501037-37.100693-.474853-.009101-.953613-.015548-1.44458-.015548z" fill-opacity=".15" fill-rule="evenodd"/><path d="m734.695313 109.179512c29.579284 0 29.563232 16.615814 29.581176 37.115837h-5.524841c-.015991-20.159302-.000977-36.560272-25.501099-37.100693.474854-.009101.953614-.015548 1.44458-.015548z" fill="#fff" fill-opacity=".15" fill-rule="evenodd"/><path d="m741.04071 128.207397c0 3.634644-2.894531 6.581086-6.465148 6.581086-3.570618 0-6.46521-2.946442-6.46521-6.581086 0-3.634635 2.894592-6.581085 6.46521-6.581085 3.570617 0 6.465148 2.94645 6.465148 6.581085z" fill-rule="evenodd"/><path d="m739.107117 125.354317c0 .96463-.776795 1.74662-1.735047 1.74662s-1.735046-.78199-1.735046-1.74662.776794-1.74662 1.735046-1.74662 1.735047.78199 1.735047 1.74662z" fill="#fff" fill-rule="evenodd"/><path d="m732.173706 131.507584c0 .493057-.397095.892746-.886841.892746-.489807 0-.886841-.399689-.886841-.892746 0-.493058.397034-.892746.886841-.892746.489746 0 .886841.399688.886841.892746z" fill="#fff" fill-rule="evenodd"/><path d="m745.750305 148.189331c0 1.852142-5.108764 1.486603-11.411316 1.486603-6.302002 0-11.411316.365539-11.411316-1.486603s0-2.217682 11.411316-2.217682 11.411316.36554 11.411316 2.217682z" fill="#ffa9a9" fill-rule="evenodd"/><path d="m724.807556 148.413254h18.847473" fill="none" stroke="#f00" stroke-width=".592906"/><path d="m714.215332 130.469574c0 9.839905 8.959778 17.822174 20.012512 17.822174 4.574341 0 8.805908-1.374527 12.190186-3.671646.279968-.19014.584533-.403641.836609-.614029.024353-.020264.042053-.035828.062866-.056107.252075-.193237.518127-.40361.752563-.612472.021057-.020233.045594-.040512.06305-.060761 1.043029-.914795 2.01239-1.919983 2.820923-3.02803.021057-.035843.069946-.071701.083862-.112228.175171-.230622.322021-.459717.465576-.690369.052612-.056091.087524-.112198.132935-.188568.154113-.230652.273071-.439469.406005-.66388.042054-.060791.087586-.132476.108582-.194793.122559-.229096.251953-.473786.385071-.720017.024353-.06076.062805-.116867.080505-.152725.293945-.592209.531922-1.199997.752381-1.832703.020996-.071685.038513-.132476.066589-.210388.080505-.229095.150391-.473755.21344-.72467.020996-.116898.062988-.208847.084045-.321045.069885-.210388.104859-.419205.150391-.623383.024536-.118438.052612-.230621.070068-.363098.038513-.208832.06305-.419205.101502-.628052.024353-.112197.052429-.244659.052429-.356872.024536-.230652.045593-.455078.063049-.684174 0-.118423.024536-.210373.024536-.322571.020996-.321044.038514-.668579.038514-1.005188 0-.33818-.024537-.67012-.038514-1.006744 0-.116882-.024536-.213516-.024536-.321045-.024536-.230652-.038513-.455063-.063049-.684143-.024536-.118439-.052429-.250915-.052429-.358429-.020996-.208832-.062989-.417679-.101502-.628067-.024536-.116875-.045532-.229072-.070068-.361542-.038513-.21038-.080506-.419227-.150391-.628059-.021057-.118431-.038513-.210381-.084045-.322578-.063049-.249367-.150635-.475319-.21344-.724686-.020996-.071678-.038696-.132469-.066589-.210388-.220459-.628037-.472413-1.235825-.752381-1.828041-.024536-.060768-.063049-.116875-.080505-.152718-.133118-.244659-.259217-.475319-.385071-.719986-.049072-.071701-.084045-.132461-.108582-.194809-.132934-.229095-.251892-.453491-.406005-.662346-.045411-.062317-.080323-.118431-.104859-.190109-.154175-.229095-.325561-.453514-.469116-.688828-.024536-.035835-.062988-.071701-.087341-.116897-.812134-1.103356-1.753601-2.114784-2.820984-3.029587-.020996-.020241-.038452-.040512-.062989-.06076-.252136-.208825-.493652-.412995-.749084-.612465-.024536-.020272-.042053-.035843-.069946-.056114-.276428-.210381-.549561-.419205-.833069-.607789-3.380921-2.30336-7.591248-3.67633-12.190186-3.67633-11.07373.01403-20.033508 8.00721-20.033508 17.858055m-8.403381 0c0-10.494476 7.209778-19.503754 17.426025-23.348389 1.477112-.551681 3.01709-.991165 4.623413-1.31221 2.054627-.419204 4.185974-.6483 6.394531-.6483 2.201294 0 4.339905.229096 6.394349.6483 1.58197.321045 3.146301.765198 4.616333 1.31221 10.223327 3.844635 17.429748 12.853913 17.429748 23.348389 0 13.960388-12.739929 25.327576-28.429993 25.327576-15.7182-.00467-28.454406-11.371857-28.454406-25.327576m56.236877-29.884445h6.464356v-6.015534h-6.464356zm-43.455139-9.04512h52.859436v14.264282h-25.916931c-3.482422-1.277893-7.290466-1.977631-11.287354-1.977631-4.000427 0-7.80841.705979-11.290832 1.977631h-25.934448v-2.839447l.360473-6.425415c.06305-1.092438 11.406311-4.528778 12.368836-4.575531l8.858337-.423889zm51.385864-5.697602h-71.482422c-.815612 0-1.473571.592194-1.473571 1.316849v3.043625h74.436462v-3.043625c0-.724655-.664856-1.316849-1.480469-1.316849m-5.820373 44.627167c0 14.680389-13.429138 26.641327-29.91388 26.641327-16.48822 0-29.917358-11.960938-29.917358-26.641327 0-10.034752 6.268433-18.818054 15.529297-23.348389h-22.840576v62.178192c5.620727 1.450898 17.29309 3.621796 37.232177 3.621796 19.928528 0 31.600891-2.155304 37.228638-3.621796v-62.178192h-22.840515c9.23645 4.530335 15.522217 13.293396 15.522217 23.348389m-47.532471-28.379013h-19.610046v-10.550552h20.597045v9.652908c-.00354.500244-.451599.897644-.986999.897644m17.622131 71.692413c19.82367 0 31.453858-2.072708 37.228638-3.559448v7.598892c0 .720001-.664795 1.318436-1.473389 1.318436h-71.506958c-.815612 0-1.473571-.592209-1.473571-1.318436v-7.598892c5.774841 1.491409 17.380676 3.559448 37.22528 3.559448" fill="#fff"/><path d="m770.007629 180.66655h-71.507141c-1.648376 0-2.99237-1.276352-2.99237-2.844132l-.00354-90.663162c0-1.56778 1.340454-2.844116 2.992553-2.844116h71.482422c1.658936 0 2.999451 1.276336 2.999451 2.844116l.020996 90.663162c0 1.56778-1.340454 2.844132-2.992371 2.844132zm-71.454528-3.057633 71.405456.004669v-5.454498c-6.709289 1.527268-17.996643 3.146469-35.709717 3.146469-17.723694 0-28.996887-1.614517-35.699279-3.146469v5.449829zm-.010621-9.503296c5.652527 1.341812 17.058655 3.288285 35.70636 3.288285 18.77002 0 30.106507-1.940247 35.709717-3.283615v-59.461853h-15.851135c7.248474 5.295532 11.570679 13.271568 11.570679 21.821136 0 15.528168-14.101197 28.162353-31.432801 28.162353-17.331543 0-31.43634-12.634185-31.43634-28.162353 0-8.554237 4.322449-16.530258 11.570679-21.821136h-15.837159zm35.71344-61.41925c-2.040466 0-4.088012.210388-6.089965.618713-1.526062.307007-2.999451.724655-4.399414 1.246735-9.981812 3.752685-16.432068 12.356788-16.432068 21.917755 0 13.123535 12.074707 23.80188 26.924804 23.80188 14.843201 0 26.911072-10.678345 26.911072-23.80188 0-9.560967-6.4505-18.16507-16.439209-21.917755-1.375427-.515839-2.855896-.935043-4.385437-1.246735-2.01947-.412994-4.066955-.618713-6.089783-.618713zm11.549683-2.409317h24.128601v-2.166214h-9.411438v-9.043564h-41.383179v8.130325c-.017517 1.343354-1.147888 2.420227-2.512878 2.420227h-18.084229v.659226h24.146119c3.688781-1.31221 7.573791-1.976105 11.556701-1.976105 3.996888 0 7.881897.663895 11.560303 1.976105zm-47.126648-3.70752h17.408753v-7.37915l-6.264954.300781c-1.172363.158951-10.464233-.193191-12.364685.894592zm64.888794-1.506988h3.419434v-2.96724h-3.419434zm-65.025269-5.99527v.930374c.623047-.275833 1.393128-.58284 2.345032-.930374zm0-4.386993h71.391724v-1.301285l-71.391724-.01091zm35.685364 61.137176c-11.875244 0-21.535034-8.680466-21.535034-19.347885 0-10.673706 9.670227-19.365051 21.55249-19.375969 4.752869 0 9.264405 1.358963 13.044312 3.938149.262512.177665.531921.377151.797973.576629l.199463.158951c.189087.14183.367554.289886.549378.43792l.339721.286766c1.147828.991157 2.162781 2.078949 3.020264 3.252418l.157654.224419c.048889.082596.125854.183899.199463.29145.087402.118431.164368.235306.244873.352188l.122497.215058c.147095.215057.262513.412987.377991.612465l.577454 1.067535c.031616.051407.087585.137131.126037.239998.304566.643623.580994 1.302841.805054 1.955826l.101502.347526c.024536.096634.059509.188591.087402.28051.038635.11689.073608.240006.108581.363129.045533.137138.073426.255569.105042.388039.066345.224418.111938.448837.157471.668579l.024536.123108c.010376.071685.024536.137146.034973.197906l.017456.08728c.049072.244667.097961.506485.126038.755852l.00354.163612c.006897 0 .013977.040528.024353.071686l.091125.975586c.010376.08104.017456.172989.024536.264939l.003357.123123c.017639.311691.035095.617141.035095.933487 0 .363113-.020996.730896-.038452 1.073745-.00708.09195-.01416.177674-.024536.260254l-.00354.101319c-.013977.17453-.031433.358429-.052429.531433l-.01062.143341c-.006897.204193-.041992.392731-.076966.565735-.017456.077926-.028076.158966-.038452.23999-.013977.118439-.034973.230652-.059509.347534-.017517.112213-.038513.215073-.055969.311707l-.045532.219726c-.042054.188568-.087586.378693-.136475.567246-.017517.08107-.042053.152755-.063049.229095l-.017456.07637c-.076966.322602-.157471.59845-.248597.847794l-.055969.174545c-.287048.836853-.552917 1.47583-.850403 2.068024l-.458435.863373c-.056152.127792-.119201.23999-.178711.321045-.136413.244659-.272888.470642-.433899.715301-.045532.076355-.097961.152741-.15393.229096-.150635.230636-.293946.455047-.465576.679473-.041993.056122-.087525.112229-.132935.163636-.829529 1.128296-1.827026 2.195831-2.981934 3.202575-.038513.040513-.084045.081025-.129577.116883-.223877.199478-.510926.433258-.797974.648315-.339477.280503-.692932.531403-.97644.719986-3.783448 2.588547-8.2948 3.952179-13.037232 3.952179zm.017456-35.673996c-10.209167.009361-18.511047 7.332398-18.511047 16.326111 0 8.987442 8.29834 16.299591 18.486511 16.299591 4.133545 0 8.049927-1.179733 11.336243-3.411407.241516-.16362.504028-.347519.724548-.525177l.049072-.046753c.258973-.193238.472413-.367798.671936-.540772l.115418-.107544c1.025574-.888305 1.897156-1.823364 2.590027-2.778686l.094482-.116883c.147034-.199463.273133-.398956.406067-.603088l.132874-.173004c.147094-.235321.255493-.423874.364074-.617127l.437439-.81195c.038514-.098175.084046-.17453.119019-.225968.223999-.453506.437439-.964676.654419-1.597397l.070068-.224411c.06305-.169876.115479-.353775.153992-.537643.024536-.091949.045532-.172989.070068-.260254l.048889-.197937c.042054-.123108.07013-.246216.094666-.363098l.031372-.174561c.013977-.060775.031433-.121551.034973-.193237l.01416-.081039c.013916-.082596.027832-.158951.038452-.239991.017518-.127792.038514-.2556.06305-.383407.006897-.035828.017456-.07634.024353-.112183l.020996-.302337c.01062-.132477.028076-.264939.041992-.3974.00354-.09195.01062-.174546.017517-.255585l.00354-.10286c.017456-.289871.041992-.596878.041992-.903884 0-.260254-.017456-.509613-.031433-.765183l-.010559-.244675c-.010437-.077942-.017517-.154297-.021057-.230651l-.052429-.561036c-.024536-.143371-.052612-.296081-.059448-.465942-.020996-.148087-.049134-.296112-.076966-.437935l-.01416-.082596c-.020996-.10131-.038513-.20417-.055969-.316368-.027893-.152725-.052429-.280502-.090881-.403641l-.052674-.208831c-.006836-.031159-.010376-.060761-.024475-.09195l-.038513-.132469c-.024353-.091919-.052429-.179199-.080505-.266464-.04535-.141823-.087403-.28521-.125855-.433243l-.052612-.174545c-.178528-.500275-.405884-1.061303-.671936-1.612992l-.066529-.116867-.343017-.643654c-.052429-.082588-.111939-.174537-.160828-.29142l-.024536-.035842c-.080505-.138695-.154175-.275849-.245056-.403626-.052429-.060776-.140015-.17923-.22052-.347542-.038452-.056076-.080505-.116874-.118958-.172981-.087585-.123123-.178527-.2509-.259033-.372459-.028076-.035836-.066528-.087273-.101501-.148064-.728028-.981796-1.58197-1.890358-2.548035-2.71788l-.262512-.229111c-.153931-.127777-.311402-.260246-.475952-.383362l-.167847-.132469c-.21698-.168312-.444519-.336624-.668579-.490891-3.265503-2.245689-7.185425-3.42543-11.318787-3.42543z"/><path d="m678.972961 58.042435c-8.870544 2.035812-16.202758 7.498092-20.293945 15.118393-4.091125 7.6203-4.585327 16.735626-1.367798 25.229293" fill="none" stroke="#fff" stroke-linejoin="round" stroke-width="7.253006"/><path d="m683.085876 73.774078c-4.477478 1.027588-8.178405 3.784653-10.243469 7.631073-2.065063 3.846421-2.314514 8.447434-.690429 12.734635" fill="none" stroke="#fff" stroke-linejoin="round" stroke-width="7.253006"/><path d="m707.868958 178.415314c.410766-1.572571 2.016845-2.51384 3.587158-2.102494 1.570312.411362 2.510315 2.019623 2.099548 3.592133-.095337.365158-.259949.708481-.484802 1.011292"/><path d="m725.018066 184.112457c-.082702-1.623352 1.164429-3.006469 2.785462-3.089325 1.621033-.082855 3.002197 1.165985 3.084961 2.789276.019287.376923-.034119.754029-.157166 1.110718"/><path d="m748.827576 186.382309c-.41095-1.57251.722168-2.916382 2.292419-3.327866 1.570313-.411499 3.176392.529694 3.58728 2.102143.09552.365097.147767 1.123611.099793 1.497909"/><path d="m711.454285 178.843475c.237182-1.877639-9.087647 3.233963-9.330017 11.312439-5.006348.072434-6.805298 3.19162-1.658692 3.587769 5.146668.396149 5.279724-.607941 3.118286-2.790497.40857-9.311615 7.633179-10.232468 7.870423-12.109772z" fill="url(#N)" stroke="url(#O)" stroke-linecap="round" stroke-linejoin="round" stroke-width=".525811"/><path d="m728.290405 183.136185c-.132263-2.061936-5.09143 3.847534-5.331726 11.927185-4.963562.072433-6.747192 3.192047-1.644531 3.588257 5.102661.396194 5.23468-.608063 3.091736-2.790924.40509-9.312974 4.016662-10.662705 3.884521-12.724518z" fill="url(#P)" stroke="url(#Q)" stroke-linecap="round" stroke-linejoin="round" stroke-width=".523598"/><path d="m752.28363 184.661667c-1.076477-1.197983-5.911316 4.944992-3.773071 11.831039-5.006287.072434-6.805237 3.191635-1.65863 3.587784 5.146667.396149 5.149841-1.25827 2.988403-3.440842-2.476318-9.640808 3.519653-10.780242 2.443298-11.978683z" fill="url(#R)" stroke="url(#S)" stroke-linecap="round" stroke-linejoin="round" stroke-width=".525811"/><g stroke="#000" stroke-width=".333568"><path d="m749.954651 191.971008v5.913987l10.228699-5.913987v-5.913986z" fill="#c80000"/><path d="m760.181335 186.056015v5.913986l20.457337-11.827636v-5.913987z" fill="#c80000"/><path d="m749.954651 197.885986v5.913987l20.457336-11.827637v-5.913986z" fill="#c80000"/><path d="m770.411316 186.056015v5.913986l20.457336-11.827636v-5.913987z" fill="#c80000"/><path d="m749.954651 203.797623v5.914001l10.228699-5.914001v-5.913971z" fill="#c80000"/><path d="m749.954651 215.627594v5.914001l10.228699-5.914001v-5.913971z" fill="#c80000"/><path d="m749.954651 227.454254v5.913971l10.228699-5.913971v-5.914001z" fill="#c80000"/><path d="m749.954651 209.712616v5.913986l20.457336-11.827621v-5.913986z" fill="#c80000"/><path d="m749.954651 221.539246v5.913986l20.457336-11.827622v-5.913986z" fill="#c80000"/><path d="m760.181335 197.885986v5.913987l20.457337-11.827637v-5.913986z" fill="#c80000"/><path d="m760.181335 209.712616v5.913986l20.457337-11.827621v-5.913986z" fill="#c80000"/><path d="m760.181335 221.539246v5.913986l20.457337-11.827622v-5.913986z" fill="#c80000"/><path d="m770.411316 209.712616v5.913986l20.457336-11.827621v-5.913986z" fill="#c80000"/><path d="m770.411316 197.885986v5.913987l20.457336-11.827637v-5.913986z" fill="#c80000"/><path d="m780.638 174.229385v5.913987l20.457337-11.827637v-5.913986z" fill="#c80000"/><path d="m790.867981 174.229385v5.913987l20.457336-11.827637v-5.913986z" fill="#c80000"/><path d="m780.638 186.056015v5.913986l20.457337-11.827636v-5.913987z" fill="#c80000"/><path d="m780.638 197.885986v5.913987l20.457337-11.827637v-5.913986z" fill="#c80000"/><path d="m780.638 209.712616v5.913986l20.457337-11.827621v-5.913986z" fill="#c80000"/><path d="m790.867981 197.885986v5.913987l20.457336-11.827637v-5.913986z" fill="#c80000"/><path d="m790.867981 186.056015v5.913986l20.457336-11.827636v-5.913987z" fill="#c80000"/><path d="m801.098022 162.40274v5.914002l20.457337-11.827637v-5.914001z" fill="#c80000"/><path d="m811.324646 162.40274v5.914002l20.457336-11.827637v-5.914001z" fill="#c80000"/><path d="m801.098022 174.229385v5.913987l20.457337-11.827637v-5.913986z" fill="#c80000"/><path d="m801.098022 186.056015v5.913986l20.457337-11.827636v-5.913987z" fill="#c80000"/><path d="m801.098022 197.885986v5.913987l20.457337-11.827637v-5.913986z" fill="#c80000"/><path d="m811.324646 186.056015v5.913986l20.457336-11.827636v-5.913987z" fill="#c80000"/><path d="m811.324646 174.229385v5.913987l20.457336-11.827637v-5.913986z" fill="#c80000"/><path d="m821.554688 150.576111v5.914001l20.457336-11.827652v-5.913986z" fill="#c80000"/><path d="m831.781311 150.576111v5.914001l20.457336-11.827652v-5.913986z" fill="#c80000"/><path d="m821.554688 162.40274v5.914002l20.457336-11.827637v-5.914001z" fill="#c80000"/><path d="m821.554688 174.229385v5.913987l20.457336-11.827637v-5.913986z" fill="#c80000"/><path d="m821.554688 186.056015v5.913986l20.457336-11.827636v-5.913987z" fill="#c80000"/><path d="m831.781311 174.229385v5.913987l20.457336-11.827637v-5.913986z" fill="#c80000"/><path d="m831.781311 162.40274v5.914002l20.457336-11.827637v-5.914001z" fill="#c80000"/><path d="m749.954651 186.056015v5.913986l20.457336-11.827636v-5.913987z" fill="#c80000"/><path d="m770.411316 174.229385v5.913987l20.457336-11.827637v-5.913986z" fill="#c80000"/><path d="m790.867981 162.40274v5.914002l20.457336-11.827637v-5.914001z" fill="#c80000"/><path d="m811.324646 150.576111v5.914001l20.457336-11.827652v-5.913986z" fill="#c80000"/><path d="m831.781311 138.74614v5.913986l20.457336-11.827637v-5.913979z" fill="#c80000"/><path d="m842.011353 138.74614v5.913986l10.228637-5.913986v-5.913987z" fill="#c80000"/><path d="m842.011353 150.576111v5.914001l10.228637-5.914001v-5.913986z" fill="#c80000"/><path d="m842.011353 162.40274v5.914002l10.228637-5.914002v-5.91397z" fill="#c80000"/><path d="m842.011353 174.229385v5.913987l10.228637-5.913987v-5.913986z" fill="#c80000"/><path d="m647.667969 168.317734v-5.913986l10.228698 5.913986v5.913986z" fill="#650000"/><path d="m657.894653 174.232727v-5.913986l20.457337 11.827621v5.914002z" fill="#650000"/><path d="m647.667969 162.40274v-5.91397l20.457336 11.827636v5.913971z" fill="#650000"/><path d="m668.124695 174.232727v-5.913986l20.457275 11.827621v5.914002z" fill="#650000"/><path d="m647.667969 156.491119v-5.914001l10.228698 5.914001v5.913971z" fill="#650000"/><path d="m647.667969 144.661133v-5.914002l10.228698 5.914002v5.913971z" fill="#650000"/><path d="m647.667969 132.834473v-5.913971l10.228698 5.913971v5.914001z" fill="#650000"/><path d="m647.667969 150.576111v-5.913971l20.457336 11.827637v5.913971z" fill="#650000"/><path d="m647.667969 138.749481v-5.913971l20.457336 11.827622v5.913986z" fill="#650000"/><path d="m657.894653 162.40274v-5.91397l20.457337 11.827636v5.913971z" fill="#650000"/><path d="m657.894653 150.576111v-5.913971l20.457337 11.827637v5.913971z" fill="#650000"/><path d="m657.894653 138.749481v-5.913971l20.457337 11.827622v5.913986z" fill="#650000"/><path d="m668.124695 150.576111v-5.913971l20.457275 11.827637v5.913971z" fill="#650000"/><path d="m668.124695 162.40274v-5.91397l20.457275 11.827636v5.913971z" fill="#650000"/><path d="m678.351318 186.059357v-5.913987l20.457337 11.827637v5.913986z" fill="#650000"/><path d="m688.58136 186.059357v-5.913987l20.457275 11.827637v5.913986z" fill="#650000"/><path d="m678.351318 174.232727v-5.913986l20.457337 11.827621v5.914002z" fill="#650000"/><path d="m678.351318 162.40274v-5.91397l20.457337 11.827636v5.913971z" fill="#650000"/><path d="m678.351318 150.576111v-5.913971l20.457337 11.827637v5.913971z" fill="#650000"/><path d="m688.58136 162.40274v-5.91397l20.457275 11.827636v5.913971z" fill="#650000"/><path d="m688.58136 174.232727v-5.913986l20.457275 11.827621v5.914002z" fill="#650000"/><path d="m698.81134 197.885986v-5.913986l20.457337 11.827637v5.913986z" fill="#650000"/><path d="m709.038025 197.885986v-5.913986l20.457336 11.827637v5.913986z" fill="#650000"/><path d="m698.81134 186.059357v-5.913987l20.457337 11.827637v5.913986z" fill="#650000"/><path d="m698.81134 174.232727v-5.913986l20.457337 11.827621v5.914002z" fill="#650000"/><path d="m698.81134 162.40274v-5.91397l20.457337 11.827636v5.913971z" fill="#650000"/><path d="m709.038025 174.232727v-5.913986l20.457336 11.827621v5.914002z" fill="#650000"/><path d="m709.038025 186.059357v-5.913987l20.457336 11.827637v5.913986z" fill="#650000"/><path d="m719.268005 209.712616v-5.913986l20.457337 11.827636v5.914002z" fill="#650000"/><path d="m729.49469 209.712616v-5.913986l20.457336 11.827636v5.914002z" fill="#650000"/><path d="m719.268005 197.885986v-5.913986l20.457337 11.827637v5.913986z" fill="#650000"/><path d="m719.268005 186.059357v-5.913987l20.457337 11.827637v5.913986z" fill="#650000"/><path d="m719.268005 174.232727v-5.913986l20.457337 11.827621v5.914002z" fill="#650000"/><path d="m729.49469 186.059357v-5.913987l20.457336 11.827637v5.913986z" fill="#650000"/><path d="m729.49469 197.885986v-5.913986l20.457336 11.827637v5.913986z" fill="#650000"/><path d="m647.667969 174.232727v-5.913986l20.457336 11.827621v5.914002z" fill="#650000"/><path d="m668.124695 186.059357v-5.913987l20.457275 11.827637v5.913986z" fill="#650000"/><path d="m688.58136 197.885986v-5.913986l20.457275 11.827637v5.913986z" fill="#650000"/><path d="m709.038025 209.712616v-5.913986l20.457336 11.827636v5.914002z" fill="#650000"/><path d="m729.49469 221.542603v-5.914002l20.457336 11.827652v5.913971z" fill="#650000"/><path d="m739.72467 221.542603v-5.914002l10.228638 5.914002v5.913986z" fill="#650000"/><path d="m739.72467 209.712616v-5.913986l10.228638 5.913986v5.913986z" fill="#650000"/><path d="m739.72467 197.885986v-5.913986l10.228638 5.913986v5.913987z" fill="#650000"/><path d="m739.72467 186.059357v-5.913987l10.228638 5.913987v5.913986z" fill="#650000"/><path d="m739.72467 180.144363 20.457337-11.827621 10.228638 5.913971-20.457337 11.827637z" fill="#ff3c3c"/><path d="m760.181335 168.317734 20.457337-11.827622 10.228638 5.913971-20.457337 11.827637z" fill="#ff3c3c"/><path d="m780.638 156.487762 20.457337-11.827636 10.228638 5.913971-20.457276 11.827652z" fill="#ff3c3c"/><path d="m801.098022 144.661133 20.457337-11.827637 10.228638 5.913971-20.457337 11.827637z" fill="#ff3c3c"/><path d="m821.554688 132.834503 20.457336-11.827652 10.228638 5.913986-20.457337 11.827637z" fill="#ff3c3c"/><path d="m749.954651 174.229385-20.457337-11.827636-10.228637 5.913986 20.457336 11.827637z" fill="#ff3c3c"/><path d="m729.49469 162.40274-20.457336-11.827636-10.228699 5.914001 20.457336 11.827637z" fill="#ff3c3c"/><path d="m709.038025 150.576111-20.456665-11.829971-10.228333 5.914993 20.458313 11.826629z" fill="#ff3c3c"/><path d="m688.58136 138.74614-20.457031-11.826638-10.228638 5.915001 20.457336 11.82663z" fill="#ff3c3c"/></g><path d="m243.364059 110.466293-.801681-12.207641-.088348-4.15596-4.103272-25.57753c.455139-.69719 1.038513-.930222 1.860611-.299332l4.130463 25.747025 1.150558 3.927185 2.831421 11.881118z" fill="#929292"/><path d="m243.364059 110.466293-.801681-12.207641c.056824.000564 2.950012-.358765 2.950012-.358765l2.831421 11.881119z" fill="#1a1a1a"/><path d="m256.229523 110.48423.192291-12.232506-.118897-4.155182 2.823456-25.750747c-.489319-.673554-1.083587-.877152-1.873199-.205963l-2.842179 25.921386-.953399 3.979782-2.235779 12.00782z" fill="#929292"/><path d="m256.229523 110.48423.192291-12.232506c-.056732.003418-2.964233-.210861-2.964233-.210861l-2.235764 12.007805z" fill="#1a1a1a"/><path d="m233.005173 147.354065 70.757431.207947 4.505401.012329s1.318238-.220276 1.318238-.879547c0-.660828.110748-2.201203.110748-2.201203l-1.247467.06778-75.92273-.471344-2.125656-.160217s.187516 2.764984 1.066452 3.094604c.879074.329651 1.538193.220291 1.538193.329651z" fill="#606060" fill-rule="evenodd"/><path d="m231.686783 144.163971 76.80104.440536s1.758149-.110916 2.636475-.660827c.879852-.549912.769104-1.980911.769104-1.980911s.439942-5.500672.439942-6.270859c0-.770188-2.527283-9.682778-2.967225-11.443421-.438385-1.760643-2.307312-10.89196-2.307312-10.89196s-.21994-1.210739-.658325-1.320099c-.439941-.110908-.659912 0-.659912 0l1.538208 7.590943 2.967194 12.654152.053863.204864.150727.146332.893707 2.289001s.012298 1.07518-.484528 1.429474c-.769104.551453-3.690155.660797-3.690155.660797l-75.262848-.440536c.000153 0-1.757705-.220261-2.197174-.659271-.439468-.440552-.284103-1.243088-.284103-1.243088l6.546753-23.182579s-1.31839.439003-1.648026 1.099823c-.329651.659279-1.977676 9.131317-2.417297 10.452957-.439469 1.320107-3.296066 11.332512-3.296066 11.332512s-.109818.990463-.109818 1.540375c0 .549911.329483 6.600494.329483 6.600494s.549439 1.101364 1.09874 1.32164c.549438.21872 1.977661.329651 1.758011.329651z" fill="#ddd" fill-rule="evenodd" stroke="#b2b2b2" stroke-width=".153929"/><path d="m307.938202 144.384232s1.42746-.110917 1.42746-1.101365c0-.988922.549133-4.510223 0-5.060119-.549134-.549927-1.098267-.881104-1.098267-.881104s3.296356-1.429458 3.185608-.770187c-.109192.660828-.658356.990463-.658356 1.871567 0 .879532-.110748 4.400833-.110748 4.400833s-.329163.659286.110748.770187c.439942.10936.219971.329636.219971.329636l-.989075.329635-.879822.110917z" fill="#ececec" fill-rule="evenodd" filter="url(#T)"/><path d="m233.005173 137.452545 74.602951.329651-.438385 6.161484-73.944611-.220276-.219345-6.270859z" fill="#ededed" fill-rule="evenodd" stroke="#000" stroke-width=".153929"/><path d="m236.850067 139.213196 67.791779.438995s1.098266.660828 1.098266 1.320099c0 .660828-1.209015 1.431015-1.209015 1.431015l-68.010208-.440536c.000153 0-1.42807-.659287-1.318237-1.540375.109833-.879547 1.758163-1.320099 1.647415-1.209198z" fill="#020202" fill-rule="evenodd" stroke="#000" stroke-width=".153929"/><path d="m232.378204 136.579163 74.810608.372772 2.424195-.187927s1.181335-.095505 1.510528-.714737c.113831-.214096.276886-.412827.276886-.716263 0-1.173767-1.127533-2.955979-1.127533-2.955979s.047699.255692-.092285.325028c-.276886.138626-.559906.275726-.924438.349655-.549164.10936-77.71782-.784042-77.71782-.784042l-.950622.013855-.549286-.358918-.659271 2.888215s-.026764 1.056686.872314 1.398651c.665894.252624 2.236237.479065 2.126419.36969z" fill="#121212" fill-rule="evenodd"/><path d="m235.751938 111.266243-5.273728 19.254631s-.247192.522186.219651.770203c.739578.391235 2.169952.246444 2.169952.246444s75.728897.633103 76.168839.523728c.439911-.110901.796783-.248001.796783-.248001l.02768-1.264633s.676818 2.08258.164611 2.310546c-.49533.218735-1.538208.192551-1.538208.192551l-77.130218-.660828-.988922-.22026-.274567-.385102.187042-.913436 5.471253-19.605843z" fill="#2c2c2c" fill-rule="evenodd" stroke="#252525" stroke-width=".153929"/><path d="m230.917679 132.253799.027374-.853378-.302109-.05545-.439453.138641-.082458.220276s-.054917.24646.082458.30191c.13736.055451.384552.137085.384552.137085z" fill="#d5d5d5" fill-rule="evenodd" filter="url(#U)" stroke="#d1d1d1" stroke-width=".153929"/><path d="m309.337982 132.74826c0-.109375-.192261-.494461.055359-.633087.24765-.137115.439941-.053924.439941-.053924s.466065.412826.356873.43901c-.109222.027726-.136902.166367-.412262.275711-.273773.109375-.356842 0-.439911-.02771z" fill="#d5d5d5" fill-rule="evenodd" filter="url(#V)" stroke="#dadada" stroke-width=".153929"/><path d="m251.287659 140.077347.038452.593033" fill="none" filter="url(#W)" stroke="#2aea00" stroke-width=".153929"/><path d="m250.941559 140.340759s-.459915.824097.356872.851807c.933686.032349.439927-.824097.439927-.824097" fill="none" filter="url(#W)" stroke="#2aea00" stroke-width=".153929"/><path d="m257.809174 140.725861c.004333.238647-.120362.461029-.32605.581634-.205719.120575-.460388.120575-.666107 0-.205689-.120605-.330384-.342987-.326081-.581634-.004303-.238678.120392-.46106.326081-.581665.205719-.120575.460388-.120575.666107 0 .205688.120605.330383.342987.32605.581665z" fill="#fff" stroke="#444" stroke-linejoin="round" stroke-width=".142076"/><path d="m257.479492 140.738998c.002075.114365-.057678.220917-.156219.278702-.098572.057785-.220612.057785-.319184 0-.098571-.057785-.158325-.164337-.15625-.278702-.002075-.114364.057679-.220932.15625-.278701.098572-.057801.220612-.057801.319184 0 .098541.057769.158294.164337.156219.278701z" fill="#101010" stroke="#000" stroke-linejoin="round" stroke-width=".14208"/><path d="m262.37616 141.000732c.002197.121949-.061493.235581-.166626.297211-.105103.061615-.23526.061615-.340363 0-.105102-.06163-.168823-.175262-.166626-.297211-.002197-.121963.061524-.235611.166626-.297226.105103-.06163.23526-.06163.340363 0 .105133.061615.168823.175263.166626.297226z" fill="#fff" stroke="#7b7b7b" stroke-linejoin="round" stroke-width=".134227"/><path d="m263.337524 141.000732c.002228.121949-.061493.235581-.166595.297211-.105133.061615-.23526.061615-.340363 0-.105133-.06163-.168823-.175262-.166626-.297211-.002197-.121963.061493-.235611.166626-.297226.105103-.06163.23523-.06163.340363 0 .105102.061615.168823.175263.166595.297226z" fill="#fff" stroke="#7b7b7b" stroke-linejoin="round" stroke-width=".134227"/><path d="m262.869934 140.339905c.002197.121948-.061523.235595-.166626.29721-.105102.061615-.23526.061615-.340362 0-.105133-.061615-.168824-.175262-.166626-.29721-.002198-.121948.061493-.235596.166626-.297211.105102-.06163.23526-.06163.340362 0 .105103.061615.168823.175263.166626.297211z" fill="#fff" stroke="#7b7b7b" stroke-linejoin="round" stroke-width=".134227"/><path d="m268.767822 140.64267s-.164581.22026-.273803.357361c-.110749.138641-.110749.385086-.303009.303451-.192292-.083176-.493775-.385086-.466095-.605362.027679-.220276.466095-.549911.466095-.549911s.110748.16481.275329.274185c.164581.110901.27533.192535.301483.220276z" fill="none" stroke="#606060" stroke-width=".153929"/><path d="m273.108643 140.202118h.658355l.192261.192535v.358918l-.136902.274169h-.686035l-.219971-.16481v-.494461z" fill="none" filter="url(#W)" stroke="#28cc03" stroke-width=".153929"/><path d="m273.025574 141.303482h.852173" fill="none" filter="url(#X)" stroke="#28cc03" stroke-width=".238225"/><path d="m278.2724 140.202118h.659881l.192261.192535v.358918l-.138427.274169h-.686036l-.21997-.16481v-.494461z" fill="none" stroke="#4d4d4d" stroke-width=".153929"/><path d="m278.189331 141.303482h.852173" fill="none" stroke="#4d4d4d" stroke-width=".238225"/><path d="m283.985291 140.257568h.659881l.192291.192536v.357376l-.136901.275741h-.687592l-.219971-.164825v-.496002z" fill="none" stroke="#4d4d4d" stroke-width=".153929"/><path d="m283.903748 141.357391h.850647" fill="none" stroke="#4d4d4d" stroke-width=".238225"/><path d="m289.699707 140.285294h.658356l.192291.19255v.357361l-.136902.275726h-.687591l-.218415-.164825v-.496002z" fill="none" stroke="#4d4d4d" stroke-width=".153929"/><path d="m289.616638 141.385117h.852173" fill="none" stroke="#4d4d4d" stroke-width=".238225"/><path d="m271.996521 141.194122.00769-.858001-.059997.036972c-.009216.009231-.018463.012329-.026154.012329-.004608 0-.012298-.004624-.023071-.015396-.009216-.010788-.015381-.021576-.015381-.032349 0-.013885.007691-.029266.021546-.046219.013824-.016937.029205-.03389.04306-.050827l.147674-.207947.121521.070847-.001556 1.195328c0 .015411-.010742.023101-.03537.023101-.00769 0-.015381-.001525-.019989-.003082l-.110748-.02771c-.032318-.015411-.049225-.04776-.049225-.097046z" filter="url(#Y)" stroke="#28cc03" stroke-width=".153929"/><path d="m277.515594 140.420837c0 .101685-.035369.226441-.109222.372788-.059967.121689-.138428.246445-.233795.375839l-.030762.040039.213806-.003052c.038452 0 .072296.003052.103058.012314.030762.007706.052307.02002.064606.036972.027679.036957.040008.066223.040008.089325 0 .020035-.009246.033905-.02771.038513-.018463.004639-.033843.007721-.047668.007721l-.582977.029267-.061524-.215668c.041504-.049286.083039-.097046.124573-.144791.089233-.121688.163055-.237213.221497-.34349.07846-.144806.118438-.252625.118438-.325043 0-.016937-.001526-.029266-.004608-.040039-.001526-.009247-.00769-.013855-.016907-.013855-.023071 0-.07077.029266-.143066.087799-.047668.038513-.109192.09549-.186127.170975-.061523.060074-.093811.090881-.095367.093948l-.103058-.146316c0-.009232.02771-.044678.081543-.104752.063049-.070862.126129-.129394.187653-.175598.086151-.063171.15689-.093964.216888-.093964.033844 0 .063049.009247.086151.027741.084595.061599.132263.100097.143036.112427.02768.033889.041534.070861.041534.1109z" stroke="#939393" stroke-width=".153929"/><path d="m282.685486 141.503723-.099976-.160187.110749-.018493c.084625-.015412.167663-.058533.249206-.129395.076904-.067779.115357-.120148.115357-.160187 0-.023101-.021546-.043136-.064606-.061615-.04306-.018493-.090759-.02774-.143036-.02774-.032318 0-.06308.003097-.089233.010803-.026154.009232-.049225.023102-.067688.041565l-.067658-.049271v-.160202l.049225-.024658c.084595-.036957.169189-.095489.253784-.174041.084595-.078568.127686-.137116.127686-.177155 0-.009247-.003083-.015411-.009247-.021576-.015381-.015396-.039978-.023102-.073822-.023102-.050781 0-.115357.015412-.192291.046219-.06305.024643-.099976.041596-.109192.052384l-.076905-.175614c.012299-.015411.052277-.036972.119965-.064682.081512-.035446.153809-.052383.213806-.052383.016937 0 .033844.001541.050781.006149.058442.01387.10611.036987.143036.069321.02768.024658.056916.064697.087677.11708.007691.012329.012299.024628.013855.035416.003083.012329.003083.023117.003083.035446 0 .044647-.016938.093949-.049225.147858-.033844.052383-.075379.100128-.124604.141723l-.069213.056992c.058441 0 .119964.035431.183044.104752.063049.069305.095367.14479.095367.224884 0 .046219-.010772.087799-.032318.12323-.021515.033889-.052276.069305-.093811.106292-.050781.044678-.107696.081635-.170746.110901-.07846.035431-.153808.052368-.227661.052368-.009216 0-.019989 0-.030761-.001525-.009217-.001557-.018464-.001557-.024628-.001557z" stroke="#939393" stroke-width=".153929"/><path d="m288.135376 140.996948.446075-.768646.198426.078552-.023072.605377.06305.013855c.030761.009247.047699.013855.049225.015412.00769.004608.013855.012329.018463.023102.009216.023101.016937.038513.021545.049285.004608.010804.006134.023102.006134.036973 0 .009246-.001526.018478-.006134.029281l-.167663.010773.001525.389709c0 .032349-.010772.046219-.032287.043137-.061524-.009247-.096924-.015411-.107697-.018478-.036895-.016953-.055359-.049302-.055359-.098603v-.303436h-.298431zm.232269-.078552.203034.004608.030761-.459015z" stroke="#939393" stroke-width=".153929"/><path d="m238.199081 140.346909c-.039993.186386-.067688.317306-.083068.39125-.023072.117066-.046143.249542-.070755.395874l-.199967-.07547-.118439-.643875-.133834.757858-.212265-.067779-.109223-1.190704c0-.013855.010773-.02002.032303-.02002.018463.001541.030777.001541.036926.001541.024613 0 .044602.004624.059983.012314.016922.007721.026153.021576.027694.041595l.067673.908814.135376-.879547.213806.009247.093826.844116c.016922-.172516.047684-.363526.089219-.56839.019989-.101669.036911-.180237.050766-.237213.012298-.044678.033828-.121704.067672-.234131.003083-.004639.007691-.010803.012314-.016968.010758-.010773.023071-.015381.036911-.012298.035385.006149.064606.016937.086136.033874.02153.018494.032303.041596.032303.070862-.02768.10936-.047684.189453-.059982.238754zm.28302-.144791v-.120148c0-.023102.007691-.043136.021546-.061615.01384-.018493.032287-.026184.053833-.026184.02153 0 .039993.007691.058456.023102.016907.016937.024597.035431.024597.056992v.166366c0 .018478-.00769.030792-.023071.038513-.016922.007691-.03537.012314-.056915.012314-.023071 0-.041519-.009231-.055374-.026184-.015381-.016952-.023072-.038498-.023072-.063156zm-.00769.893402v-.676208c0-.030808.018463-.044678.052307-.044678.041519 0 .072296.004638.089218.015411.018448.010773.02768.024643.02768.043122l-.016922.730133c0 .015411-.010758.023117-.033844.023117-.012299 0-.023072-.001542-.032303-.004624-.009216-.001526-.015381-.004623-.02153-.004623-.043076-.01387-.064606-.04158-.064606-.08165zm.393784-.6716.016922-.02002h.041534c.010757 0 .02153.006165.033829.016937.013855.01233.023086.020035.030777.021576.016906.004624.032303-.00769.04306-.040054.010773-.030807.024612-.049301.039993-.052368.015381-.004624.026154-.007706.032303-.007706.023071 0 .043076.009247.061524.026184.016922.015412.026153.035431.026153.060089l-.001541.070847c0 .036972-.004608.069321-.012299.097046-.009231.029266-.023071.044678-.041534.044678-.027679 0-.047684-.027741-.056915-.083191-.004608-.027726-.01384-.041581-.026139-.041581-.010772 0-.020004.009247-.026153.027726-.007691.018478-.010773.05545-.010773.110901v.046218.029267.451324c-.01384.006165-.02922.009247-.046142.009247-.010773 0-.024613-.001541-.039994-.004623-.016922-.004624-.032303-.013871-.046142-.027726-.015381-.01387-.023072-.032348-.023072-.053924zm.887542.140197.010773.221802-.261505.043122c-.023071.004638-.036911.010787-.044602.016937-.016922.012329-.024612.029281-.024612.050842l.004623.086273c0 .018479.004609.035416.016907.050827.012314.015396.026154.021561.041535.020035.033844-.004639.076919-.030823.129211-.080109.052292-.049285.075378-.080108.070755-.090881.004623-.003082.012314-.004623.023071-.004623.021546 0 .036927.007705.046158.02156.010758.012329.015381.027741.015381.041596 0 .006164-.001541.013855-.006165.024643-.00769.027725-.016922.052368-.030761.073929-.00615.009246-.023072.030822-.052292.064697-.023071.026199-.046143.046219-.070755.058533-.024613.012329-.052307.018493-.086151.018493-.02153 0-.039994-.001526-.053833-.006164-.01384-.004624-.029221-.012329-.043061-.024643l-.096908-.087799c-.003082-.001541-.007691-.007706-.010773-.015412-.003082-.009231-.006149-.015396-.009231-.02156-.009232-.021561-.012299-.044678-.012299-.069306v-.144806c0-.093963.019989-.189468.061523-.289581.041535-.100128.084595-.149429.132279-.149429.006164 0 .012314 0 .015381.001541.024612.00769.053848.012329.090759.016937.035385.003082.064606.015411.08461.038513.019989.021576.03537.043137.044601.063172.010773.020019.015381.044662.015381.070861zm-.13536-.001556c0-.020019-.003083-.038513-.012299-.05545-.007706-.015412-.020004-.026184-.036926-.030808-.018463-.004623-.03537.015396-.052292.058548-.010773.030792-.018463.052353-.021546.064682-.010757.026184-.016922.047745-.023071.066238-.004608.018479-.006149.038514-.006149.060074l.152283-.035446zm.326095.505249.015381-1.126007c0-.015411.00769-.026184.023071-.033905.015396-.006165.032303-.009232.050766-.004608.026154.004608.044617.013855.053833.026184.009232.012329.013855.029266.013855.052368l-.027694 1.172211c0 .013885-.012299.020035-.035386.020035-.009216 0-.018447 0-.027679-.003083-.032303-.015396-.050766-.027725-.056915-.036972-.00615-.009247-.009232-.032348-.009232-.066223zm.772186-.503693.010758.221802-.263031.043122c-.02153.004638-.036911.010787-.04306.016937-.016922.012329-.024613.029281-.024613.050842l.003067.086273c0 .018479.006165.035416.018463.050827.010773.015396.024613.021561.041535.020035.033844-.004639.076904-.030823.129211-.080109.050751-.049285.075363-.080108.069214-.090881.006149-.003082.01384-.004623.024612-.004623.021531 0 .036911.007705.046143.02156.009232.012329.015381.027741.015381.041596 0 .006164-.003067.013855-.006149.024643-.007691.027725-.018464.052368-.030762.073929-.006149.009246-.024613.030822-.052307.064697-.023072.026199-.047684.046219-.070755.058533-.024613.012329-.052292.018493-.086136.018493-.02153 0-.039993-.001526-.053833-.006164-.015381-.004624-.029236-.012329-.044617-.024643l-.095367-.087799c-.003067-.001541-.007691-.007706-.010758-.015412-.004623-.009231-.00769-.015396-.009231-.02156-.009232-.021561-.013855-.044678-.013855-.069306v-.144806c0-.093963.021545-.189468.06308-.289581.039993-.100128.084594-.149429.130737-.149429.00769 0 .013855 0 .016922.001541.023071.00769.053833.012329.089218.016937.036911.003082.064606.015411.086136.038513.020004.021576.035385.043137.044617.063172.009231.020019.01538.044662.01538.070861zm-.13536-.001556c0-.020019-.004624-.038513-.012314-.05545-.007691-.015412-.019989-.026184-.036911-.030808-.018463-.004623-.036926.015396-.052307.058548-.010758.030792-.018448.052353-.02153.064682-.010773.026184-.018464.047745-.023072.066238-.004608.018479-.00769.038514-.00769.060074l.153824-.035446zm.306091.537598c-.01384-.009247-.02153-.024659-.02153-.046204 0-.012329.003082-.023117.010773-.033905.00769-.012329.016922-.020019.027679-.026184.009232-.004623.020004-.004623.029236 0 .032303.020019.056915.035431.072296.046204.030762.020034.053833.029266.069214.029266s.024612-.006149.02922-.016937c.003083-.012329.004624-.02002.004624-.023102v-.013855c0-.026199-.013855-.050842-.041535-.075501-.027694-.021545-.053833-.041565-.079986-.06314-.027695-.021576-.047684-.043122-.061524-.064698-.013855-.020019-.024612-.044677-.029235-.072403-.00615-.026184-.009232-.049301-.009232-.06932 0-.063141.018463-.120148.053848-.170975.03537-.050827.081513-.077011.136902-.077011h.029221c.009231 0 .015381.001526.018463.003082l.089218.053894c.019989.012329.032288.029266.039978.052384.004623.009246.007706.033889.010773.072402 0 .02771-.001541.052369-.004608.070862-.003083.02002-.009232.041596-.018464.063141h-.096908c-.003067-.009247-.009232-.018478-.016922-.024643-.007691-.006149-.012299-.04158-.012299-.103195v-.052383c-.003082-.010788-.009231-.015396-.016922-.015396-.012314 0-.027694.015396-.046142.044662-.018463.029282-.029236.055466-.032303.077011-.004624.029282.003067.055466.019989.081665.012314.018463.033844.040039.066147.066223s.066147.052368.099975.078553c.039994.03543.058457.072402.058457.110916 0 .047744-.02153.090881-.064606.13092-.04306.038513-.083054.058548-.121521.058548-.027679 0-.053833-.004623-.078445-.016952-.024613-.010788-.063065-.035416-.113831-.073929zm.530685 0c-.01538-.009247-.023071-.024659-.023071-.046204 0-.012329.004608-.023117.012314-.033905.006149-.012329.015381-.020019.026138-.026184.010773-.004623.020005-.004623.030762 0 .032303.020019.055374.035431.072296.046204.030762.020034.052307.029266.067688.029266s.026154-.006149.029221-.016937c.004623-.012329.006149-.02002.006149-.023102v-.013855c0-.026199-.01384-.050842-.04306-.075501-.026154-.021545-.053833-.041565-.079987-.06314-.026153-.021576-.046142-.043122-.061523-.064698-.013855-.020019-.023087-.044677-.029236-.072403-.004608-.026184-.007691-.049301-.007691-.06932 0-.063141.016922-.120148.053833-.170975.035386-.050827.079987-.077011.135361-.077011h.030777c.007691 0 .01384.001526.018448.003082l.087677.053894c.020004.012329.033844.029266.041534.052384.003083.009246.00615.033889.010773.072402 0 .02771-.001541.052369-.004623.070862-.003067.02002-.009232.041596-.019989.063141h-.095368c-.004623-.009247-.009231-.018478-.018463-.024643-.00769-.006149-.010757-.04158-.010757-.103195v-.052383c-.004624-.010788-.009232-.015396-.016922-.015396-.012314 0-.027695.015396-.046158.044662-.018448.029282-.029221.055466-.033829.077011-.003082.029282.003067.055466.02153.081665.010773.018463.033844.040039.066147.066223.030762.026184.064606.052368.098435.078553.039993.03543.059997.072402.059997.110916 0 .047744-.02153.090881-.064606.13092-.043075.038513-.084594.058548-.121521.058548-.02922 0-.055374-.004623-.079986-.016952-.024613-.010788-.061524-.035416-.11229-.073929zm2.364228-.865692c-.007691.067779-.035385.13092-.08461.189453-.039994.04776-.099976.097046-.179962.152496l-.078446.052383.298401.45134c.003082.012314.004623.021546.004623.02771 0 .030823-.013855.055451-.041534.072418-.01384.007691-.026154.010773-.038452.010773-.018463 0-.035385-.004623-.050766-.01387-.015381-.009232-.029221-.021561-.041535-.040055l-.372238-.503692-.009231.517563c0 .018478-.015381.027725-.044617.027725-.016907 0-.030762-.003082-.041519-.007706-.023071-.007705-.043076-.013855-.059998-.02156-.016922-.006165-.026153-.024659-.026153-.055451l.003082-1.102905c0-.023117.004608-.043121.010773-.060089.006149-.015381.019989-.029267.039993-.036957.009232-.004608.019989-.006165.030762-.006165.027679 0 .049225.010788.064605.029267.032303-.015412.061524-.026184.087677-.029267.024613-.004623.061524-.00769.106125-.00769h.096909c.078461 0 .152283.035431.223053.104736.069214.06778.104599.14325.104599.224884-.001541.010788-.001541.018494-.001541.024659zm-.581452.283416c.064606-.015396.115372-.036956.149216-.063141.03537-.026184.063065-.04776.084595-.066238.049225-.036972.086136-.080093.11383-.126312.02768-.047745.041535-.095505.041535-.144791 0-.029266-.013855-.052383-.044617-.067779-.029221-.015412-.064606-.023102-.107666-.023102-.050766 0-.09845.00769-.144592.024643-.046143.015396-.072296.035415-.081528.058532zm.866013.637726c-.055374-.021576-.095368-.057007-.121521-.104751-.026138-.047745-.038452-.104752-.038452-.172516v-.040055c0-.010772.001541-.030807.00769-.056991.001541-.046219.004624-.083176.006149-.110916.010773-.097031.049225-.1987.118454-.303437.007691-.012329.018448-.018493.033829-.018493.007691 0 .026154.006164.053848.016937.026139.010788.047684.016937.061524.016937.070755 0 .123062.04007.159973.121704.030762.069321.046143.158661.046143.268036 0 .110901-.015381.200226-.043061.269562-.033844.08316-.087677.135544-.158447.154022-.012299.001557-.019989.003082-.024612.003082-.009217 0-.018448-.003082-.02768-.00769-.00769-.004623-.016922-.009247-.026153-.01387zm.081528-.643875c-.018464.040054-.036911.081635-.053833.121689-.018464.041595-.027695.092422-.027695.152496 0 .018494-.001541.046204-.004608.081635-.004624.035431-.006165.061615-.006165.078552 0 .030823.004624.057007.013855.078583.009232.021545.026154.038498.050751.052353.020004.010788.041534-.015396.064606-.078568.016922-.047745.030777-.106277.043075-.175583.003082-.02156.004608-.044677.004608-.06932 0-.060074-.00769-.117066-.023071-.172516-.016922-.055451-.032303-.083191-.046143-.083191-.006149 0-.012298.004623-.01538.01387zm.573745.668533c-.018448 0-.033844-.003097-.046142-.010803l-.063065-.038498c-.010773-.00618-.020004-.01387-.026153-.023117-.00615-.00769-.015381-.021561-.024613-.040039-.016922-.030823-.024612-.063156-.024612-.093964l.026153-.525268c0-.012329.007691-.018494.024613-.018494.006149 0 .016922.001541.02922.004639l.036927.009231c.013839.003083.02922.01233.047683.026185l-.026153.40512c0 .067765.004623.117066.010772.14943.009232.010772.018448.021545.026139.032333.041534-.030807.069229-.05545.081527-.078567.012314-.021546.018464-.044663.018464-.069306l.009231-.514496.047684-.006149c.046142 0 .084595.016937.118439.049301l-.001542.751694c-.010757.004623-.024612.007706-.038452.007706-.004608 0-.012313-.001557-.026153-.004639-.012299-.003067-.024613-.007691-.033844-.013855-.010758-.006165-.016907-.015411-.018448-.027725l-.010773-.078568-.079986.086273c-.01384.013855-.033844.021576-.056916.021576zm.506073-.619232-.02922-.015411h-.030762l-.027695-.03389-.003082-.08934.093842-.020035.009231-.351196c.019989-.004624.038452-.007706.0569-.007706.012314 0 .024613.001526.039994.003082.01538.003083.036926.010773.061538.023102l-.003082.31424h.081528l.026153.047744-.003082.089341-.123062.012329v.643875c-.01384.003097-.024613.004623-.033829.004623-.00769 0-.018463-.001526-.029236-.004623-.012298-.003082-.023071-.006165-.03537-.007706-.043075-.012314-.064605-.036972-.064605-.072388zm.827561.003082.010757.221802-.263031.043122c-.02153.004638-.036911.010787-.043075.016937-.016907.012329-.024598.029281-.024598.050842l.003068.086273c0 .018479.006149.035416.018463.050827.010772.015396.024612.021561.041534.020035.033829-.004639.076904-.030823.129211-.080109.050751-.049285.075364-.080108.069214-.090881.00615-.003082.01384-.004623.024613-.004623.02153 0 .036911.007705.046142.02156.009232.012329.015381.027741.015381.041596 0 .006164-.003067.013855-.006149.024643-.007691.027725-.018463.052368-.030762.073929-.006149.009246-.024612.030822-.052307.064697-.023071.026199-.047684.046219-.070755.058533-.024612.012329-.052292.018493-.086136.018493-.02153 0-.039993-.001526-.053833-.006164-.015381-.004624-.029236-.012329-.044616-.024643l-.095368-.087799c-.003082-.001541-.00769-.007706-.010773-.015412-.004608-.009231-.007675-.015396-.009216-.02156-.009232-.021561-.013855-.044678-.013855-.069306v-.144806c0-.093963.021545-.189468.06308-.289581.039978-.100128.084595-.149429.130737-.149429.007691 0 .01384 0 .016922.001541.023072.00769.053833.012329.089218.016937.036911.003082.064606.015411.086136.038513.020004.021576.035385.043137.044617.063172.009216.020019.015381.044662.015381.070861zm-.135361-.001556c0-.020019-.004623-.038513-.012314-.05545-.00769-.015412-.019989-.026184-.036911-.030808-.018463-.004623-.036926.015396-.052307.058548-.010757.030792-.018448.052353-.02153.064682-.010773.026184-.018463.047745-.023071.066238-.004624.018479-.007691.038514-.007691.060074l.153824-.035446zm.329163-.138641.016922-.02002h.041534c.010773 0 .02153.006165.033844.016937.01384.01233.023071.020035.030762.021576.016922.004624.032303-.00769.043075-.040054.010758-.030807.024613-.049301.039994-.052368.01538-.004624.026138-.007706.032302-.007706.023072 0 .043061.009247.061524.026184.016922.015412.026153.035431.026153.060089l-.001541.070847c0 .036972-.004623.069321-.012313.097046-.009217.029266-.023072.044678-.04152.044678-.027694 0-.047683-.027741-.056915-.083191-.004623-.027726-.013855-.041581-.026153-.041581-.010773 0-.020005.009247-.026154.027726-.00769.018478-.010758.05545-.010758.110901v.046218.029267.451324c-.013854.006165-.029235.009247-.046157.009247-.010758 0-.024613-.001541-.039994-.004623-.016922-.004624-.032302-.013871-.046142-.027726-.015381-.01387-.023071-.032348-.023071-.053924z" fill="#979797"/><path d="m231.055038 143.860504c-.082443-.109375-.82402-.577637-.879089-1.099823-.054916-.522186.109985-5.280395.109985-5.280395s.35701-.716278.659119-.797913c.302261-.083191.466995-.164825.466995-.164825l-1.785385-.412812-.412094-.523742.082459 1.925476.137359 4.732025s-.109833.466736-.302109.522186c-.192276.055451.411927.853363.549302.907272.137359.055451 1.373458.248002 1.373458.192551z" fill="#ececec" fill-rule="evenodd" filter="url(#Z)"/><path d="m228.747726 135.636444s.521912.907288 1.016297.962738c.494369.055466 1.565582.248016 2.224853.248016h.659272" fill="none" filter="url(#aa)" stroke="#fdfdfd" stroke-width=".307858"/><path d="m233.142532 136.902649 28.895188-.110916" fill="none" stroke="#fdfdfd" stroke-width=".153929"/><path d="m230.547882 130.471588 4.933334-19.139107s.271958-1.050537 1.398072-1.594291c1.127517-.545288 2.874908-.622307 2.874908-.622307s61.99736.232597 62.152725.232597 2.370362.428215 2.874909.933464c.504516.506783.970611 1.595825.970611 1.595825l4.079316 18.787911s.155334 1.050537-.193818 1.2061c-.350708.155579-1.359771.155579-1.359771.155579l-76.836426-.543747c-.000458 0-.738495-.194092-.854935-.389709-.116592-.194092 0-.583802-.038925-.622315z" fill="#929292" fill-rule="evenodd"/><path d="m230.508972 130.705719s.03891.388184.310867.505249c.271958.117065.893403.117065.893403.117065l77.380935.622315c-.001556 0 .426087.038513.658356-.234131.233795-.271118.155365-.971985.155365-.971985" fill="none" filter="url(#ab)" stroke="#868686" stroke-width=".230893"/><path d="m246.602295 110.716331-.275345 1.250779h.590668l.315338-1.224594z" fill-rule="evenodd" filter="url(#ac)" stroke="#000" stroke-width=".153929"/><path d="m247.329865 110.59156c-.06923 0-.755265-.027725-.755265-.027725" fill="none" filter="url(#ac)" stroke="#494949" stroke-width=".153929"/><path d="m250.509323 110.702461-.164581 1.264649h.590668l.206115-1.238457z" fill-rule="evenodd" filter="url(#ac)" stroke="#000" stroke-width=".153929"/><path d="m251.209213 110.57769c-.067688 0-.755264-.027725-.755264-.027725" fill="none" filter="url(#ac)" stroke="#494949" stroke-width=".153929"/><path d="m254.519424 110.633148-.150741 1.250786h.590668l.192276-1.223053z" fill-rule="evenodd" filter="url(#ac)" stroke="#000" stroke-width=".153929"/><path d="m255.246994 110.509918c-.067673 0-.755249-.027725-.755249-.027725" fill="none" filter="url(#ac)" stroke="#494949" stroke-width=".153929"/><path d="m258.461853 110.716331-.138428 1.250779h.590668l.178406-1.224594z" fill-rule="evenodd" filter="url(#ac)" stroke="#000" stroke-width=".153929"/><path d="m259.189423 110.59156c-.069214 0-.755249-.027725-.755249-.027725" fill="none" filter="url(#ac)" stroke="#494949" stroke-width=".153929"/><path d="m262.347351 110.660881-.081512 1.347824h.590667l.123047-1.320099z" fill-rule="evenodd" filter="url(#ac)" stroke="#000" stroke-width=".153929"/><path d="m263.076477 110.53611c-.069244 0-.756805-.026192-.756805-.026192" fill="none" filter="url(#ac)" stroke="#494949" stroke-width=".153929"/><path d="m266.289764 110.770241-.041534 1.293915h.590698l.083039-1.26619z" fill-rule="evenodd" filter="url(#ac)" stroke="#000" stroke-width=".153929"/><path d="m267.017334 110.647011c-.069214 0-.755249-.027725-.755249-.027725" fill="none" filter="url(#ac)" stroke="#494949" stroke-width=".153929"/><path d="m270.313721 110.811836-.05539 1.320099h.590699l.096893-1.292374z" fill-rule="evenodd" filter="url(#ac)" stroke="#000" stroke-width=".153929"/><path d="m271.04129 110.688606c-.069214 0-.755249-.027725-.755249-.027725" fill="none" filter="url(#ac)" stroke="#494949" stroke-width=".153929"/><path d="m274.228455 110.811836.012298 1.264649h.590668l.02771-1.236924z" fill-rule="evenodd" filter="url(#ac)" stroke="#000" stroke-width=".153929"/><path d="m274.956024 110.688606c-.069214 0-.755249-.027725-.755249-.027725" fill="none" filter="url(#ac)" stroke="#494949" stroke-width=".153929"/><path d="m278.266235 110.770241v1.320099h.589142l.041535-1.292374z" fill-rule="evenodd" filter="url(#ac)" stroke="#000" stroke-width=".153929"/><path d="m278.993805 110.647011c-.069214 0-.755249-.027725-.755249-.027725" fill="none" filter="url(#ac)" stroke="#494949" stroke-width=".153929"/><path d="m282.028687 110.867287.109222 1.292373h.590668l-.067688-1.264648z" fill-rule="evenodd" filter="url(#ac)" stroke="#000" stroke-width=".153929"/><path d="m282.756256 110.742516c-.067688 0-.755249-.026185-.755249-.026185" fill="none" filter="url(#ac)" stroke="#494949" stroke-width=".153929"/><path d="m286.080322 110.811836.095368 1.292374h.590667l-.053833-1.264649z" fill-rule="evenodd" filter="url(#ac)" stroke="#000" stroke-width=".153929"/><path d="m286.807892 110.688606c-.069214 0-.755249-.027725-.755249-.027725" fill="none" filter="url(#ac)" stroke="#494949" stroke-width=".153929"/><path d="m290.007355 110.921204.152282 1.280044h.590668l-.110748-1.252319z" fill-rule="evenodd" filter="url(#ac)" stroke="#000" stroke-width=".153929"/><path d="m290.736481 110.797966c-.069245 0-.75528-.027725-.75528-.027725" fill="none" filter="url(#ac)" stroke="#494949" stroke-width=".153929"/><path d="m294.005157 110.881149.164582 1.306237h.590667l-.124603-1.278511z" fill-rule="evenodd" filter="url(#ac)" stroke="#000" stroke-width=".153929"/><path d="m294.732727 110.756378c-.069214 0-.755249-.027725-.755249-.027725" fill="none" filter="url(#ac)" stroke="#494949" stroke-width=".153929"/><path d="m205.333328 131.518311v-14.353524l-82.999992 6.379341v3.189675z" fill="#fff" fill-rule="evenodd"/><path d="m434.666656 129.849304v-18.692962l-104.666656 8.307975v4.153992z" fill="#fff" fill-rule="evenodd"/><path d="m626.040283 151.92514 4.083679-18.241439-75.979187-8.495896-.907531 4.05365z" fill="#fff" fill-rule="evenodd"/><path d="m626.040283 90.187805 4.083679 18.241425-75.979187 8.495903-.907531-4.05365z" fill="#fff" fill-rule="evenodd"/><path d="m541 118.588234c0-21.311699-18.356323-38.588234-41-38.588234s-41 17.276535-41 38.588234 18.356323 38.588234 41 38.588234 41-17.276535 41-38.588234z" fill="#041065" fill-rule="evenodd"/><path d="m495.378571 91.254898c6.67517 11.139847-1.932282 16.250671-2.684937 26.591858 0 6.884422 3.818543 12.47197 8.523895 12.47197 4.705353 0 8.523896-5.587548 8.523896-12.47197.168609-13.640076-7.135834-20.602661-14.362854-26.591858z" fill="#fff"/><path d="m529.753357 129.234741c0-4.583092-12.78009-8.298408-28.545136-8.298408-15.765045 0-28.545135 3.715316-28.545135 8.298408 0 4.583069 12.78009 8.298401 28.545135 8.298401 15.765046 0 28.545136-3.715332 28.545136-8.298401z" fill="#fff" fill-rule="evenodd" opacity=".695792"/><path d="m111.549004 124.950241c0 14.992737-12.136185 27.146011-27.107834 27.146011-14.971657 0-27.107838-12.153274-27.107838-27.146011s12.136181-27.146011 27.107838-27.146011c14.971649 0 27.107834 12.153274 27.107834 27.146011z" fill="none" stroke="#fff" stroke-width="6.000204"/><path d="m62.213989 141.596329c11.956276-4.489914 29.890679-4.489914 41.846955 0" fill="none" stroke="#fff" stroke-linecap="round" stroke-width="5.982346"/><path d="m59.177853 126.255775h47.919246" fill="none" stroke="#fff" stroke-width="3.880114"/><path d="m77.159332 101.637848c-7.472671 15.638389-7.472671 35.094696 0 50.061081" fill="none" stroke="#fff" stroke-linecap="round" stroke-width="5.982346"/><path d="m62.213989 110.91523c11.956276 4.489914 29.890679 4.489914 41.846955 0" fill="none" stroke="#fff" stroke-linecap="round" stroke-width="5.982346"/><path d="m89.115601 101.637848c7.472671 15.638389 7.472671 35.094696 0 50.061081" fill="none" stroke="#fff" stroke-linecap="round" stroke-width="5.982346"/></svg>