<svg height="237" viewBox="0 0 1000 237" width="1000" xmlns="http://www.w3.org/2000/svg" xmlns:xlink="http://www.w3.org/1999/xlink"><linearGradient id="a" gradientUnits="userSpaceOnUse" x1="953.95622" x2="881.688144" y1="114.753651" y2="97.107751"><stop offset="0" stop-color="#fd6cd8"/><stop offset="1" stop-color="#ff9068"/></linearGradient><radialGradient id="b" cx="928.154988" cy="71.091674" gradientUnits="userSpaceOnUse" r="8.681895"><stop offset=".00001" stop-color="#b37fab"/><stop offset=".5" stop-color="#704468"/><stop offset="1" stop-color="#fd8569"/></radialGradient><linearGradient id="c"><stop offset=".00001" stop-color="#7f7373"/><stop offset="1" stop-color="#706e6e"/></linearGradient><linearGradient id="d" gradientUnits="userSpaceOnUse" x1="890.660906" x2="890.660906" xlink:href="#c" y1="127.468993" y2="143.214004"/><linearGradient id="e"><stop offset=".00001" stop-color="#dedede"/><stop offset="1" stop-color="#1e1e1e"/></linearGradient><linearGradient id="f" gradientUnits="userSpaceOnUse" x1="888.220859" x2="888.220859" xlink:href="#e" y1="127.228954" y2="136.973488"/><linearGradient id="g"><stop offset=".00001" stop-color="#ff7020"/><stop offset=".27586" stop-color="#df0000"/><stop offset=".34561" stop-color="#b10000"/><stop offset=".52103" stop-color="#5b0000"/><stop offset=".70899" stop-color="#1e0000"/><stop offset="1"/></linearGradient><radialGradient id="h" cx="889.967892" cy="135.221691" gradientUnits="userSpaceOnUse" r="6.651791" xlink:href="#g"/><linearGradient id="i"><stop offset=".00001" stop-color="#fff"/><stop offset="1" stop-color="#fff" stop-opacity="0"/></linearGradient><linearGradient id="j" gradientUnits="userSpaceOnUse" x1="893.514199" x2="895.684607" xlink:href="#i" y1="130.511972" y2="132.871953"/><linearGradient id="k" gradientUnits="userSpaceOnUse" x1="886.283147" x2="884.678656" xlink:href="#i" y1="130.419302" y2="133.178639"/><linearGradient id="l"><stop offset=".00001" stop-color="#ff9"/><stop offset="1" stop-color="#ff9" stop-opacity="0"/></linearGradient><linearGradient id="m" gradientUnits="userSpaceOnUse" x1="890.945273" x2="891.415109" xlink:href="#l" y1="133.874843" y2="134.40279"/><linearGradient id="n" gradientUnits="userSpaceOnUse" x1="889.051382" x2="888.634639" xlink:href="#l" y1="133.899114" y2="134.46939"/><linearGradient id="o"><stop offset=".00001" stop-color="#ff0707"/><stop offset="1" stop-color="#d40000" stop-opacity="0"/></linearGradient><linearGradient id="p" gradientUnits="userSpaceOnUse" x1="891.560581" x2="889.238933" xlink:href="#o" y1="132.27868" y2="132.2736"/><linearGradient id="q" gradientUnits="userSpaceOnUse" x1="891.957759" x2="892.487898" xlink:href="#l" y1="133.41621" y2="133.881575"/><linearGradient id="r"><stop offset=".00001" stop-color="#eee"/><stop offset="1" stop-color="#eee" stop-opacity="0"/></linearGradient><linearGradient id="s" gradientUnits="userSpaceOnUse" x1="886.466048" x2="885.72026" xlink:href="#r" y1="132.857153" y2="133.842333"/><linearGradient id="t" gradientUnits="userSpaceOnUse" x1="886.660456" x2="886.009821" xlink:href="#r" y1="132.325184" y2="133.723375"/><linearGradient id="u" gradientUnits="userSpaceOnUse" x1="894.059816" x2="894.710451" xlink:href="#r" y1="132.325184" y2="133.723375"/><linearGradient id="v" gradientUnits="userSpaceOnUse" x1="914.660906" x2="914.660906" xlink:href="#c" y1="127.468993" y2="143.214004"/><linearGradient id="w" gradientUnits="userSpaceOnUse" x1="912.220859" x2="912.220859" xlink:href="#e" y1="127.228954" y2="136.973488"/><radialGradient id="x" cx="913.967892" cy="135.221691" gradientUnits="userSpaceOnUse" r="6.651791" xlink:href="#g"/><linearGradient id="y" gradientUnits="userSpaceOnUse" x1="917.514199" x2="919.684607" xlink:href="#i" y1="130.511972" y2="132.871953"/><linearGradient id="z" gradientUnits="userSpaceOnUse" x1="910.283147" x2="908.678656" xlink:href="#i" y1="130.419302" y2="133.178639"/><linearGradient id="A" gradientUnits="userSpaceOnUse" x1="914.945273" x2="915.415109" xlink:href="#l" y1="133.874843" y2="134.40279"/><linearGradient id="B" gradientUnits="userSpaceOnUse" x1="913.051382" x2="912.634639" xlink:href="#l" y1="133.899114" y2="134.46939"/><linearGradient id="C" gradientUnits="userSpaceOnUse" x1="915.560581" x2="913.238933" xlink:href="#o" y1="132.27868" y2="132.2736"/><linearGradient id="D" gradientUnits="userSpaceOnUse" x1="915.957759" x2="916.487898" xlink:href="#l" y1="133.41621" y2="133.881575"/><linearGradient id="E" gradientUnits="userSpaceOnUse" x1="910.466048" x2="909.72026" xlink:href="#r" y1="132.857153" y2="133.842333"/><linearGradient id="F" gradientUnits="userSpaceOnUse" x1="910.660456" x2="910.009821" xlink:href="#r" y1="132.325184" y2="133.723375"/><linearGradient id="G" gradientUnits="userSpaceOnUse" x1="918.059816" x2="918.710451" xlink:href="#r" y1="132.325184" y2="133.723375"/><filter id="H" color-interpolation-filters="sRGB" filterUnits="userSpaceOnUse" height="237" width="1000" x="0" y="0"><feGaussianBlur stdDeviation=".081819"/></filter><filter id="I" color-interpolation-filters="sRGB" filterUnits="userSpaceOnUse" height="237" width="1000" x="0" y="0"><feGaussianBlur stdDeviation=".172952"/></filter><filter id="J" color-interpolation-filters="sRGB" filterUnits="userSpaceOnUse" height="237" width="1000" x="0" y="0"><feGaussianBlur stdDeviation=".169593"/></filter><filter id="K" color-interpolation-filters="sRGB" filterUnits="userSpaceOnUse" height="237" width="1000" x="0" y="0"><feGaussianBlur stdDeviation=".075558"/></filter><filter id="L" color-interpolation-filters="sRGB" filterUnits="userSpaceOnUse" height="237" width="1000" x="0" y="0"><feGaussianBlur stdDeviation=".116935"/></filter><filter id="M" color-interpolation-filters="sRGB" filterUnits="userSpaceOnUse" height="237" width="1000" x="0" y="0"><feGaussianBlur stdDeviation=".052312"/></filter><filter id="N" color-interpolation-filters="sRGB" filterUnits="userSpaceOnUse" height="237" width="1000" x="0" y="0"><feGaussianBlur stdDeviation=".043099"/></filter><filter id="O" color-interpolation-filters="sRGB" filterUnits="userSpaceOnUse" height="237" width="1000" x="0" y="0"><feGaussianBlur stdDeviation=".040751"/></filter><filter id="P" color-interpolation-filters="sRGB" filterUnits="userSpaceOnUse" height="237" width="1000" x="0" y="0"><feGaussianBlur stdDeviation=".162353"/></filter><filter id="Q" color-interpolation-filters="sRGB" filterUnits="userSpaceOnUse" height="237" width="1000" x="0" y="0"><feGaussianBlur stdDeviation=".126232"/></filter><linearGradient id="R"><stop offset=".00001" stop-color="#5f5e3a"/><stop offset="1" stop-color="#a19f62"/></linearGradient><radialGradient id="S" cx="565.084154" cy="181.533461" gradientUnits="userSpaceOnUse" r="15.985634" xlink:href="#R"/><linearGradient id="T"><stop offset=".00001" stop-color="#414a07"/><stop offset=".66381" stop-color="#a0a483"/><stop offset="1" stop-color="#fff"/></linearGradient><linearGradient id="U" gradientUnits="userSpaceOnUse" x1="581.040406" x2="552.673173" xlink:href="#T" y1="183.507151" y2="206.635582"/><radialGradient id="V" cx="518.361826" cy="176.889777" gradientUnits="userSpaceOnUse" r="16.000404" xlink:href="#R"/><linearGradient id="W" gradientUnits="userSpaceOnUse" x1="534.31891" x2="505.951677" xlink:href="#T" y1="178.859893" y2="201.988325"/><radialGradient id="X" cx="498.101903" cy="180.718702" gradientUnits="userSpaceOnUse" r="16.008256" xlink:href="#R"/><linearGradient id="Y" gradientUnits="userSpaceOnUse" x1="514.057799" x2="485.690566" xlink:href="#T" y1="182.678098" y2="205.80653"/><radialGradient id="Z" cx="518.914538" cy="186.494046" gradientUnits="userSpaceOnUse" r="15.822246" xlink:href="#R"/><linearGradient id="aa" gradientUnits="userSpaceOnUse" x1="534.691158" x2="506.567387" xlink:href="#T" y1="188.332903" y2="211.463469"/><radialGradient id="ab" cx="547.930326" cy="188.390132" gradientUnits="userSpaceOnUse" r="15.947771" xlink:href="#R"/><linearGradient id="ac" gradientUnits="userSpaceOnUse" x1="563.886459" x2="535.519226" xlink:href="#T" y1="190.297121" y2="213.425553"/><path d="m658.163391 140.441254 10.500122 6.070617 10.500061-6.070617-10.500061-6.070557z" fill="#ff3c3c" stroke="#000" stroke-width=".34242"/><path d="m679.163574 140.441254-15.750122-3.03534 5.250061-3.035385z" fill="#500"/><path d="m784.165955 91.869095-21.000184-12.141495-10.500122 6.070587 21.000245 12.141495z" fill="#ff3c3c" stroke="#000" stroke-width=".34242"/><path d="m784.165955 91.869095-26.250245-3.035385 15.750184 9.106231z" fill="#8f0000"/><path d="m721.164673 85.804001 10.500122 6.070938 10.500122-6.070938-10.500122-6.070557z" fill="#ff3c3c" stroke="#000" stroke-width=".34242"/><path d="m689.663696 146.523468v6.070953l10.500122-6.070953v-6.070541z" fill="#c80000" stroke="#000" stroke-width=".34242"/><path d="m805.166199 116.16375-10.500122 6.065117v-6.070603z" fill="#500"/><path d="m794.666077 122.228867 10.500122 6.065078 10.500061-6.065078-10.500061-6.065117z" fill="#ff3c3c" stroke="#000" stroke-width=".34242"/><path d="m815.66626 146.523468v-6.070541l21.000183 12.141494v6.070588z" fill="#650000" stroke="#000" stroke-width=".34242"/><path d="m805.166199 146.523468v-6.070541l21.000183 12.141494v6.070588z" fill="#650000" stroke="#000" stroke-width=".34242"/><path d="m836.666443 152.588593 10.500122 6.070556 10.500122-6.070556-10.500122-6.070923z" fill="#ff3c3c" stroke="#000" stroke-width=".34242"/><path d="m647.664673 146.523468 10.500122 6.070618 10.500061-6.070618-10.500061-6.070541z" fill="#ff3c3c" stroke="#000" stroke-width=".34242"/><path d="m658.166138 146.523468 10.500122 6.070618 10.500061-6.070618-10.500061-6.070877z" fill="#ff3c3c" stroke="#000" stroke-width=".34242"/><path d="m736.915833 137.401886v6.070892l10.500122 6.070923v-6.070923z" fill="#6e0000" stroke="#000" stroke-linecap="round" stroke-linejoin="round" stroke-width=".34242"/><path d="m747.415955 149.545776 21.000183-12.14151v-6.070922l-21.000183 12.141494z" fill="#c80000" stroke="#000" stroke-linecap="round" stroke-linejoin="round" stroke-width=".34242"/><path d="m736.915833 137.401886 10.500122 6.070892 21.000183-12.141479-10.500061-6.070931z" fill="#ff3c3c" stroke="#000" stroke-linecap="round" stroke-linejoin="round" stroke-width=".34242"/><path d="m773.665894 170.777039v6.070907l-10.500123 6.070908v-6.070908z" fill="#c80000" stroke="#000" stroke-linecap="round" stroke-linejoin="round" stroke-width=".34242"/><path d="m763.165771 182.920929-21.000183-12.14151v-6.070923l21.000183 12.141495z" fill="#6e0000" stroke="#000" stroke-linecap="round" stroke-linejoin="round" stroke-width=".34242"/><path d="m773.665894 170.777039-10.500123 6.070907-21.000183-12.141495 10.500061-6.070922z" fill="#ff3c3c" stroke="#000" stroke-linecap="round" stroke-linejoin="round" stroke-width=".34242"/><path d="m763.167114 195.078537 10.500122 6.070892 10.500122-6.070892-10.500122-6.070602z" fill="#ff3c3c" stroke="#000" stroke-width=".34242"/><path d="m773.665894 189.013412v-6.070892l10.500061 6.070892v6.070603z" fill="#650000" stroke="#000" stroke-width=".34242"/><path d="m763.167114 201.143616v-6.070893l10.500122 6.070893v6.070602z" fill="#650000" stroke="#000" stroke-width=".34242"/><path d="m773.665894 97.934204v-6.070602l21.000183 12.141494v6.07061z" fill="#650000" stroke="#000" stroke-width=".34242"/><path d="m763.167114 97.934204v-6.070602l21.000244 12.141494v6.07061z" fill="#650000" stroke="#000" stroke-width=".34242"/><path d="m784.165955 110.098663v-6.070602l21.000244 12.130203v6.070938z" fill="#650000" stroke="#000" stroke-width=".34242"/><path d="m752.665649 97.934204v-6.070602l21.000245 12.141494v6.07061z" fill="#650000" stroke="#000" stroke-width=".34242"/><path d="m773.665894 110.098663v-6.070602l21.000183 12.141502v6.070931z" fill="#650000" stroke="#000" stroke-width=".34242"/><path d="m763.167114 110.098663v-6.070602l21.000244 12.141502v6.070931z" fill="#650000" stroke="#000" stroke-width=".34242"/><path d="m784.165955 122.228867v-6.070939l21.000244 12.141495v6.070603z" fill="#650000" stroke="#000" stroke-width=".34242"/><path d="m752.665649 110.098663v-6.070602l21.000245 12.141502v6.070931z" fill="#650000" stroke="#000" stroke-width=".34242"/><path d="m773.665894 122.228867v-6.070939l21.000183 12.141495v6.070603z" fill="#650000" stroke="#000" stroke-width=".34242"/><path d="m763.167114 122.228867v-6.070939l21.000244 12.141495v6.070603z" fill="#650000" stroke="#000" stroke-width=".34242"/><path d="m784.165955 134.359024v-6.070557l21.000244 12.141495v6.070587z" fill="#650000" stroke="#000" stroke-width=".34242"/><path d="m752.665649 91.869095v-6.070572l10.500122 6.070572v6.070587z" fill="#650000" stroke="#000" stroke-width=".34242"/><path d="m752.665649 103.999283v-6.070892l10.500122 6.070892v6.070602z" fill="#650000" stroke="#000" stroke-width=".34242"/><path d="m752.665649 116.16375v-6.070565l10.500122 6.070565v6.07093z" fill="#650000" stroke="#000" stroke-width=".34242"/><path d="m826.166382 146.523468v-6.070541l10.500061 6.070541v6.070953z" fill="#650000" stroke="#000" stroke-width=".34242"/><path d="m668.664185 146.523468v6.070618l21.000183-12.141495v-6.070938z" fill="#c80000" stroke="#000" stroke-width=".34242"/><path d="m710.666626 97.934204v6.070892l21.000183-12.141494v-6.070557z" fill="#c80000" stroke="#000" stroke-width=".34242"/><path d="m679.165649 134.359024v6.070602l21.000184-12.141494v-6.070603z" fill="#c80000" stroke="#000" stroke-width=".34242"/><path d="m700.165161 110.098663v6.070565l21.000183-12.141503v-6.070923z" fill="#c80000" stroke="#000" stroke-width=".34242"/><path d="m721.164673 97.934204v6.070892l21.000244-12.141494v-6.070557z" fill="#c80000" stroke="#000" stroke-width=".34242"/><path d="m689.663696 122.228867v6.070556l21.000183-12.141495v-6.070594z" fill="#c80000" stroke="#000" stroke-width=".34242"/><path d="m710.666626 110.098663v6.070565l21.000183-12.141503v-6.070923z" fill="#c80000" stroke="#000" stroke-width=".34242"/><path d="m731.666138 97.934204v6.070892l21.000244-12.141494v-6.070557z" fill="#c80000" stroke="#000" stroke-width=".34242"/><path d="m700.165161 122.228867v6.070556l21.000183-12.141495v-6.070594z" fill="#c80000" stroke="#000" stroke-width=".34242"/><path d="m721.164673 110.098663v6.070565l21.000244-12.141503v-6.070923z" fill="#c80000" stroke="#000" stroke-width=".34242"/><path d="m731.666138 110.098663v6.070565l21.000244-12.141503v-6.070923z" fill="#c80000" stroke="#000" stroke-width=".34242"/><path d="m710.666626 122.228867v6.070556l21.000183-12.141495v-6.070594z" fill="#c80000" stroke="#000" stroke-width=".34242"/><path d="m689.663696 134.359024v6.070938l21.000183-12.141495v-6.070602z" fill="#c80000" stroke="#000" stroke-width=".34242"/><path d="m700.165161 134.359024v6.070938l21.000183-12.141495v-6.070602z" fill="#c80000" stroke="#000" stroke-width=".34242"/><path d="m679.165649 146.523468v6.070618l21.000184-12.141495v-6.070602z" fill="#c80000" stroke="#000" stroke-width=".34242"/><path d="m721.164673 122.228867v6.070556l21.000244-12.141495v-6.070594z" fill="#c80000" stroke="#000" stroke-width=".34242"/><path d="m710.666626 134.359024v6.070938l21.000183-12.141495v-6.070602z" fill="#c80000" stroke="#000" stroke-width=".34242"/><path d="m731.666138 122.228867v6.070556l21.000244-12.141495v-6.070594z" fill="#c80000" stroke="#000" stroke-width=".34242"/><path d="m700.165161 140.424149v6.070541l10.500122-6.070541v-6.070939z" fill="#c80000" stroke="#000" stroke-width=".34242"/><path d="m742.164185 97.934204v6.070892l10.500122-6.070892v-6.070602z" fill="#c80000" stroke="#000" stroke-width=".34242"/><path d="m742.164185 110.098663v6.070565l10.500122-6.070565v-6.070602z" fill="#c80000" stroke="#000" stroke-width=".34242"/><path d="m784.165955 195.078537-15.750122-3.035385 5.250061-3.035385z" fill="#500"/><g stroke="#000"><path d="m752.665649 219.373199v6.070893l10.500122-6.070893v-6.070602z" fill="#c80000" stroke-width=".34242"/><path d="m763.167114 213.273819v6.070557l21.000244-12.141495v-6.070892z" fill="#c80000" stroke-width=".34242"/><path d="m773.665894 201.143616v6.070938l21.000183-12.141495v-6.070602z" fill="#c80000" stroke-width=".34242"/><path d="m784.165955 189.013412v6.070603l21.000244-12.141495v-6.070602z" fill="#c80000" stroke-width=".34242"/><path d="m784.165955 201.143616v6.070938l21.000244-12.141495v-6.070602z" fill="#c80000" stroke-width=".34242"/><path d="m794.666077 189.013412v6.070603l21.000183-12.141495v-6.070602z" fill="#c80000" stroke-width=".34242"/><path d="m805.166199 176.848953v6.070603l21.000183-12.14148v-6.070953z" fill="#c80000" stroke-width=".34242"/><path d="m805.166199 189.013412v6.070603l21.000183-12.141495v-6.070602z" fill="#c80000" stroke-width=".34242"/><path d="m815.66626 176.848953v6.070603l21.000183-12.14148v-6.070953z" fill="#c80000" stroke-width=".34242"/><path d="m826.166382 164.718811v6.070892l21.000183-12.14151v-6.070922z" fill="#c80000" stroke-width=".34242"/><path d="m826.166382 176.848953v6.070603l21.000183-12.14148v-6.070953z" fill="#c80000" stroke-width=".34242"/><path d="m836.666443 164.718811v6.070892l21.000244-12.14151v-6.070922z" fill="#c80000" stroke-width=".34242"/><path d="m805.166199 128.293945v6.070557l10.500061-6.070557v-6.070556z" fill="#c80000" stroke-width=".34242"/><path d="m805.166199 116.16375v6.070594l10.500061-6.070594v-6.0709z" fill="#c80000" stroke-width=".34242"/><path d="m847.165222 164.718811v6.070557l10.500061-6.070557v-6.070618z" fill="#c80000" stroke-width=".34242"/><path d="m647.664673 158.653687v-6.070557l10.500122 6.070557v6.070587z" fill="#650000" stroke-width=".34242"/><path d="m658.166138 164.718811v-6.070618l21.000183 12.14151v6.070588z" fill="#650000" stroke-width=".34242"/><path d="m647.664673 152.588593v-6.070923l21.000183 12.141479v6.070618z" fill="#650000" stroke-width=".34242"/><path d="m668.664185 164.718811v-6.070618l21.000183 12.14151v6.070588z" fill="#650000" stroke-width=".34242"/><path d="m658.166138 152.588593v-6.070923l21.000183 12.141479v6.070618z" fill="#650000" stroke-width=".34242"/><path d="m668.664185 152.588593v-6.070923l21.000183 12.141479v6.070618z" fill="#650000" stroke-width=".34242"/><path d="m679.165649 176.848953v-6.070556l21.000184 12.141494v6.070938z" fill="#650000" stroke-width=".34242"/><path d="m689.663696 176.848953v-6.070556l21.000183 12.141494v6.070938z" fill="#650000" stroke-width=".34242"/><path d="m679.165649 164.718811v-6.070618l21.000184 12.14151v6.070588z" fill="#650000" stroke-width=".34242"/><path d="m689.663696 164.718811v-6.070618l21.000183 12.14151v6.070588z" fill="#650000" stroke-width=".34242"/><path d="m700.165161 189.013412v-6.070892l21.000183 12.141495v6.070557z" fill="#650000" stroke-width=".34242"/><path d="m710.666626 189.013412v-6.070892l21.000183 12.141495v6.070557z" fill="#650000" stroke-width=".34242"/><path d="m700.165161 176.848953v-6.070556l21.000183 12.141494v6.070938z" fill="#650000" stroke-width=".34242"/><path d="m721.164673 201.143616v-6.070557l21.000244 12.141495v6.070556z" fill="#650000" stroke-width=".34242"/><path d="m647.664673 164.718811v-6.070618l21.000183 12.14151v6.070588z" fill="#650000" stroke-width=".34242"/><path d="m668.664185 176.848953v-6.070556l21.000183 12.141494v6.070938z" fill="#650000" stroke-width=".34242"/><path d="m689.663696 189.013412v-6.070892l21.000183 12.141495v6.070557z" fill="#650000" stroke-width=".34242"/><path d="m710.666626 201.143616v-6.070557l21.000183 12.141495v6.070556z" fill="#650000" stroke-width=".34242"/><path d="m731.666138 213.273819v-6.070557l21.000244 12.141495v6.070892z" fill="#650000" stroke-width=".34242"/><path d="m773.665894 182.948334 21.000183-12.14148 10.500122 6.030808-21.000244 12.164459z" fill="#ff3c3c" stroke-width=".34242"/><path d="m794.666077 170.783875 21.000183-12.130188 10.500122 6.065124-21.000183 12.130142z" fill="#ff3c3c" stroke-width=".34242"/><path d="m847.165222 146.523468-21.000244-12.141479-10.500061 6.070938 21.000183 12.141494z" fill="#ff3c3c" stroke-width=".34242"/><path d="m815.66626 158.653687 21.000183-12.14151 10.500122 6.070617-21.000183 12.14148z" fill="#ff3c3c" stroke-width=".34242"/><path d="m700.165161 152.588593-21.000183-12.14148-10.500122 6.070892 21.000244 12.14148z" fill="#ff3c3c" stroke-width=".34242"/><path d="m700.165161 91.869095 21.000183-12.141495 10.500122 6.070587-21.000183 12.141495z" fill="#ff3c3c" stroke-width=".34242"/><path d="m731.666138 79.738922 21.000244-12.141525 10.500061 6.070602-21.000183 12.141495z" fill="#ff3c3c" stroke-width=".34242"/><path d="m805.166199 97.934204-21.000244-12.130203-10.500061 6.070572 21.000183 12.141525z" fill="#ff3c3c" stroke-width=".34242"/><path d="m742.164185 207.20874v6.070557l10.500122-6.070557v-6.070938z" fill="#c80000" stroke-width=".34242"/><path d="m679.165649 122.228867v-6.070603l10.500122 6.070603v6.070556z" fill="#650000" stroke-width=".34242"/><path d="m700.165161 97.934204v-6.070602l10.500122 6.070602v6.070557z" fill="#650000" stroke-width=".34242"/><path d="m689.663696 110.098663v-6.070938l10.500122 6.070938v6.070565z" fill="#650000" stroke-width=".34242"/><path d="m721.164673 182.948334v6.070938l10.500122-6.070938v-6.070923z" fill="#c80000" stroke-width=".34242"/><path d="m731.666138 195.078537v6.070892l10.500122-6.070892v-6.070602z" fill="#c80000" stroke-width=".34242"/><path d="m721.164673 164.718811-21.000183-12.14154-10.500122 6.070587 21.000244 12.14151z" fill="#ff3c3c" stroke-width=".34242"/><path d="m721.164673 189.013412 10.500122 6.070939 10.500122-6.070939-10.500122-6.070556z" fill="#ff3c3c" stroke-width=".34242"/><path d="m742.164185 213.273819 10.500122 6.070938 10.500122-6.070938-10.500122-6.070557z" fill="#ff3c3c" stroke-width=".34242"/><path d="m752.665649 207.20874 10.500122 6.070893 10.500123-6.070893-10.500123-6.070602z" fill="#ff3c3c" stroke-width=".34242"/><path d="m689.664368 104.016418 10.500122 6.070603 10.500122-6.070603-10.500122-6.070556z" fill="#ff3c3c" stroke-width=".34242"/></g><path d="m710.664612 104.016418-15.750183-3.035339 5.250061-3.035385z" fill="#500"/><path d="m773.665894 207.20874-15.750184-3.035385 5.250061-3.035385z" fill="#500"/><path d="m668.664185 134.359024v-6.070557l10.500122 6.070557v6.070938z" fill="#650000" stroke="#000" stroke-width=".34242"/><path d="m719.539307 152.568176 3.031189 5.257599 12.124633.000153-3.031189-5.257599z" fill="#6e0000" stroke="#000" stroke-linecap="round" stroke-linejoin="round" stroke-width=".342421"/><path d="m734.696167 157.827728 12.124573-21.029815-3.031189-5.257599-12.124634 21.0298z" fill="#c80000" stroke="#000" stroke-linecap="round" stroke-linejoin="round" stroke-width=".342421"/><path d="m719.539307 152.568176 12.124633.000153 12.124573-21.029785-12.124573-.000153z" fill="#ff3c3c" stroke="#000" stroke-linecap="round" stroke-linejoin="round" stroke-width=".342421"/><path d="m731.666138 201.143616 10.500122 6.070938 10.500122-6.070938-10.500122-6.070557z" fill="#ff3c3c" stroke="#000" stroke-width=".34242"/><path d="m710.666626 176.848953 10.500122 6.070938 10.500061-6.070938-10.500061-6.070556z" fill="#ff3c3c" stroke="#000" stroke-width=".34242"/><path d="m710.666626 170.783875v6.070938l10.500122-6.070938v-6.070923z" fill="#c80000" stroke="#000" stroke-width=".34242"/><path d="m794.666077 134.359024v-6.070557l21.000183 12.141495v6.070587z" fill="#650000" stroke="#000" stroke-width=".34242"/><path d="m805.166199 134.359024 10.500061 6.065125 10.500122-6.065125-10.500122-6.065079z" fill="#ff3c3c" stroke="#000" stroke-width=".34242"/><path d="m794.666077 110.098663 10.500122 6.065087 10.500061-6.065087-10.500061-6.09938z" fill="#ff3c3c" stroke="#000" stroke-width=".34242"/><path d="m794.666077 103.999283v6.070602l10.500122-6.070602v-6.070892z" fill="#c80000" stroke="#000" stroke-width=".34242"/><path d="m679.166321 116.156883 10.500122 6.070603 10.500061-6.070603-10.500061-6.070556z" fill="#ff3c3c" stroke="#000" stroke-width=".34242"/><path d="m700.166504 116.156883-15.750122-3.035339 5.250061-3.035385z" fill="#500"/><path d="m668.664856 128.299759 10.500122 6.070602 10.500122-6.070602-10.500122-6.070557z" fill="#ff3c3c" stroke="#000" stroke-width=".34242"/><path d="m689.6651 128.299759-15.750183-3.035339 5.250061-3.035386z" fill="#500"/><path d="m742.164185 85.804001v6.070572l21.000244-12.141495v-6.070892z" fill="#c80000" stroke="#000" stroke-width=".34242"/><path d="m902.263489 195.623962c1.111816-3.899993-4.659668-2.373504-10.94397-4.170044-6.284302-1.796524-10.701782-6.235778-11.813538-2.335784-1.111755 3.899993 3.08136 8.517944 9.365662 10.314468 6.284302 1.796539 12.280029.091354 13.391846-3.80864z" fill="#dd5699" fill-rule="evenodd"/><path d="m926.666687 199.947891c0-4.055801-5.131348-1.001419-11.666687-1.001419s-12-3.054382-12 1.001419c0 4.055786 5.297974 7.343659 11.833313 7.343659 6.5354 0 11.833374-3.287873 11.833374-7.343659z" fill="#dd5699" fill-rule="evenodd"/><path d="m914.189941 137.584381s28.950013-17.577133 16.10907-59.539917" fill="none" stroke="url(#a)" stroke-linecap="round" stroke-width="3.213653"/><path d="m926.800476 79.299606c3.19574 1.806916 7.147461.607605 8.825989-2.678878 1.678711-3.286499.448669-7.415589-2.747315-9.222687-3.195861-1.8069-7.147522-.607575-8.82611 2.678894-1.234314 2.416549-.924805 5.396805.783081 7.541412" fill="url(#b)"/><path d="m902.21051 210.522614c3.59784 0 6.532471-2.938462 6.532471-6.541932 0-3.60289-2.934631-6.541351-6.532471-6.541351-3.597961 0-6.53247 2.938461-6.53247 6.541351 0 3.60347 2.934509 6.541932 6.53247 6.541932z" fill="#333" fill-rule="evenodd"/><path d="m902.210205 104.478622c18.845825 0 34.123108 15.299141 34.123108 34.171479 0 9.884781-4.192078 18.78865-10.892273 25.027176-5.415894 5.043182-8.188965 11.416854-8.188965 18.822418v.306701h-30.083435v-.306701c0-7.405564-2.773193-13.779236-8.18927-18.822418-6.700195-6.238526-10.892273-15.142395-10.892273-25.027176 0-18.872338 15.277588-34.171479 34.123108-34.171479z" fill="#ffe500" fill-rule="evenodd"/><path d="m902.878174 110.881836c7.507202 4.787903 8.099243 17.307129 1.32251 27.962341-6.776734 10.655228-18.356018 15.411804-25.863343 10.623749-7.506897-4.788208-8.09906-17.307419-1.322204-27.962517 6.776733-10.655395 18.356201-15.411628 25.863037-10.623573z" fill="#ffed4f" fill-rule="evenodd"/><path d="m887.16864 203.463837h30.083435v-20.65802h-30.083435z" fill="#666" fill-rule="evenodd"/><path d="m895.333435 208.026321h13.753723l8.164917-4.562484h-30.083435z" fill="#4d4d4d" fill-rule="evenodd"/><path d="m904.639221 182.806396v-38.146759h-4.858032v38.146759h-4.873108v-38.146759h-5.996094l-.242187-.037994c-2.533142-.397888-4.685486-1.749847-6.135742-3.637512-1.455445-1.894577-2.211975-4.324738-1.947449-6.870117.264954-2.552124 1.503662-4.775742 3.314758-6.327019 1.811768-1.551895 4.195496-2.433022 6.749878-2.300606 2.557373.132912 4.838379 1.256127 6.478394 2.985596 1.645874 1.736328 2.65155 4.076385 2.65155 6.634933v4.672989h4.858032v-4.672989c0-2.558853 1.005676-4.89891 2.65155-6.634933 1.640137-1.729775 3.920716-2.852684 6.478394-2.985596 2.554382-.132416 4.938538.749016 6.749939 2.300606 1.810852 1.551277 3.049805 3.774757 3.315002 6.327019.264222 2.545379-.492309 4.97554-1.947753 6.870117-1.450257 1.887665-3.602601 3.239624-6.135865 3.637512l-.242004.037994h-5.99646v38.146759zm4.872803-47.699478v4.672989h5.706909c1.15564-.235 2.141296-.883377 2.822327-1.769638.717102-.933182 1.089416-2.136047.957947-3.400863-.130616-1.258637-.743775-2.356965-1.640015-3.124451-.895813-.767761-2.076599-1.203583-3.342468-1.137909-1.262879.065674-2.391419.622436-3.204346 1.480041-.807129.851136-1.300354 2.007203-1.300354 3.279831zm-20.31073 4.672989h5.706787v-4.672989c0-1.272308-.49292-2.428695-1.300049-3.279831-.812927-.857467-1.941467-1.414367-3.204223-1.480041-1.265992-.065674-2.446473.370148-3.342408 1.137909-.89624.767639-1.509277 1.866241-1.640197 3.124451-.131165 1.264953.24115 2.467681.958129 3.400863.680848.886261 1.666504 1.534638 2.821961 1.769638z" fill="#ffc" fill-rule="evenodd"/><path d="m894.908081 148.218094v-3.558457h-5.996094l-.242187-.037994c-2.533142-.397888-4.685486-1.749847-6.135742-3.637512-1.455445-1.894577-2.211975-4.324738-1.947449-6.870117.264954-2.552124 1.503662-4.775742 3.314758-6.327019 1.811768-1.551895 4.195496-2.433022 6.749878-2.300606 2.557373.132912 4.838379 1.256127 6.478394 2.985596 1.645874 1.736328 2.65155 4.076385 2.65155 6.634933v4.672989h3.801392c-2.463929 3.597199-5.481324 6.461426-8.6745 8.438187zm9.73114-10.085281v-3.025895c0-2.558853 1.005676-4.89891 2.65155-6.634933.411561-.434235.863282-.829872 1.349915-1.181427-.540222 3.563431-1.868408 7.292755-4.001465 10.842255zm-15.437927 1.647094h5.706787v-4.672989c0-1.272308-.49292-2.428695-1.300049-3.279831-.812927-.857467-1.941467-1.414367-3.204223-1.480041-1.265992-.065674-2.446473.370148-3.342408 1.137909-.89624.767639-1.509277 1.866241-1.640197 3.124451-.131165 1.264953.24115 2.467681.958129 3.400863.680848.886261 1.666504 1.534638 2.821961 1.769638z" fill="#fffff0" fill-rule="evenodd"/><path d="m890.263489 203.463837h7.649902v-20.65802h-7.649902z" fill="#808080" fill-rule="evenodd"/><path d="m885.750122 189.196259 32.920044-3.11905v3.786789l-32.920044 3.119629zm0 7.057907 32.920044-3.119049v3.786758l-32.920044 3.119934z" fill="#808080" fill-rule="evenodd"/><path d="m889.188904 188.870667 7.172424-.679734v3.787216l-7.172424.679734zm7.172424 6.378601v3.786773l-7.172424.680023v-3.787689z" fill="#999" fill-rule="evenodd"/><path d="m897.666687 135.222656c0 4.257447-3.446533 7.708863-7.698059 7.708863-4.251465 0-7.697998-3.451416-7.697998-7.708863 0-4.257477 3.446533-7.70887 7.697998-7.70887 4.251526 0 7.698059 3.451393 7.698059 7.70887z" fill="none" stroke="#000" stroke-opacity=".69792" stroke-width=".730888"/><path d="m897.588196 135.221985c0 4.214508-3.411743 7.631073-7.6203 7.631073-4.208619 0-7.620362-3.416565-7.620362-7.631073s3.411743-7.631073 7.620362-7.631073c4.208557 0 7.6203 3.416565 7.6203 7.631073z" fill="url(#d)" stroke="url(#f)" stroke-width=".48235"/><path d="m896.619446 135.221695c0 3.678833-2.978089 6.661148-6.651795 6.661148-3.673645 0-6.651794-2.982315-6.651794-6.661148 0-3.678848 2.978149-6.661163 6.651794-6.661163 3.673706 0 6.651795 2.982315 6.651795 6.661163z" fill="url(#h)"/><path d="m890.398376 135.133057c0 .209961-.169921.380172-.379577.380172-.209717 0-.379639-.170211-.379639-.380172 0-.209946.169922-.380158.379639-.380158.209656 0 .379577.170212.379577.380158z" fill="#ff9"/><path d="m890.074219 129.171143c-.814392-.033295-2.0849.106384-2.927857.639083.063233.267411.138123.496354.34076.891159.797363-.352523 1.524719-.528839 2.453125-.505187.928466.02362 1.791198.322784 2.474182.585189.23584-.468704.284973-.627182.375915-.895034-.971008-.559556-1.8432-.679459-2.716247-.71518z" fill="#fff" fill-opacity=".70833" fill-rule="evenodd"/><path d="m895.578003 132.627167c-.142456-.601425-.955872-1.458695-1.319763-1.687836-.161194.133652-.216309.23027-.417847.500366.425781.261475 1.111511.678955 1.404968 1.305847.244812-.086517.181885-.04187.332642-.118377z" fill="url(#j)" fill-rule="evenodd"/><path d="m884.525879 133.395233c.030212-.627991.846191-2.116089 1.143127-2.412018.171143.104172.238221.190979.469483.424317-.348755.339721-1.117737 1.252929-1.28302 1.934204-.240296-.041779-.177796.102539-.32959.053497z" fill="url(#k)" fill-rule="evenodd"/><g fill-rule="evenodd" opacity=".51053"><path d="m890.032288 133.406311c-.197449-.010071-.475159.080689-.679566.241638.01532.080796.02594.028626.075073.147919.193299-.106522.369629-.15979.594727-.152649.225098.007156.434265.097504.599853.176788.05719-.141601.069092-.110626.091126-.191528-.235413-.169052-.469605-.211395-.681213-.222183z" fill="#ff9" fill-opacity=".77604"/><path d="m891.301392 134.287659c-.031311-.17041-.217835-.415497-.301758-.481552-.037903.037155-.050965.064254-.098633.139785.098206.075425.256348.195847.322754.373978.057129-.023544.042358-.011154.077637-.032211z" fill="url(#m)"/><path d="m888.634644 134.408813c.031311-.170394.287536-.536621.37146-.602661.037902.037155.050964.06424.098693.139786-.098266.075424-.321106.286667-.387512.464829-.05719-.023499-.047485.019027-.082641-.001954z" fill="url(#n)"/></g><path d="m891.252991 132.154205c-.743592-.389846-1.915039.017472-2.429749.256653-.760193.353333.312988.127442.689026-.035004.323731-.139877.759583-.221191 1.645813.03003.32843-.00322.230042-.15596.094849-.251679z" fill="url(#p)" opacity=".51053"/><g fill="url(#q)" fill-rule="evenodd" opacity=".23684"><path d="m890.085693 132.599243c-.23761-.016311-.710449.141602-.887207.267075.031433.126419.045899.171463.146546.358139.146606-.096436.462707-.291855.711975-.281006.25708.0112.496582.061279.616516.129181.056702-.123276.088623-.191239.148926-.289719-.361328-.145157-.499146-.167343-.736756-.18367z"/><path d="m892.487915 133.748184c-.147278-.175323-.204468-.221756-.376343-.325119-.077575.058167-.104431.100556-.202087.218781.201172.117996.268249.158935.389038.262115.094482-.064941.117126-.122833.189392-.155777z"/><path d="m887.448608 133.90271c.124634-.154266.21875-.270844.41333-.437408.077576.058136.210206.128631.322999.204711-.201233.139084-.317688.244935-.400757.341065-.117066-.036835-.263306-.07544-.335572-.108368z"/></g><path d="m889.956055 131.083557c-.430359.011505-1.127747.184372-1.436158.294022.05481.26326.080872.403274.100647.569534.316346-.125015.932068-.310211 1.367005-.287598.448486.023301.973755.145676 1.243652.241562.054199-.241531.110596-.382324.185547-.617706-.600098-.135483-1.030945-.211304-1.460693-.199799z" fill="url(#s)" fill-rule="evenodd" opacity=".38421"/><path d="m885.835266 132.944489c.217468-.321229.366516-.48816.705933-.835038.135376.121079.487915.358826.684631.517258-.350952.289612-.523926.403931-.714233.604126-.204285-.076721-.550232-.217743-.676331-.286331z" fill="url(#t)" fill-rule="evenodd" opacity=".38421"/><path d="m894.885803 132.944489c-.217468-.321229-.366516-.48816-.705932-.835038-.135376.121079-.487915.358826-.684632.517258.350952.289612.523926.403931.714234.604126.204284-.076721.550232-.217743.67633-.286331z" fill="url(#u)" fill-rule="evenodd" opacity=".38421"/><path d="m921.666687 135.222656c0 4.257447-3.446533 7.708863-7.698059 7.708863-4.251465 0-7.697998-3.451416-7.697998-7.708863 0-4.257477 3.446533-7.70887 7.697998-7.70887 4.251526 0 7.698059 3.451393 7.698059 7.70887z" fill="none" stroke="#000" stroke-opacity=".69792" stroke-width=".730888"/><path d="m921.588196 135.221985c0 4.214508-3.411743 7.631073-7.6203 7.631073-4.208619 0-7.620362-3.416565-7.620362-7.631073s3.411743-7.631073 7.620362-7.631073c4.208557 0 7.6203 3.416565 7.6203 7.631073z" fill="url(#v)" stroke="url(#w)" stroke-width=".48235"/><path d="m920.619446 135.221695c0 3.678833-2.978089 6.661148-6.651795 6.661148-3.673645 0-6.651794-2.982315-6.651794-6.661148 0-3.678848 2.978149-6.661163 6.651794-6.661163 3.673706 0 6.651795 2.982315 6.651795 6.661163z" fill="url(#x)"/><path d="m914.398376 135.133057c0 .209961-.169921.380172-.379577.380172-.209717 0-.379639-.170211-.379639-.380172 0-.209946.169922-.380158.379639-.380158.209656 0 .379577.170212.379577.380158z" fill="#ff9"/><path d="m914.074219 129.171143c-.814392-.033295-2.0849.106384-2.927857.639083.063233.267411.138123.496354.34076.891159.797363-.352523 1.524719-.528839 2.453125-.505187.928466.02362 1.791198.322784 2.474182.585189.23584-.468704.284973-.627182.375915-.895034-.971008-.559556-1.8432-.679459-2.716247-.71518z" fill="#fff" fill-opacity=".70833" fill-rule="evenodd"/><path d="m919.578003 132.627167c-.142456-.601425-.955872-1.458695-1.319763-1.687836-.161194.133652-.216309.23027-.417847.500366.425781.261475 1.111511.678955 1.404968 1.305847.244812-.086517.181885-.04187.332642-.118377z" fill="url(#y)" fill-rule="evenodd"/><path d="m908.525879 133.395233c.030212-.627991.846191-2.116089 1.143127-2.412018.171143.104172.238221.190979.469483.424317-.348755.339721-1.117737 1.252929-1.28302 1.934204-.240296-.041779-.177796.102539-.32959.053497z" fill="url(#z)" fill-rule="evenodd"/><g fill-rule="evenodd" opacity=".51053"><path d="m914.032288 133.406311c-.197449-.010071-.475159.080689-.679566.241638.01532.080796.02594.028626.075073.147919.193299-.106522.369629-.15979.594727-.152649.225098.007156.434265.097504.599853.176788.05719-.141601.069092-.110626.091126-.191528-.235413-.169052-.469605-.211395-.681213-.222183z" fill="#ff9" fill-opacity=".77604"/><path d="m915.301392 134.287659c-.031311-.17041-.217835-.415497-.301758-.481552-.037903.037155-.050965.064254-.098633.139785.098206.075425.256348.195847.322754.373978.057129-.023544.042358-.011154.077637-.032211z" fill="url(#A)"/><path d="m912.634644 134.408813c.031311-.170394.287536-.536621.37146-.602661.037902.037155.050964.06424.098693.139786-.098266.075424-.321106.286667-.387512.464829-.05719-.023499-.047485.019027-.082641-.001954z" fill="url(#B)"/></g><path d="m915.252991 132.154205c-.743592-.389846-1.915039.017472-2.429749.256653-.760193.353333.312988.127442.689026-.035004.323731-.139877.759583-.221191 1.645813.03003.32843-.00322.230042-.15596.094849-.251679z" fill="url(#C)" opacity=".51053"/><g fill="url(#D)" fill-rule="evenodd" opacity=".23684"><path d="m914.085693 132.599243c-.23761-.016311-.710449.141602-.887207.267075.031433.126419.045899.171463.146546.358139.146606-.096436.462707-.291855.711975-.281006.25708.0112.496582.061279.616516.129181.056702-.123276.088623-.191239.148926-.289719-.361328-.145157-.499146-.167343-.736756-.18367z"/><path d="m916.487915 133.748184c-.147278-.175323-.204468-.221756-.376343-.325119-.077575.058167-.104431.100556-.202087.218781.201172.117996.268249.158935.389038.262115.094482-.064941.117126-.122833.189392-.155777z"/><path d="m911.448608 133.90271c.124634-.154266.21875-.270844.41333-.437408.077576.058136.210206.128631.322999.204711-.201233.139084-.317688.244935-.400757.341065-.117066-.036835-.263306-.07544-.335572-.108368z"/></g><path d="m913.956055 131.083557c-.430359.011505-1.127747.184372-1.436158.294022.05481.26326.080872.403274.100647.569534.316346-.125015.932068-.310211 1.367005-.287598.448486.023301.973755.145676 1.243652.241562.054199-.241531.110596-.382324.185547-.617706-.600098-.135483-1.030945-.211304-1.460693-.199799z" fill="url(#E)" fill-rule="evenodd" opacity=".38421"/><path d="m909.835266 132.944489c.217468-.321229.366516-.48816.705933-.835038.135376.121079.487915.358826.684631.517258-.350952.289612-.523926.403931-.714233.604126-.204285-.076721-.550232-.217743-.676331-.286331z" fill="url(#F)" fill-rule="evenodd" opacity=".38421"/><path d="m918.885803 132.944489c-.217468-.321229-.366516-.48816-.705932-.835038-.135376.121079-.487915.358826-.684632.517258.350952.289612.523926.403931.714234.604126.204284-.076721.550232-.217743.67633-.286331z" fill="url(#G)" fill-rule="evenodd" opacity=".38421"/><path d="m945.251465 40.93013c9.777771 5.389282 16.590149 14.301376 18.855224 24.666748 2.265137 10.365387-.214172 21.282196-6.862121 30.215424" fill="none" stroke="#fff" stroke-linejoin="round" stroke-width="8.895148"/><path d="m935.116089 58.097961c4.935364 2.720292 8.373962 7.218674 9.517273 12.450684 1.14331 5.232025-.108093 10.74234-3.463684 15.251404" fill="none" stroke="#fff" stroke-linejoin="round" stroke-width="8.895148"/><path d="m953.547791 21.973343c15.464416 8.523621 26.238769 22.618835 29.821228 39.012573 3.582458 16.393738-.338746 33.659607-10.853028 47.788284" fill="none" stroke="#fff" stroke-linejoin="round" stroke-width="8.895148"/><path d="m898 203.61972c0-4.055801-5.131287-1.001403-11.666687-1.001403-6.535339 0-12-3.054398-12 1.001403 0 4.055787 5.297974 7.343659 11.833374 7.343659 6.535339 0 11.833313-3.287872 11.833313-7.343659z" fill="#dd5699" fill-rule="evenodd"/><path d="m243.364059 110.466293-.801681-12.207641-.088348-4.15596-4.103272-25.57753c.455139-.69719 1.038513-.930222 1.860611-.299332l4.130463 25.747025 1.150558 3.927185 2.831421 11.881118z" fill="#929292"/><path d="m243.364059 110.466293-.801681-12.207641c.056824.000564 2.950012-.358765 2.950012-.358765l2.831421 11.881119z" fill="#1a1a1a"/><path d="m256.229523 110.48423.192291-12.232506-.118897-4.155182 2.823456-25.750747c-.489319-.673554-1.083587-.877152-1.873199-.205963l-2.842179 25.921386-.953399 3.979782-2.235779 12.00782z" fill="#929292"/><path d="m256.229523 110.48423.192291-12.232506c-.056732.003418-2.964233-.210861-2.964233-.210861l-2.235764 12.007805z" fill="#1a1a1a"/><path d="m233.005173 147.354065 70.757431.207947 4.505401.012329s1.318238-.220276 1.318238-.879547c0-.660828.110748-2.201203.110748-2.201203l-1.247467.06778-75.92273-.471344-2.125656-.160217s.187516 2.764984 1.066452 3.094604c.879074.329651 1.538193.220291 1.538193.329651z" fill="#606060" fill-rule="evenodd"/><path d="m231.686783 144.163971 76.80104.440536s1.758149-.110916 2.636475-.660827c.879852-.549912.769104-1.980911.769104-1.980911s.439942-5.500672.439942-6.270859c0-.770188-2.527283-9.682778-2.967225-11.443421-.438385-1.760643-2.307312-10.89196-2.307312-10.89196s-.21994-1.210739-.658325-1.320099c-.439941-.110908-.659912 0-.659912 0l1.538208 7.590943 2.967194 12.654152.053863.204864.150727.146332.893707 2.289001s.012298 1.07518-.484528 1.429474c-.769104.551453-3.690155.660797-3.690155.660797l-75.262848-.440536c.000153 0-1.757705-.220261-2.197174-.659271-.439468-.440552-.284103-1.243088-.284103-1.243088l6.546753-23.182579s-1.31839.439003-1.648026 1.099823c-.329651.659279-1.977676 9.131317-2.417297 10.452957-.439469 1.320107-3.296066 11.332512-3.296066 11.332512s-.109818.990463-.109818 1.540375c0 .549911.329483 6.600494.329483 6.600494s.549439 1.101364 1.09874 1.32164c.549438.21872 1.977661.329651 1.758011.329651z" fill="#ddd" fill-rule="evenodd" stroke="#b2b2b2" stroke-width=".153929"/><path d="m307.938202 144.384232s1.42746-.110917 1.42746-1.101365c0-.988922.549133-4.510223 0-5.060119-.549134-.549927-1.098267-.881104-1.098267-.881104s3.296356-1.429458 3.185608-.770187c-.109192.660828-.658356.990463-.658356 1.871567 0 .879532-.110748 4.400833-.110748 4.400833s-.329163.659286.110748.770187c.439942.10936.219971.329636.219971.329636l-.989075.329635-.879822.110917z" fill="#ececec" fill-rule="evenodd" filter="url(#H)"/><path d="m233.005173 137.452545 74.602951.329651-.438385 6.161484-73.944611-.220276-.219345-6.270859z" fill="#ededed" fill-rule="evenodd" stroke="#000" stroke-width=".153929"/><path d="m236.850067 139.213196 67.791779.438995s1.098266.660828 1.098266 1.320099c0 .660828-1.209015 1.431015-1.209015 1.431015l-68.010208-.440536c.000153 0-1.42807-.659287-1.318237-1.540375.109833-.879547 1.758163-1.320099 1.647415-1.209198z" fill="#020202" fill-rule="evenodd" stroke="#000" stroke-width=".153929"/><path d="m232.378204 136.579163 74.810608.372772 2.424195-.187927s1.181335-.095505 1.510528-.714737c.113831-.214096.276886-.412827.276886-.716263 0-1.173767-1.127533-2.955979-1.127533-2.955979s.047699.255692-.092285.325028c-.276886.138626-.559906.275726-.924438.349655-.549164.10936-77.71782-.784042-77.71782-.784042l-.950622.013855-.549286-.358918-.659271 2.888215s-.026764 1.056686.872314 1.398651c.665894.252624 2.236237.479065 2.126419.36969z" fill="#121212" fill-rule="evenodd"/><path d="m235.751938 111.266243-5.273728 19.254631s-.247192.522186.219651.770203c.739578.391235 2.169952.246444 2.169952.246444s75.728897.633103 76.168839.523728c.439911-.110901.796783-.248001.796783-.248001l.02768-1.264633s.676818 2.08258.164611 2.310546c-.49533.218735-1.538208.192551-1.538208.192551l-77.130218-.660828-.988922-.22026-.274567-.385102.187042-.913436 5.471253-19.605843z" fill="#2c2c2c" fill-rule="evenodd" stroke="#252525" stroke-width=".153929"/><path d="m230.917679 132.253799.027374-.853378-.302109-.05545-.439453.138641-.082458.220276s-.054917.24646.082458.30191c.13736.055451.384552.137085.384552.137085z" fill="#d5d5d5" fill-rule="evenodd" filter="url(#I)" stroke="#d1d1d1" stroke-width=".153929"/><path d="m309.337982 132.74826c0-.109375-.192261-.494461.055359-.633087.24765-.137115.439941-.053924.439941-.053924s.466065.412826.356873.43901c-.109222.027726-.136902.166367-.412262.275711-.273773.109375-.356842 0-.439911-.02771z" fill="#d5d5d5" fill-rule="evenodd" filter="url(#J)" stroke="#dadada" stroke-width=".153929"/><path d="m251.287659 140.077347.038452.593033" fill="none" filter="url(#K)" stroke="#2aea00" stroke-width=".153929"/><path d="m250.941559 140.340759s-.459915.824097.356872.851807c.933686.032349.439927-.824097.439927-.824097" fill="none" filter="url(#K)" stroke="#2aea00" stroke-width=".153929"/><path d="m257.809174 140.725861c.004333.238647-.120362.461029-.32605.581634-.205719.120575-.460388.120575-.666107 0-.205689-.120605-.330384-.342987-.326081-.581634-.004303-.238678.120392-.46106.326081-.581665.205719-.120575.460388-.120575.666107 0 .205688.120605.330383.342987.32605.581665z" fill="#fff" stroke="#444" stroke-linejoin="round" stroke-width=".142076"/><path d="m257.479492 140.738998c.002075.114365-.057678.220917-.156219.278702-.098572.057785-.220612.057785-.319184 0-.098571-.057785-.158325-.164337-.15625-.278702-.002075-.114364.057679-.220932.15625-.278701.098572-.057801.220612-.057801.319184 0 .098541.057769.158294.164337.156219.278701z" fill="#101010" stroke="#000" stroke-linejoin="round" stroke-width=".14208"/><path d="m262.37616 141.000732c.002197.121949-.061493.235581-.166626.297211-.105103.061615-.23526.061615-.340363 0-.105102-.06163-.168823-.175262-.166626-.297211-.002197-.121963.061524-.235611.166626-.297226.105103-.06163.23526-.06163.340363 0 .105133.061615.168823.175263.166626.297226z" fill="#fff" stroke="#7b7b7b" stroke-linejoin="round" stroke-width=".134227"/><path d="m263.337524 141.000732c.002228.121949-.061493.235581-.166595.297211-.105133.061615-.23526.061615-.340363 0-.105133-.06163-.168823-.175262-.166626-.297211-.002197-.121963.061493-.235611.166626-.297226.105103-.06163.23523-.06163.340363 0 .105102.061615.168823.175263.166595.297226z" fill="#fff" stroke="#7b7b7b" stroke-linejoin="round" stroke-width=".134227"/><path d="m262.869934 140.339905c.002197.121948-.061523.235595-.166626.29721-.105102.061615-.23526.061615-.340362 0-.105133-.061615-.168824-.175262-.166626-.29721-.002198-.121948.061493-.235596.166626-.297211.105102-.06163.23526-.06163.340362 0 .105103.061615.168823.175263.166626.297211z" fill="#fff" stroke="#7b7b7b" stroke-linejoin="round" stroke-width=".134227"/><path d="m268.767822 140.64267s-.164581.22026-.273803.357361c-.110749.138641-.110749.385086-.303009.303451-.192292-.083176-.493775-.385086-.466095-.605362.027679-.220276.466095-.549911.466095-.549911s.110748.16481.275329.274185c.164581.110901.27533.192535.301483.220276z" fill="none" stroke="#606060" stroke-width=".153929"/><path d="m273.108643 140.202118h.658355l.192261.192535v.358918l-.136902.274169h-.686035l-.219971-.16481v-.494461z" fill="none" filter="url(#K)" stroke="#28cc03" stroke-width=".153929"/><path d="m273.025574 141.303482h.852173" fill="none" filter="url(#L)" stroke="#28cc03" stroke-width=".238225"/><path d="m278.2724 140.202118h.659881l.192261.192535v.358918l-.138427.274169h-.686036l-.21997-.16481v-.494461z" fill="none" stroke="#4d4d4d" stroke-width=".153929"/><path d="m278.189331 141.303482h.852173" fill="none" stroke="#4d4d4d" stroke-width=".238225"/><path d="m283.985291 140.257568h.659881l.192291.192536v.357376l-.136901.275741h-.687592l-.219971-.164825v-.496002z" fill="none" stroke="#4d4d4d" stroke-width=".153929"/><path d="m283.903748 141.357391h.850647" fill="none" stroke="#4d4d4d" stroke-width=".238225"/><path d="m289.699707 140.285294h.658356l.192291.19255v.357361l-.136902.275726h-.687591l-.218415-.164825v-.496002z" fill="none" stroke="#4d4d4d" stroke-width=".153929"/><path d="m289.616638 141.385117h.852173" fill="none" stroke="#4d4d4d" stroke-width=".238225"/><path d="m271.996521 141.194122.00769-.858001-.059997.036972c-.009216.009231-.018463.012329-.026154.012329-.004608 0-.012298-.004624-.023071-.015396-.009216-.010788-.015381-.021576-.015381-.032349 0-.013885.007691-.029266.021546-.046219.013824-.016937.029205-.03389.04306-.050827l.147674-.207947.121521.070847-.001556 1.195328c0 .015411-.010742.023101-.03537.023101-.00769 0-.015381-.001525-.019989-.003082l-.110748-.02771c-.032318-.015411-.049225-.04776-.049225-.097046z" filter="url(#M)" stroke="#28cc03" stroke-width=".153929"/><path d="m277.515594 140.420837c0 .101685-.035369.226441-.109222.372788-.059967.121689-.138428.246445-.233795.375839l-.030762.040039.213806-.003052c.038452 0 .072296.003052.103058.012314.030762.007706.052307.02002.064606.036972.027679.036957.040008.066223.040008.089325 0 .020035-.009246.033905-.02771.038513-.018463.004639-.033843.007721-.047668.007721l-.582977.029267-.061524-.215668c.041504-.049286.083039-.097046.124573-.144791.089233-.121688.163055-.237213.221497-.34349.07846-.144806.118438-.252625.118438-.325043 0-.016937-.001526-.029266-.004608-.040039-.001526-.009247-.00769-.013855-.016907-.013855-.023071 0-.07077.029266-.143066.087799-.047668.038513-.109192.09549-.186127.170975-.061523.060074-.093811.090881-.095367.093948l-.103058-.146316c0-.009232.02771-.044678.081543-.104752.063049-.070862.126129-.129394.187653-.175598.086151-.063171.15689-.093964.216888-.093964.033844 0 .063049.009247.086151.027741.084595.061599.132263.100097.143036.112427.02768.033889.041534.070861.041534.1109z" stroke="#939393" stroke-width=".153929"/><path d="m282.685486 141.503723-.099976-.160187.110749-.018493c.084625-.015412.167663-.058533.249206-.129395.076904-.067779.115357-.120148.115357-.160187 0-.023101-.021546-.043136-.064606-.061615-.04306-.018493-.090759-.02774-.143036-.02774-.032318 0-.06308.003097-.089233.010803-.026154.009232-.049225.023102-.067688.041565l-.067658-.049271v-.160202l.049225-.024658c.084595-.036957.169189-.095489.253784-.174041.084595-.078568.127686-.137116.127686-.177155 0-.009247-.003083-.015411-.009247-.021576-.015381-.015396-.039978-.023102-.073822-.023102-.050781 0-.115357.015412-.192291.046219-.06305.024643-.099976.041596-.109192.052384l-.076905-.175614c.012299-.015411.052277-.036972.119965-.064682.081512-.035446.153809-.052383.213806-.052383.016937 0 .033844.001541.050781.006149.058442.01387.10611.036987.143036.069321.02768.024658.056916.064697.087677.11708.007691.012329.012299.024628.013855.035416.003083.012329.003083.023117.003083.035446 0 .044647-.016938.093949-.049225.147858-.033844.052383-.075379.100128-.124604.141723l-.069213.056992c.058441 0 .119964.035431.183044.104752.063049.069305.095367.14479.095367.224884 0 .046219-.010772.087799-.032318.12323-.021515.033889-.052276.069305-.093811.106292-.050781.044678-.107696.081635-.170746.110901-.07846.035431-.153808.052368-.227661.052368-.009216 0-.019989 0-.030761-.001525-.009217-.001557-.018464-.001557-.024628-.001557z" stroke="#939393" stroke-width=".153929"/><path d="m288.135376 140.996948.446075-.768646.198426.078552-.023072.605377.06305.013855c.030761.009247.047699.013855.049225.015412.00769.004608.013855.012329.018463.023102.009216.023101.016937.038513.021545.049285.004608.010804.006134.023102.006134.036973 0 .009246-.001526.018478-.006134.029281l-.167663.010773.001525.389709c0 .032349-.010772.046219-.032287.043137-.061524-.009247-.096924-.015411-.107697-.018478-.036895-.016953-.055359-.049302-.055359-.098603v-.303436h-.298431zm.232269-.078552.203034.004608.030761-.459015z" stroke="#939393" stroke-width=".153929"/><path d="m238.199081 140.346909c-.039993.186386-.067688.317306-.083068.39125-.023072.117066-.046143.249542-.070755.395874l-.199967-.07547-.118439-.643875-.133834.757858-.212265-.067779-.109223-1.190704c0-.013855.010773-.02002.032303-.02002.018463.001541.030777.001541.036926.001541.024613 0 .044602.004624.059983.012314.016922.007721.026153.021576.027694.041595l.067673.908814.135376-.879547.213806.009247.093826.844116c.016922-.172516.047684-.363526.089219-.56839.019989-.101669.036911-.180237.050766-.237213.012298-.044678.033828-.121704.067672-.234131.003083-.004639.007691-.010803.012314-.016968.010758-.010773.023071-.015381.036911-.012298.035385.006149.064606.016937.086136.033874.02153.018494.032303.041596.032303.070862-.02768.10936-.047684.189453-.059982.238754zm.28302-.144791v-.120148c0-.023102.007691-.043136.021546-.061615.01384-.018493.032287-.026184.053833-.026184.02153 0 .039993.007691.058456.023102.016907.016937.024597.035431.024597.056992v.166366c0 .018478-.00769.030792-.023071.038513-.016922.007691-.03537.012314-.056915.012314-.023071 0-.041519-.009231-.055374-.026184-.015381-.016952-.023072-.038498-.023072-.063156zm-.00769.893402v-.676208c0-.030808.018463-.044678.052307-.044678.041519 0 .072296.004638.089218.015411.018448.010773.02768.024643.02768.043122l-.016922.730133c0 .015411-.010758.023117-.033844.023117-.012299 0-.023072-.001542-.032303-.004624-.009216-.001526-.015381-.004623-.02153-.004623-.043076-.01387-.064606-.04158-.064606-.08165zm.393784-.6716.016922-.02002h.041534c.010757 0 .02153.006165.033829.016937.013855.01233.023086.020035.030777.021576.016906.004624.032303-.00769.04306-.040054.010773-.030807.024612-.049301.039993-.052368.015381-.004624.026154-.007706.032303-.007706.023071 0 .043076.009247.061524.026184.016922.015412.026153.035431.026153.060089l-.001541.070847c0 .036972-.004608.069321-.012299.097046-.009231.029266-.023071.044678-.041534.044678-.027679 0-.047684-.027741-.056915-.083191-.004608-.027726-.01384-.041581-.026139-.041581-.010772 0-.020004.009247-.026153.027726-.007691.018478-.010773.05545-.010773.110901v.046218.029267.451324c-.01384.006165-.02922.009247-.046142.009247-.010773 0-.024613-.001541-.039994-.004623-.016922-.004624-.032303-.013871-.046142-.027726-.015381-.01387-.023072-.032348-.023072-.053924zm.887542.140197.010773.221802-.261505.043122c-.023071.004638-.036911.010787-.044602.016937-.016922.012329-.024612.029281-.024612.050842l.004623.086273c0 .018479.004609.035416.016907.050827.012314.015396.026154.021561.041535.020035.033844-.004639.076919-.030823.129211-.080109.052292-.049285.075378-.080108.070755-.090881.004623-.003082.012314-.004623.023071-.004623.021546 0 .036927.007705.046158.02156.010758.012329.015381.027741.015381.041596 0 .006164-.001541.013855-.006165.024643-.00769.027725-.016922.052368-.030761.073929-.00615.009246-.023072.030822-.052292.064697-.023071.026199-.046143.046219-.070755.058533-.024613.012329-.052307.018493-.086151.018493-.02153 0-.039994-.001526-.053833-.006164-.01384-.004624-.029221-.012329-.043061-.024643l-.096908-.087799c-.003082-.001541-.007691-.007706-.010773-.015412-.003082-.009231-.006149-.015396-.009231-.02156-.009232-.021561-.012299-.044678-.012299-.069306v-.144806c0-.093963.019989-.189468.061523-.289581.041535-.100128.084595-.149429.132279-.149429.006164 0 .012314 0 .015381.001541.024612.00769.053848.012329.090759.016937.035385.003082.064606.015411.08461.038513.019989.021576.03537.043137.044601.063172.010773.020019.015381.044662.015381.070861zm-.13536-.001556c0-.020019-.003083-.038513-.012299-.05545-.007706-.015412-.020004-.026184-.036926-.030808-.018463-.004623-.03537.015396-.052292.058548-.010773.030792-.018463.052353-.021546.064682-.010757.026184-.016922.047745-.023071.066238-.004608.018479-.006149.038514-.006149.060074l.152283-.035446zm.326095.505249.015381-1.126007c0-.015411.00769-.026184.023071-.033905.015396-.006165.032303-.009232.050766-.004608.026154.004608.044617.013855.053833.026184.009232.012329.013855.029266.013855.052368l-.027694 1.172211c0 .013885-.012299.020035-.035386.020035-.009216 0-.018447 0-.027679-.003083-.032303-.015396-.050766-.027725-.056915-.036972-.00615-.009247-.009232-.032348-.009232-.066223zm.772186-.503693.010758.221802-.263031.043122c-.02153.004638-.036911.010787-.04306.016937-.016922.012329-.024613.029281-.024613.050842l.003067.086273c0 .018479.006165.035416.018463.050827.010773.015396.024613.021561.041535.020035.033844-.004639.076904-.030823.129211-.080109.050751-.049285.075363-.080108.069214-.090881.006149-.003082.01384-.004623.024612-.004623.021531 0 .036911.007705.046143.02156.009232.012329.015381.027741.015381.041596 0 .006164-.003067.013855-.006149.024643-.007691.027725-.018464.052368-.030762.073929-.006149.009246-.024613.030822-.052307.064697-.023072.026199-.047684.046219-.070755.058533-.024613.012329-.052292.018493-.086136.018493-.02153 0-.039993-.001526-.053833-.006164-.015381-.004624-.029236-.012329-.044617-.024643l-.095367-.087799c-.003067-.001541-.007691-.007706-.010758-.015412-.004623-.009231-.00769-.015396-.009231-.02156-.009232-.021561-.013855-.044678-.013855-.069306v-.144806c0-.093963.021545-.189468.06308-.289581.039993-.100128.084594-.149429.130737-.149429.00769 0 .013855 0 .016922.001541.023071.00769.053833.012329.089218.016937.036911.003082.064606.015411.086136.038513.020004.021576.035385.043137.044617.063172.009231.020019.01538.044662.01538.070861zm-.13536-.001556c0-.020019-.004624-.038513-.012314-.05545-.007691-.015412-.019989-.026184-.036911-.030808-.018463-.004623-.036926.015396-.052307.058548-.010758.030792-.018448.052353-.02153.064682-.010773.026184-.018464.047745-.023072.066238-.004608.018479-.00769.038514-.00769.060074l.153824-.035446zm.306091.537598c-.01384-.009247-.02153-.024659-.02153-.046204 0-.012329.003082-.023117.010773-.033905.00769-.012329.016922-.020019.027679-.026184.009232-.004623.020004-.004623.029236 0 .032303.020019.056915.035431.072296.046204.030762.020034.053833.029266.069214.029266s.024612-.006149.02922-.016937c.003083-.012329.004624-.02002.004624-.023102v-.013855c0-.026199-.013855-.050842-.041535-.075501-.027694-.021545-.053833-.041565-.079986-.06314-.027695-.021576-.047684-.043122-.061524-.064698-.013855-.020019-.024612-.044677-.029235-.072403-.00615-.026184-.009232-.049301-.009232-.06932 0-.063141.018463-.120148.053848-.170975.03537-.050827.081513-.077011.136902-.077011h.029221c.009231 0 .015381.001526.018463.003082l.089218.053894c.019989.012329.032288.029266.039978.052384.004623.009246.007706.033889.010773.072402 0 .02771-.001541.052369-.004608.070862-.003083.02002-.009232.041596-.018464.063141h-.096908c-.003067-.009247-.009232-.018478-.016922-.024643-.007691-.006149-.012299-.04158-.012299-.103195v-.052383c-.003082-.010788-.009231-.015396-.016922-.015396-.012314 0-.027694.015396-.046142.044662-.018463.029282-.029236.055466-.032303.077011-.004624.029282.003067.055466.019989.081665.012314.018463.033844.040039.066147.066223s.066147.052368.099975.078553c.039994.03543.058457.072402.058457.110916 0 .047744-.02153.090881-.064606.13092-.04306.038513-.083054.058548-.121521.058548-.027679 0-.053833-.004623-.078445-.016952-.024613-.010788-.063065-.035416-.113831-.073929zm.530685 0c-.01538-.009247-.023071-.024659-.023071-.046204 0-.012329.004608-.023117.012314-.033905.006149-.012329.015381-.020019.026138-.026184.010773-.004623.020005-.004623.030762 0 .032303.020019.055374.035431.072296.046204.030762.020034.052307.029266.067688.029266s.026154-.006149.029221-.016937c.004623-.012329.006149-.02002.006149-.023102v-.013855c0-.026199-.01384-.050842-.04306-.075501-.026154-.021545-.053833-.041565-.079987-.06314-.026153-.021576-.046142-.043122-.061523-.064698-.013855-.020019-.023087-.044677-.029236-.072403-.004608-.026184-.007691-.049301-.007691-.06932 0-.063141.016922-.120148.053833-.170975.035386-.050827.079987-.077011.135361-.077011h.030777c.007691 0 .01384.001526.018448.003082l.087677.053894c.020004.012329.033844.029266.041534.052384.003083.009246.00615.033889.010773.072402 0 .02771-.001541.052369-.004623.070862-.003067.02002-.009232.041596-.019989.063141h-.095368c-.004623-.009247-.009231-.018478-.018463-.024643-.00769-.006149-.010757-.04158-.010757-.103195v-.052383c-.004624-.010788-.009232-.015396-.016922-.015396-.012314 0-.027695.015396-.046158.044662-.018448.029282-.029221.055466-.033829.077011-.003082.029282.003067.055466.02153.081665.010773.018463.033844.040039.066147.066223.030762.026184.064606.052368.098435.078553.039993.03543.059997.072402.059997.110916 0 .047744-.02153.090881-.064606.13092-.043075.038513-.084594.058548-.121521.058548-.02922 0-.055374-.004623-.079986-.016952-.024613-.010788-.061524-.035416-.11229-.073929zm2.364228-.865692c-.007691.067779-.035385.13092-.08461.189453-.039994.04776-.099976.097046-.179962.152496l-.078446.052383.298401.45134c.003082.012314.004623.021546.004623.02771 0 .030823-.013855.055451-.041534.072418-.01384.007691-.026154.010773-.038452.010773-.018463 0-.035385-.004623-.050766-.01387-.015381-.009232-.029221-.021561-.041535-.040055l-.372238-.503692-.009231.517563c0 .018478-.015381.027725-.044617.027725-.016907 0-.030762-.003082-.041519-.007706-.023071-.007705-.043076-.013855-.059998-.02156-.016922-.006165-.026153-.024659-.026153-.055451l.003082-1.102905c0-.023117.004608-.043121.010773-.060089.006149-.015381.019989-.029267.039993-.036957.009232-.004608.019989-.006165.030762-.006165.027679 0 .049225.010788.064605.029267.032303-.015412.061524-.026184.087677-.029267.024613-.004623.061524-.00769.106125-.00769h.096909c.078461 0 .152283.035431.223053.104736.069214.06778.104599.14325.104599.224884-.001541.010788-.001541.018494-.001541.024659zm-.581452.283416c.064606-.015396.115372-.036956.149216-.063141.03537-.026184.063065-.04776.084595-.066238.049225-.036972.086136-.080093.11383-.126312.02768-.047745.041535-.095505.041535-.144791 0-.029266-.013855-.052383-.044617-.067779-.029221-.015412-.064606-.023102-.107666-.023102-.050766 0-.09845.00769-.144592.024643-.046143.015396-.072296.035415-.081528.058532zm.866013.637726c-.055374-.021576-.095368-.057007-.121521-.104751-.026138-.047745-.038452-.104752-.038452-.172516v-.040055c0-.010772.001541-.030807.00769-.056991.001541-.046219.004624-.083176.006149-.110916.010773-.097031.049225-.1987.118454-.303437.007691-.012329.018448-.018493.033829-.018493.007691 0 .026154.006164.053848.016937.026139.010788.047684.016937.061524.016937.070755 0 .123062.04007.159973.121704.030762.069321.046143.158661.046143.268036 0 .110901-.015381.200226-.043061.269562-.033844.08316-.087677.135544-.158447.154022-.012299.001557-.019989.003082-.024612.003082-.009217 0-.018448-.003082-.02768-.00769-.00769-.004623-.016922-.009247-.026153-.01387zm.081528-.643875c-.018464.040054-.036911.081635-.053833.121689-.018464.041595-.027695.092422-.027695.152496 0 .018494-.001541.046204-.004608.081635-.004624.035431-.006165.061615-.006165.078552 0 .030823.004624.057007.013855.078583.009232.021545.026154.038498.050751.052353.020004.010788.041534-.015396.064606-.078568.016922-.047745.030777-.106277.043075-.175583.003082-.02156.004608-.044677.004608-.06932 0-.060074-.00769-.117066-.023071-.172516-.016922-.055451-.032303-.083191-.046143-.083191-.006149 0-.012298.004623-.01538.01387zm.573745.668533c-.018448 0-.033844-.003097-.046142-.010803l-.063065-.038498c-.010773-.00618-.020004-.01387-.026153-.023117-.00615-.00769-.015381-.021561-.024613-.040039-.016922-.030823-.024612-.063156-.024612-.093964l.026153-.525268c0-.012329.007691-.018494.024613-.018494.006149 0 .016922.001541.02922.004639l.036927.009231c.013839.003083.02922.01233.047683.026185l-.026153.40512c0 .067765.004623.117066.010772.14943.009232.010772.018448.021545.026139.032333.041534-.030807.069229-.05545.081527-.078567.012314-.021546.018464-.044663.018464-.069306l.009231-.514496.047684-.006149c.046142 0 .084595.016937.118439.049301l-.001542.751694c-.010757.004623-.024612.007706-.038452.007706-.004608 0-.012313-.001557-.026153-.004639-.012299-.003067-.024613-.007691-.033844-.013855-.010758-.006165-.016907-.015411-.018448-.027725l-.010773-.078568-.079986.086273c-.01384.013855-.033844.021576-.056916.021576zm.506073-.619232-.02922-.015411h-.030762l-.027695-.03389-.003082-.08934.093842-.020035.009231-.351196c.019989-.004624.038452-.007706.0569-.007706.012314 0 .024613.001526.039994.003082.01538.003083.036926.010773.061538.023102l-.003082.31424h.081528l.026153.047744-.003082.089341-.123062.012329v.643875c-.01384.003097-.024613.004623-.033829.004623-.00769 0-.018463-.001526-.029236-.004623-.012298-.003082-.023071-.006165-.03537-.007706-.043075-.012314-.064605-.036972-.064605-.072388zm.827561.003082.010757.221802-.263031.043122c-.02153.004638-.036911.010787-.043075.016937-.016907.012329-.024598.029281-.024598.050842l.003068.086273c0 .018479.006149.035416.018463.050827.010772.015396.024612.021561.041534.020035.033829-.004639.076904-.030823.129211-.080109.050751-.049285.075364-.080108.069214-.090881.00615-.003082.01384-.004623.024613-.004623.02153 0 .036911.007705.046142.02156.009232.012329.015381.027741.015381.041596 0 .006164-.003067.013855-.006149.024643-.007691.027725-.018463.052368-.030762.073929-.006149.009246-.024612.030822-.052307.064697-.023071.026199-.047684.046219-.070755.058533-.024612.012329-.052292.018493-.086136.018493-.02153 0-.039993-.001526-.053833-.006164-.015381-.004624-.029236-.012329-.044616-.024643l-.095368-.087799c-.003082-.001541-.00769-.007706-.010773-.015412-.004608-.009231-.007675-.015396-.009216-.02156-.009232-.021561-.013855-.044678-.013855-.069306v-.144806c0-.093963.021545-.189468.06308-.289581.039978-.100128.084595-.149429.130737-.149429.007691 0 .01384 0 .016922.001541.023072.00769.053833.012329.089218.016937.036911.003082.064606.015411.086136.038513.020004.021576.035385.043137.044617.063172.009216.020019.015381.044662.015381.070861zm-.135361-.001556c0-.020019-.004623-.038513-.012314-.05545-.00769-.015412-.019989-.026184-.036911-.030808-.018463-.004623-.036926.015396-.052307.058548-.010757.030792-.018448.052353-.02153.064682-.010773.026184-.018463.047745-.023071.066238-.004624.018479-.007691.038514-.007691.060074l.153824-.035446zm.329163-.138641.016922-.02002h.041534c.010773 0 .02153.006165.033844.016937.01384.01233.023071.020035.030762.021576.016922.004624.032303-.00769.043075-.040054.010758-.030807.024613-.049301.039994-.052368.01538-.004624.026138-.007706.032302-.007706.023072 0 .043061.009247.061524.026184.016922.015412.026153.035431.026153.060089l-.001541.070847c0 .036972-.004623.069321-.012313.097046-.009217.029266-.023072.044678-.04152.044678-.027694 0-.047683-.027741-.056915-.083191-.004623-.027726-.013855-.041581-.026153-.041581-.010773 0-.020005.009247-.026154.027726-.00769.018478-.010758.05545-.010758.110901v.046218.029267.451324c-.013854.006165-.029235.009247-.046157.009247-.010758 0-.024613-.001541-.039994-.004623-.016922-.004624-.032302-.013871-.046142-.027726-.015381-.01387-.023071-.032348-.023071-.053924z" fill="#979797"/><path d="m231.055038 143.860504c-.082443-.109375-.82402-.577637-.879089-1.099823-.054916-.522186.109985-5.280395.109985-5.280395s.35701-.716278.659119-.797913c.302261-.083191.466995-.164825.466995-.164825l-1.785385-.412812-.412094-.523742.082459 1.925476.137359 4.732025s-.109833.466736-.302109.522186c-.192276.055451.411927.853363.549302.907272.137359.055451 1.373458.248002 1.373458.192551z" fill="#ececec" fill-rule="evenodd" filter="url(#N)"/><path d="m228.747726 135.636444s.521912.907288 1.016297.962738c.494369.055466 1.565582.248016 2.224853.248016h.659272" fill="none" filter="url(#O)" stroke="#fdfdfd" stroke-width=".307858"/><path d="m233.142532 136.902649 28.895188-.110916" fill="none" stroke="#fdfdfd" stroke-width=".153929"/><path d="m230.547882 130.471588 4.933334-19.139107s.271958-1.050537 1.398072-1.594291c1.127517-.545288 2.874908-.622307 2.874908-.622307s61.99736.232597 62.152725.232597 2.370362.428215 2.874909.933464c.504516.506783.970611 1.595825.970611 1.595825l4.079316 18.787911s.155334 1.050537-.193818 1.2061c-.350708.155579-1.359771.155579-1.359771.155579l-76.836426-.543747c-.000458 0-.738495-.194092-.854935-.389709-.116592-.194092 0-.583802-.038925-.622315z" fill="#929292" fill-rule="evenodd"/><path d="m230.508972 130.705719s.03891.388184.310867.505249c.271958.117065.893403.117065.893403.117065l77.380935.622315c-.001556 0 .426087.038513.658356-.234131.233795-.271118.155365-.971985.155365-.971985" fill="none" filter="url(#P)" stroke="#868686" stroke-width=".230893"/><path d="m246.602295 110.716331-.275345 1.250779h.590668l.315338-1.224594z" fill-rule="evenodd" filter="url(#Q)" stroke="#000" stroke-width=".153929"/><path d="m247.329865 110.59156c-.06923 0-.755265-.027725-.755265-.027725" fill="none" filter="url(#Q)" stroke="#494949" stroke-width=".153929"/><path d="m250.509323 110.702461-.164581 1.264649h.590668l.206115-1.238457z" fill-rule="evenodd" filter="url(#Q)" stroke="#000" stroke-width=".153929"/><path d="m251.209213 110.57769c-.067688 0-.755264-.027725-.755264-.027725" fill="none" filter="url(#Q)" stroke="#494949" stroke-width=".153929"/><path d="m254.519424 110.633148-.150741 1.250786h.590668l.192276-1.223053z" fill-rule="evenodd" filter="url(#Q)" stroke="#000" stroke-width=".153929"/><path d="m255.246994 110.509918c-.067673 0-.755249-.027725-.755249-.027725" fill="none" filter="url(#Q)" stroke="#494949" stroke-width=".153929"/><path d="m258.461853 110.716331-.138428 1.250779h.590668l.178406-1.224594z" fill-rule="evenodd" filter="url(#Q)" stroke="#000" stroke-width=".153929"/><path d="m259.189423 110.59156c-.069214 0-.755249-.027725-.755249-.027725" fill="none" filter="url(#Q)" stroke="#494949" stroke-width=".153929"/><path d="m262.347351 110.660881-.081512 1.347824h.590667l.123047-1.320099z" fill-rule="evenodd" filter="url(#Q)" stroke="#000" stroke-width=".153929"/><path d="m263.076477 110.53611c-.069244 0-.756805-.026192-.756805-.026192" fill="none" filter="url(#Q)" stroke="#494949" stroke-width=".153929"/><path d="m266.289764 110.770241-.041534 1.293915h.590698l.083039-1.26619z" fill-rule="evenodd" filter="url(#Q)" stroke="#000" stroke-width=".153929"/><path d="m267.017334 110.647011c-.069214 0-.755249-.027725-.755249-.027725" fill="none" filter="url(#Q)" stroke="#494949" stroke-width=".153929"/><path d="m270.313721 110.811836-.05539 1.320099h.590699l.096893-1.292374z" fill-rule="evenodd" filter="url(#Q)" stroke="#000" stroke-width=".153929"/><path d="m271.04129 110.688606c-.069214 0-.755249-.027725-.755249-.027725" fill="none" filter="url(#Q)" stroke="#494949" stroke-width=".153929"/><path d="m274.228455 110.811836.012298 1.264649h.590668l.02771-1.236924z" fill-rule="evenodd" filter="url(#Q)" stroke="#000" stroke-width=".153929"/><path d="m274.956024 110.688606c-.069214 0-.755249-.027725-.755249-.027725" fill="none" filter="url(#Q)" stroke="#494949" stroke-width=".153929"/><path d="m278.266235 110.770241v1.320099h.589142l.041535-1.292374z" fill-rule="evenodd" filter="url(#Q)" stroke="#000" stroke-width=".153929"/><path d="m278.993805 110.647011c-.069214 0-.755249-.027725-.755249-.027725" fill="none" filter="url(#Q)" stroke="#494949" stroke-width=".153929"/><path d="m282.028687 110.867287.109222 1.292373h.590668l-.067688-1.264648z" fill-rule="evenodd" filter="url(#Q)" stroke="#000" stroke-width=".153929"/><path d="m282.756256 110.742516c-.067688 0-.755249-.026185-.755249-.026185" fill="none" filter="url(#Q)" stroke="#494949" stroke-width=".153929"/><path d="m286.080322 110.811836.095368 1.292374h.590667l-.053833-1.264649z" fill-rule="evenodd" filter="url(#Q)" stroke="#000" stroke-width=".153929"/><path d="m286.807892 110.688606c-.069214 0-.755249-.027725-.755249-.027725" fill="none" filter="url(#Q)" stroke="#494949" stroke-width=".153929"/><path d="m290.007355 110.921204.152282 1.280044h.590668l-.110748-1.252319z" fill-rule="evenodd" filter="url(#Q)" stroke="#000" stroke-width=".153929"/><path d="m290.736481 110.797966c-.069245 0-.75528-.027725-.75528-.027725" fill="none" filter="url(#Q)" stroke="#494949" stroke-width=".153929"/><path d="m294.005157 110.881149.164582 1.306237h.590667l-.124603-1.278511z" fill-rule="evenodd" filter="url(#Q)" stroke="#000" stroke-width=".153929"/><path d="m294.732727 110.756378c-.069214 0-.755249-.027725-.755249-.027725" fill="none" filter="url(#Q)" stroke="#494949" stroke-width=".153929"/><path d="m205.333328 131.518311v-14.353524l-82.999992 6.379341v3.189675z" fill="#fff" fill-rule="evenodd"/><path d="m467 132v-20.843658l-137 9.263847v4.631927z" fill="#ffdb00" fill-rule="evenodd"/><path d="m839 152v-11.469025l-509 5.097351v2.548676z" fill="#ffdb00" fill-rule="evenodd"/><path d="m111.549004 124.950241c0 14.992737-12.136185 27.146011-27.107834 27.146011-14.971657 0-27.107838-12.153274-27.107838-27.146011s12.136181-27.146011 27.107838-27.146011c14.971649 0 27.107834 12.153274 27.107834 27.146011z" fill="none" stroke="#fff" stroke-width="6.000204"/><path d="m62.213989 141.596329c11.956276-4.489914 29.890679-4.489914 41.846955 0" fill="none" stroke="#fff" stroke-linecap="round" stroke-width="5.982346"/><path d="m59.177853 126.255775h47.919246" fill="none" stroke="#fff" stroke-width="3.880114"/><path d="m77.159332 101.637848c-7.472671 15.638389-7.472671 35.094696 0 50.061081" fill="none" stroke="#fff" stroke-linecap="round" stroke-width="5.982346"/><path d="m62.213989 110.91523c11.956276 4.489914 29.890679 4.489914 41.846955 0" fill="none" stroke="#fff" stroke-linecap="round" stroke-width="5.982346"/><path d="m89.115601 101.637848c7.472671 15.638389 7.472671 35.094696 0 50.061081" fill="none" stroke="#fff" stroke-linecap="round" stroke-width="5.982346"/><path d="m563.447144 191.876984c.290893-2.302826-.782349-5.057557-1.079712 4.849945-6.139771.088836-8.345948 3.914169-2.03418 4.400085 6.311829.48584 6.475037-.74559 3.824219-3.422378.501098-11.419754-1.001282-3.524811-.710327-5.827652z" fill="url(#S)" stroke="url(#U)" stroke-linecap="round" stroke-linejoin="round" stroke-width=".644859"/><path d="m516.726013 189.258087c.290894-2.302841-.782348-7.087936-1.079712 2.819641-6.13974.088837-8.345978 3.914246-2.034179 4.400086 6.311828.48584 6.475036-.74559 3.824218-3.422303.501038-11.41983-1.001281-1.494598-.710327-3.797424z" fill="url(#V)" stroke="url(#W)" stroke-linecap="round" stroke-linejoin="round" stroke-width=".644859"/><path d="m523.63324 97.568268c3.127258-1.802597 6.685791-3.291199 11.001709-4.228028-.530213.659638-1.138367 1.298005-1.09607 2.114014 3.094788-1.123581 6.460389-1.937408 10.311585-2.195312-.669922.5298-1.395142 1.026397-1.542664 1.870086 3.952698-1.220916 6.607056-1.141571 9.662049-1.463546-2.176148 1.314361-3.77649 2.500228-4.14087 3.862136z" fill="#f7ba00" fill-rule="evenodd"/><path d="m502.766449 101.236481c3.792572-3.797913 7.719116-3.06897 10.346344-.442627-2.528351 2.531891-7.878265 8.512092-10.406738 11.043991-2.622559-2.630913-3.732178-6.803497.060394-10.60141z" fill="#feff2a" fill-rule="evenodd"/><path d="m567.957581 101.236481c-3.792603-3.797913-7.719117-3.06897-10.346375-.442627 2.528381 2.531891 7.878296 8.512092 10.406738 11.043991 2.622559-2.630913 3.732178-6.803497-.060363-10.60141z" fill="#feff2a" fill-rule="evenodd"/><path d="m498.96286 122.866257s-17.55957-1.671448-20.993622-7.206505c-2.563019-4.131203 2.905884-10.515511 1.368012-15.1287-1.802552-5.407013-10.5802-5.550904-11.360291-11.197617-.552673-4.000641 5.816712-7.702759 6.066742-11.733658.264252-4.262008-4.996155-10.54245-4.996155-10.54245s9.086823 5.383927 9.873352 10.006394c.685181 4.027328-5.505279 7.516693-4.579803 11.495422 1.171753 5.037018 9.313538 4.462601 11.311066 9.232071 1.603881 3.829346-2.761231 8.917114-.486054 12.388855 2.323364 3.545357 13.829834 3.091965 13.829834 3.091965z" fill="#fffc67"/><path d="m469.048492 67.05687s5.260498 6.280426 4.996155 10.542434c-.249908 4.030899-6.619415 7.733017-6.066742 11.733658.78003 5.646698 9.557648 5.790604 11.360291 11.197617 1.537933 4.613189-3.93103 10.997497-1.367981 15.1287 3.434021 5.535194 20.995727 7.206978 20.995727 7.206978v-.104233c-3.661712-.434303-16.285553-2.332779-19.244934-7.102631-2.563049-4.131202 2.653656-10.978668 1.115631-15.592086-1.802551-5.407013-10.790496-5.087754-11.570617-10.734223-.552674-4.000641 5.690613-7.702759 5.940674-11.733673.192382-3.102921-2.745026-7.266296-4.247437-9.306396-1.118988-.766877-1.910736-1.235917-1.910736-1.235917zm29.948365 46.212791s-.178955.00943-.498139.014893c.185028.000473.345917.00119.498139 0z" fill-opacity=".4709"/><path d="m535.391541 96.584274c-36.276246 0-36.253052 20.377777-36.275086 45.519181l-1.23465 43.632141 35.93277 3.506866s4.454834-.853378 7.185425-.645279c2.889038.220169 7.666687 2.002823 7.666687 2.002823l19.79718 2.011231s1.406677.044464 2.20282-.676026c.863953-.78183 1-2.496857 1-2.496857v-47.334899c-.021912-25.141404.00116-45.519181-36.275146-45.519181z" fill="#feff2a" fill-rule="evenodd"/><path d="m553.704834 120.393105c0 10.323509-8.221436 18.692375-18.363098 18.692375-10.141663 0-18.363159-8.368866-18.363159-18.692375 0-10.323502 8.221496-18.69236 18.363159-18.69236 10.141662 0 18.363098 8.368858 18.363098 18.69236z" fill-opacity=".73016" fill-rule="evenodd"/><path d="m552.540527 119.94931c0 9.732575-7.750854 17.622391-17.312011 17.622391-9.561158 0-17.312012-7.889816-17.312012-17.622391 0-9.732574 7.750854-17.62239 17.312012-17.62239 9.561157 0 17.312011 7.889816 17.312011 17.62239z" fill="#fff" fill-rule="evenodd"/><path d="m539.097473 123.82579 4.452332 5.397644-4.886353-5.007064 3.854065 5.840957-4.327087-5.498825 3.21228 6.218231-3.718933-5.928283 2.534057 6.52481-3.068725-6.290519 1.82727 6.757652-2.383606-6.581528 1.099549 6.913803-1.671509-6.797981.359436 6.991677-.940491-6.937363-.384704 6.990341-.198731-6.998192-1.124573 6.909813.545167-6.979706-1.851502 6.750977 1.282898-6.882103-2.557678 6.515617 2.006164-6.70652-3.234802 6.20652 2.706604-6.455063-3.875244 5.826981 3.376465-6.130371-4.471741 5.381546 4.008057-5.736183-5.0177 4.874992 4.594177-5.277031-5.506653 4.313347 5.128296-4.758118-5.93335 3.702713 5.60437-4.185287-6.292724 3.050148 6.016845-3.565071-6.580871 2.363083 6.361145-2.904366-6.794434 1.649147 6.633423-2.21093-6.930908.916642 6.830444-1.492325-6.989013.173706 6.950195-.756775-6.967774-.57122 6.99115-.012673-6.867798-1.309662 6.952881.731545-6.689758-2.033203 6.835877 1.467422-6.436158-2.733833 6.641419 2.186828-6.109558-3.40345 6.371704 2.881333-5.713623-4.034455 6.029602 3.543229-5.252991-4.619805 5.619385 4.164925-4.732849-5.152703 5.145446 4.73948-4.159057-5.627282 4.613342 5.260399-3.538269-6.038116 4.028748 5.721679-2.877259-6.380508 3.398682 6.117981-2.183777-6.650742 2.729981 6.445198-1.465455-6.845497 2.030457 6.699196-.73053-6.962654 1.307862 6.877457.012573-7.000992.570434 6.977692.755677-6.959992-.173462 6.998863 1.490234-6.840049-.915344 6.940696 2.207825-6.642769-1.646851 6.803978 2.900452-6.370124-2.359742 6.590179 3.559998-6.02533-3.045837 6.301568 4.179443-5.612252-3.69751 5.941735 4.751404-5.135537-4.307251 5.514405 5.269592-4.60064-4.868164 5.024773 5.72815-4.013695-5.374024 4.478028 6.121765-3.381218-5.818786 3.880706 6.445984-2.710411-6.197815 3.239312 6.697143-2.00898-6.506469 2.56131 6.872436-1.284737-6.741455 1.854149 6.969849-.545944-6.900086 1.126121 6.988342.199051-6.980529.385277 6.927612.941772-6.981873-.359939 6.788453 1.673904-6.904053-1.101089 6.572265 2.386917-6.748169-1.829788 6.281678 3.073036-6.515747-2.537613 5.919922 3.724144-6.209473-3.216812 5.491089 4.333191-5.832764-3.859536 5.000061 4.893235z" fill-opacity=".88889"/><path d="m535.391541 96.585434c-36.276246 0-36.256531 20.377777-36.278565 45.51918h6.775726c.019562-24.723541.00116-44.837829 31.27475-45.50061-.582336-.011154-1.169494-.019074-1.771667-.019074z" fill-opacity=".15" fill-rule="evenodd"/><path d="m535.334778 96.585434c36.276245 0 36.256531 20.377777 36.278564 45.51918h-6.775757c-.019531-24.723541-.001159-44.837829-31.274719-45.50061.582337-.011154 1.169495-.019074 1.771668-.019074z" fill="#fff" fill-opacity=".15" fill-rule="evenodd"/><path d="m543.116821 119.921402c0 4.45755-3.549926 8.071106-7.928955 8.071106-4.379028 0-7.928955-3.613556-7.928955-8.071106s3.549927-8.071106 7.928955-8.071106c4.379029 0 7.928955 3.613556 7.928955 8.071106z" fill-rule="evenodd"/><path d="m540.745422 116.422348c0 1.183037-.952697 2.142075-2.127868 2.142075s-2.127869-.959038-2.127869-2.142075c0-1.183029.952698-2.142067 2.127869-2.142067s2.127868.959038 2.127868 2.142067z" fill="#fff" fill-rule="evenodd"/><path d="m532.242188 123.968773c0 .604675-.486939 1.094871-1.087586 1.094871-.600708 0-1.087585-.490196-1.087585-1.094871 0-.604691.486877-1.094879 1.087585-1.094879.600647 0 1.087586.490188 1.087586 1.094879z" fill="#fff" fill-rule="evenodd"/><path d="m548.8927 144.427399c0 2.271484-6.265442 1.823181-13.994934 1.823181-7.728821 0-13.994934.448303-13.994934-1.823181 0-2.271485 0-2.719788 13.994934-2.719788s13.994934.448303 13.994934 2.719788z" fill="#ffa9a9" fill-rule="evenodd"/><path d="m523.208313 144.702026h23.114685" fill="none" stroke="#f00" stroke-width=".655506"/><path d="m510.217896 122.69574c0 12.067749 10.988403 21.857269 24.543579 21.857269 5.609985 0 10.79956-1.68573 14.950073-4.50293.343384-.233184.716919-.495025 1.026062-.753051.029907-.024872.051575-.043961.077087-.068818.309204-.236984.635498-.494995.922974-.751129.025818-.024841.055908-.049698.077331-.074524 1.279114-1.121917 2.468018-2.354705 3.459656-3.713592.025757-.043961.085694-.087952.102783-.137634.214783-.282853.394959-.563813.570984-.846695.064514-.068787.107361-.137589.163025-.231247.189026-.282868.334961-.538971.497986-.814209.051514-.074555.107361-.162461.133118-.238892.150268-.280975.30896-.581055.472229-.883026.029907-.074524.077087-.143341.098755-.187286.360473-.726304.652343-1.471711.922729-2.247666.025818-.087906.047241-.16246.081665-.258011.098694-.280975.184448-.581024.261719-.88874.025818-.143364.077331-.256134.103088-.393738.085755-.258019.128601-.514122.184449-.764519.03009-.145248.064514-.282844.085998-.445305.04718-.256103.077271-.514122.124451-.770256.029907-.137603.064331-.300064.064331-.43766.03009-.282875.055847-.558105.07727-.839073 0-.145248.030091-.258019.030091-.395615.025817-.393737.047241-.819946.047241-1.23278 0-.414734-.030091-.821831-.047241-1.234688 0-.143333-.030091-.261841-.030091-.3937-.03009-.282882-.04718-.558105-.07727-.839042-.030091-.145279-.064331-.30774-.064331-.439606-.025757-.256103-.077271-.512238-.124451-.770256-.03009-.143333-.055908-.28093-.085998-.44339-.047181-.258018-.098694-.514152-.184449-.770256-.025757-.145256-.04718-.258018-.103088-.395622-.077271-.305824-.184631-.582939-.261719-.888764-.025757-.087906-.047424-.16246-.081665-.25801-.270386-.770234-.579346-1.515625-.922729-2.241929-.030091-.074524-.077332-.143341-.098755-.187294-.163269-.300056-.31781-.582939-.472229-.882995-.060181-.087937-.103028-.162461-.133118-.238922-.163025-.280968-.30896-.556168-.497986-.812302-.055664-.076431-.098511-.145248-.128601-.233154-.189026-.280968-.399231-.556198-.575256-.84478-.030152-.043953-.077332-.087937-.107178-.143364-.995972-1.353165-2.150635-2.593598-3.459656-3.715515-.025757-.024826-.04718-.049683-.07727-.074524-.309204-.256104-.605408-.5065-.918701-.751129-.030091-.024857-.051514-.043961-.085694-.068818-.339111-.25801-.674011-.514114-1.021728-.745391-4.146424-2.82486-9.309998-4.508683-14.950135-4.508683-13.580932.017212-24.569335 9.820107-24.569335 21.901261m-10.305939 0c0-12.870507 8.842102-23.919571 21.371429-28.634659 1.811524-.67659 3.700196-1.215576 5.670227-1.609299 2.519776-.514129 5.133728-.795089 7.842285-.795089 2.699646 0 5.32251.28096 7.842041.795089 1.940125.393723 3.858643.938446 5.661561 1.609299 12.537963 4.715088 21.375976 15.764152 21.375976 28.634659 0 17.121155-15.62439 31.061966-34.866821 31.061966-19.276917-.005738-34.896698-13.946549-34.896698-31.061966m68.96933-36.650528h7.928039v-7.377503h-7.928039zm-53.293702-11.093018h64.827271v17.493851h-31.784729c-4.270935-1.56723-8.941101-2.4254-13.842896-2.4254-4.906189 0-9.576355.865814-13.847229 2.4254h-31.806213v-3.48233l.442108-7.880173c.077301-1.339783 13.988831-5.554154 15.169251-5.611481l10.863922-.519867zm63.020081-6.987594h-87.666656c-1.000306 0-1.807221.726272-1.807221 1.615005v3.732727h91.289551v-3.732727c0-.888733-.815369-1.615005-1.815674-1.615005m-7.138184 54.73114c0 18.004181-16.469604 32.673156-36.686584 32.673156-20.221314 0-36.690949-14.668975-36.690949-32.673156 0-12.306694 7.687684-23.078614 19.045258-28.634659h-28.011871v76.255859c6.89328 1.779389 21.208404 4.441788 45.661895 4.441788 24.440491 0 38.755555-2.64328 45.657532-4.441788v-76.255859h-28.011841c11.327698 5.556045 19.03656 16.303131 19.03656 28.634659m-58.29425-34.804245h-24.049896v-12.939301h25.260406v11.83841c-.004333.61351-.553833 1.100891-1.21051 1.100891m21.611999 87.924179c24.31189 0 38.575196-2.541992 45.657532-4.365341v9.319351c0 .882995-.815368 1.616943-1.807007 1.616943h-87.696746c-1.000306 0-1.807221-.726288-1.807221-1.616943v-9.319351c7.082306 1.829086 21.315765 4.365341 45.653442 4.365341" fill="#fff"/><path d="m578.64209 184.257751h-87.696961c-2.021576 0-3.669891-1.565338-3.669891-3.488067l-.004333-111.190079c0-1.922745 1.643981-3.488052 3.670105-3.488052h87.666656c2.034546 0 3.678528 1.565307 3.678528 3.488052l.025757 111.190079c0 1.922729-1.643982 3.488067-3.669861 3.488067zm-87.632446-3.749908 87.572265.005722v-6.689438c-8.228332 1.873047-22.071228 3.858856-43.794678 3.858856-21.736511 0-35.562042-1.980072-43.781921-3.858856v6.683716zm-.013001-11.654938c6.932282 1.645615 20.920868 4.032791 43.790588 4.032791 23.019715 0 36.922791-2.379531 43.794678-4.027053v-72.924515h-19.439941c8.889526 6.494476 14.190368 16.276359 14.190368 26.761612 0 19.043884-17.293884 34.538559-38.549438 34.538559-21.255615 0-38.553803-15.494675-38.553803-34.538559 0-10.490982 5.301056-20.272843 14.190369-26.761612h-19.422821zm43.799255-75.325073c-2.502441 0-5.013549.258011-7.468811.758774-1.871521.376526-3.678527.888733-5.395446 1.529022-12.241822 4.602325-20.152497 15.154472-20.152497 26.880112 0 16.094818 14.808564 29.190826 33.020844 29.190826 18.203857 0 33.003967-13.096008 33.003967-29.190826 0-11.72564-7.91095-22.277787-20.161133-26.880112-1.686828-.632629-3.502502-1.146759-5.378357-1.529022-2.476684-.5065-4.987793-.758774-7.468567-.758774zm14.164612-2.954819h29.591492v-2.656662h-11.542236v-11.091095h-50.752686v9.971085c-.021484 1.647522-1.407776 2.968201-3.081848 2.968201h-22.178589v.808471h29.612976c4.523987-1.609298 9.288574-2.423492 14.173279-2.423492 4.901794 0 9.666382.814194 14.177612 2.423492zm-57.796509-4.546936h21.35022v-9.049835l-7.683349.368866c-1.437836.194931-12.833466-.236923-15.164216 1.097153zm79.58014-1.84819h4.193664v-3.639038h-4.193664zm-79.747498-7.352631v1.141007c.764069-.338272 1.708496-.714798 2.875916-1.141007zm0-5.380249h87.555359v-1.595901l-87.555359-.013397zm43.764832 74.979157c-14.563904 0-26.410767-10.645798-26.410767-23.728424 0-13.090317 11.859619-23.749451 26.43219-23.762848 5.828918 0 11.361877 1.666641 15.99762 4.829788.321899.21788.652343.46254.978576.707169l.24469.194946c.231873.173935.450806.355514.673767.537079l.416565.351684c1.407776 1.215561 2.652527 2.549637 3.704102 3.988793l.193359.275223c.059937.101303.154358.22554.244629.357444.107178.145241.201599.288582.300293.431923l.150269.263748c.180358.263756.32196.506493.463562.75113l.708191 1.309242c.038757.063041.107421.168175.154602.294327.373474.789344.712585 1.597824.987304 2.398643l.124512.426209c.03009.118522.072937.231285.107178.344024.047424.143357.090271.29435.133117.445343.055909.16819.090088.313439.128846.475899.08142.275223.137268.550453.193115.819946l.03009.150986c.012757.087906.03009.168198.042908.242714l.021423.107033c.060181.300064.120117.621154.154602.926979l.004273.200676c.008484 0 .017151.04969.029907.087913l.111694 1.196465c.012818.09938.021485.21215.030152.32492l.004089.150994c.021667.382255.043091.756866.043091 1.144836 0 .445336-.025757.896378-.04718 1.316849-.008667.11277-.017334.217903-.030152.319191l-.004272.124245c-.017151.214058-.038574.439598-.064331.651748l-.013001.175812c-.008423.250404-.051513.481644-.094421.693802-.021423.095581-.034424.194961-.04718.294342-.01709.145256-.042847.282883-.072937.426224-.021485.137603-.04718.263756-.068665.382263l-.055847.269485c-.051514.231247-.107422.464432-.167358.695671-.021424.099411-.051514.187333-.077271.280961l-.021484.093658c-.094361.395645-.193116.733948-.30481 1.039749l-.068664.214066c-.352051 1.026321-.678101 1.809967-1.042908 2.536239l-.562317 1.058853c-.068848.156708-.146118.294312-.219116.393723-.167359.300064-.334717.577209-.532166.877258-.055847.093643-.120178.187332-.188781.28096-.184693.282853-.360474.558075-.570984.833313-.051514.068818-.107361.137635-.162964.200684-1.017456 1.383759-2.240723 2.692993-3.657105 3.927658-.047241.049698-.103088.099381-.158935.143356-.274536.244645-.626587.531342-.978638.795105-.416382.343994-.849792.651703-1.19751.882996-4.640075 3.174606-10.17279 4.846985-15.988952 4.846985zm.021423-43.7509c-12.52063.011489-22.702148 8.992523-22.702148 20.022476 0 11.022278 10.177124 19.989959 22.672058 19.989959 5.069397 0 9.872497-1.446838 13.902832-4.183776.296203-.200653.618164-.426194.888549-.644089l.060242-.057327c.317627-.237.579346-.45105.824036-.663208l.14154-.131897c1.257752-1.089417 2.32666-2.236176 3.176453-3.407792l.115845-.143341c.180359-.244628.334961-.489288.497986-.739669l.163024-.212143c.180359-.28862.313294-.519852.446473-.756882l.536499-.995758c.047241-.120422.103088-.21405.145935-.27713.27478-.556183.536499-1.18309.802612-1.959046l.085937-.275238c.077332-.208313.141602-.43386.188782-.65937.030152-.11277.055908-.212151.085999-.319176l.059936-.242752c.051575-.150993.085999-.301971.116089-.445312l.038513-.214066c.01709-.074547.038514-.149071.042908-.237007l.017273-.099381c.017151-.101295.034241-.194938.047241-.294319.021424-.156723.04718-.313484.077271-.470207.008484-.043945.021423-.093636.029846-.137596l.025818-.370789c.013-.16246.034424-.32492.051513-.487381.004334-.11277.013001-.214058.021424-.313438l.004333-.126152c.021424-.355492.051575-.732018.051575-1.108536 0-.319183-.021484-.624977-.038574-.938415l-.013001-.300072c-.012756-.095581-.021423-.189232-.025757-.282875l-.06427-.688057c-.030151-.175835-.064575-.363136-.072998-.571457-.025756-.181595-.06018-.363144-.094421-.537071l-.017273-.101296c-.025818-.124244-.047241-.250389-.068665-.388-.034179-.187294-.06427-.34401-.111511-.495026l-.064514-.256111c-.008423-.038216-.012756-.074516-.03009-.11277l-.04718-.16246c-.029908-.112732-.064331-.219773-.098755-.32679-.055603-.173943-.107178-.349785-.154358-.531342l-.064514-.214065c-.218933-.613533-.497742-1.301583-.824036-1.978173l-.081665-.143333-.420654-.789383c-.064331-.101288-.137268-.214058-.197266-.357399l-.03009-.043961c-.098694-.170089-.189026-.338302-.300537-.49501-.06427-.074532-.171692-.21981-.270386-.426224-.047241-.068779-.098755-.143333-.145935-.21215-.107422-.150994-.218872-.307701-.317627-.45678-.034424-.043953-.081604-.107033-.124512-.181595-.892883-1.204078-1.940124-2.318351-3.124878-3.333229l-.32196-.280975c-.188782-.156723-.381958-.319168-.58374-.470169l-.205872-.16246c-.266113-.206406-.545166-.412842-.819946-.602036-4.004822-2.754135-8.812256-4.200973-13.881409-4.200973z"/><path d="m466.996399 33.870483c-10.878937 2.49675-19.871185 9.195725-24.888641 18.541321-5.017456 9.345612-5.623536 20.524735-1.677521 30.941437" fill="none" stroke="#fff" stroke-linejoin="round" stroke-width="8.895148"/><path d="m472.040497 53.16391c-5.491211 1.260254-10.030091 4.641525-12.562683 9.35881-2.532593 4.717285-2.838532 10.360001-.846741 15.617859" fill="none" stroke="#fff" stroke-linejoin="round" stroke-width="8.895148"/><path d="m464.210846 13.361908c-17.205994 3.948807-31.428009 14.543793-39.363556 29.324676-7.935516 14.7809-8.894104 32.461594-2.653168 48.936509" fill="none" stroke="#fff" stroke-linejoin="round" stroke-width="8.895148"/><path d="m502.434692 181.496796c.503785-1.928589 2.473481-3.082993 4.399292-2.578507 1.925904.504502 3.078675 2.476883 2.574921 4.405411-.116882.447845-.318817.868912-.594604 1.24028"/><path d="m523.466553 188.483841c-.101502-1.990906 1.427978-3.687164 3.416015-3.788773 1.988099-.101623 3.682007 1.429963 3.783448 3.420792.023681.46225-.041809.924728-.192688 1.362183"/><path d="m552.666687 191.267609c-.503967-1.928543.885681-3.576691 2.811462-4.08133 1.925843-.504669 3.895508.649613 4.399476 2.578095.117126.447754.181213 1.377991.122375 1.837036"/><path d="m506.831726 182.021912c.290894-2.302765-11.145172 3.966156-11.442383 13.873657-6.139801.088837-8.346039 3.914245-2.03424 4.400085 6.31192.48584 6.475128-.745575 3.82431-3.422302.501037-11.41983 9.361358-12.549179 9.652313-14.851501z" fill="url(#X)" stroke="url(#Y)" stroke-linecap="round" stroke-linejoin="round" stroke-width=".644859"/><path d="m527.479675 187.28653c-.16217-2.528779-6.244079 4.718643-6.538818 14.627594-6.087341.088836-8.27478 3.914764-2.016846 4.400665 6.257935.485916 6.4198-.745728 3.791687-3.422821.496765-11.421478 4.926087-13.076813 4.763977-15.605438z" fill="url(#Z)" stroke="url(#aa)" stroke-linecap="round" stroke-linejoin="round" stroke-width=".642145"/><path d="m556.905151 189.157394c-1.320129-1.469223-7.249633 6.06456-4.627258 14.50969-6.139709.088836-8.345947 3.914245-2.03418 4.400085 6.31189.48584 6.315857-1.543152 3.665039-4.219879-3.037048-11.823578 4.316468-13.220978 2.996399-14.690765z" fill="url(#ab)" stroke="url(#ac)" stroke-linecap="round" stroke-linejoin="round" stroke-width=".644859"/></svg>