<svg height="744" viewBox="0 0 1500 744" width="1500" xmlns="http://www.w3.org/2000/svg" xmlns:xlink="http://www.w3.org/1999/xlink"><linearGradient id="a"><stop offset=".00001" stop-color="#fff"/><stop offset="1" stop-color="#e1e1e1"/></linearGradient><radialGradient id="b" cx="705.337781" cy="324.165398" gradientUnits="userSpaceOnUse" r="204.287377" xlink:href="#a"/><radialGradient id="c" cx="722.156266" cy="398.603402" gradientUnits="userSpaceOnUse" r="109.728371" xlink:href="#a"/><radialGradient id="d" cx="688.52796" cy="399.15398" gradientUnits="userSpaceOnUse" r="109.728371" xlink:href="#a"/><radialGradient id="e" cx="737.509921" cy="440.578679" gradientUnits="userSpaceOnUse" r="181.769149" xlink:href="#a"/><radialGradient id="f" cx="673.172765" cy="441.129258" gradientUnits="userSpaceOnUse" r="181.769149" xlink:href="#a"/><radialGradient id="g" cx="753.346224" cy="486.257095" gradientUnits="userSpaceOnUse" r="240.307766" xlink:href="#a"/><radialGradient id="h" cx="657.344162" cy="486.807673" gradientUnits="userSpaceOnUse" r="240.307766" xlink:href="#a"/><filter id="i" color-interpolation-filters="sRGB" filterUnits="userSpaceOnUse" height="744" width="1500" x="0" y="0"><feGaussianBlur stdDeviation="1.531568"/></filter><filter id="j" color-interpolation-filters="sRGB" filterUnits="userSpaceOnUse" height="744" width="1500" x="0" y="0"><feGaussianBlur stdDeviation="1.458919"/></filter><filter id="k" color-interpolation-filters="sRGB" filterUnits="userSpaceOnUse" height="744" width="1500" x="0" y="0"><feGaussianBlur stdDeviation="1.01991"/></filter><path d="m705.466553 239.011597c-80.451905.3031-160.769287 30.425232-222.3125 90.28125l55.906189 55.281219c92.256408-89.610626 240.745544-90.14151 333.656189-1.15625l55.781311-55.81253c-62.010498-59.390503-142.579407-88.896851-223.031189-88.59375zm-166.406311 145.562469-.125.093689z"/><path d="m705.372742 121.011597c-110.945191.418029-221.723999 41.957031-306.593689 124.5l55.468689 54.84375c138.941528-134.555115 362.262451-135.238526 502.031311-1.375l56.656189-55.78125c-85.513977-81.901001-196.617249-122.60553-307.5625-122.1875zm-251.125 179.34375-.5625.53125z"/><path d="m705.341553 356.511597c-50.088013.18872-100.121765 18.95343-138.4375 56.218719l53.4375 52.8125c47.181335-45.821289 123.111694-46.068298 170.625-.5625l53.219238-53.3125c-38.606628-36.975433-88.755798-55.34494-138.84375-55.156219zm-85 109.031219-.062989.0625z"/><path d="m650.44696 605.713745c-30.633117-30.634399-30.657714-80.293579-.055053-110.958343 30.602722-30.664765 80.261841-30.740754 110.958252-.1698 30.69635 30.571014 30.82373 80.230072.284485 110.957977-30.539185 30.727966-80.19806 30.906677-110.957642.399292l55.277832-55.73706z"/><path d="m320.648285 433.449036c-45.970001-24.879731-77.181809-73.542023-77.181809-129.434052 0-54.14682 29.267228-101.462921 72.844101-126.990753" fill="none" stroke="#000" stroke-linecap="round" stroke-linejoin="round" stroke-width="4.904181"/><path d="m467.73233 178.719421c41.981324 25.926575 70.002106 72.345337 70.002106 125.295563 0 54.695313-29.915436 102.510224-74.29007 127.838532" fill="none" stroke="#000" stroke-linecap="round" stroke-linejoin="round" stroke-width="4.904181"/><path d="m298.276337 474.502411c-60.680405-32.841278-101.879959-97.07547-101.879959-170.852997 0-71.473755 38.632721-133.931091 96.15419-167.627747" fill="none" stroke="#000" stroke-linecap="round" stroke-linejoin="round" stroke-width="6.473519"/><path d="m492.427277 138.259338c55.415374 34.223084 92.40274 95.495789 92.40274 165.390076 0 72.197846-39.488342 135.313538-98.062836 168.746887" fill="none" stroke="#000" stroke-linecap="round" stroke-linejoin="round" stroke-width="6.473519"/><path d="m275.299988 516.480469c-75.753952-40.999329-127.187851-121.189881-127.187851-213.294403 0-89.228485 48.229431-167.200775 120.039749-209.268036" fill="none" stroke="#000" stroke-linecap="round" stroke-linejoin="round" stroke-width="8.0816"/><path d="m517.67981 96.711548c69.181091 42.724426 115.356445 119.217834 115.356445 206.474518 0 90.132446-49.297608 168.926635-122.422577 210.66513" fill="none" stroke="#000" stroke-linecap="round" stroke-linejoin="round" stroke-width="8.0816"/><path d="m393.053497 301.654663-.053497 280.345337" fill="none" stroke="#000" stroke-linecap="round" stroke-width="24.929501"/><path d="m430.447754 301.654663c0 20.652344-16.741913 37.394226-37.394257 37.394226-20.652343 0-37.394226-16.741882-37.394226-37.394226 0-20.652222 16.741883-37.394287 37.394226-37.394287 20.652344 0 37.394257 16.742065 37.394257 37.394287z" fill-rule="evenodd"/><path d="m455.588074 373.990295 181.76355-276.901184h-364.121369z" fill="none"/><path d="m697.892822 372.599518c0 134.011078-108.606689 242.607147-242.607177 242.607147-134.000489 0-242.650391-108.596069-242.650391-242.607147 0-134.000549 108.649902-242.650543 242.650391-242.650543 134.000488 0 242.607177 108.649994 242.607177 242.650543z" fill="none" stroke="#d40000" stroke-linecap="round" stroke-linejoin="round" stroke-width="41.679947"/><path d="m620.728577 372.599518c0 91.346283-74.09668 165.442779-165.442932 165.442779-91.389527 0-165.475342-74.096496-165.475342-165.442779 0-91.389496 74.085815-165.475495 165.475342-165.475495 91.346252 0 165.442932 74.085999 165.442932 165.475495z" fill="none" stroke="#d40000" stroke-linecap="round" stroke-linejoin="round" stroke-width="28.42061"/><path d="m557.476379 372.599518c0 56.414886-45.775756 102.190735-102.190734 102.190735-56.447419 0-102.190796-45.775849-102.190796-102.190735 0-56.447571 45.743377-102.190918 102.190796-102.190918 56.414978 0 102.190734 45.743347 102.190734 102.190918z" fill="none" stroke="#d40000" stroke-linecap="round" stroke-linejoin="round" stroke-width="17.552313"/><path d="m511.236176 372.599518c0 30.934631-25.02652 55.993622-55.950531 55.993622-30.924012 0-55.983002-25.058991-55.983002-55.993622 0-30.924103 25.05899-56.026306 55.983002-56.026306 30.924011 0 55.950531 25.102203 55.950531 56.026306z" fill="none" stroke="#d40000" stroke-linecap="round" stroke-linejoin="round" stroke-width="9.618449"/><path d="m455.588074 374.292755 181.76355 276.911957h-364.121369z" fill="none"/><path d="m379.778381 635.223694 74.932557-237.958771 86.665588 237.958771" fill="none" stroke="#000" stroke-width="16.30319"/><path d="m483.217499 374.292755c0 15.186524-12.313507 27.510803-27.510681 27.510803-15.143494 0-27.467743-12.324279-27.467743-27.510803 0-15.154205 12.324249-27.467651 27.467743-27.467651 15.197174 0 27.510681 12.313446 27.510681 27.467651z" fill="#d40000" fill-rule="evenodd"/><path d="m438.266998 465.927277 47.44748 13.911956-69.706452 47.388489 94.718323 25.070801-117.021393 47.447388 139.324524 13.911926" fill="none" stroke="#000" stroke-linejoin="bevel" stroke-width="16.30319"/><path d="m821.279968 107.780029-1.599304 1.111573c-112.629944 79.380004-142.789978 238.619995-67.54895 356.679992 19.125976 30.012024 43.234009 54.496033 70.42395 73.061035l21.77002-34.630004c-22.830017-15.590027-43.059998-36.150025-59.119996-61.350037-63.164001-99.119995-37.841003-232.799988 56.720032-299.440003l1.346802-.936096-21.997009-34.48999zm275.580017.979981-22.234985 34.328979c21.869019 15.381043 41.282959 35.377014 56.787964 59.707032 63.520996 99.675964 37.520996 234.179992-58.07898 300.409973l21.983033 34.490051c113.869995-78.888001 144.839965-239.080017 69.174926-357.800049-18.466919-28.979004-41.585937-52.809936-67.631958-71.130005z" fill="#4a0" fill-rule="evenodd" stroke="#f3f3f3" stroke-linejoin="round" stroke-width=".45839"/><path d="m864.619995 175.910034-1.093506.760071c-77.012024 54.274963-97.628967 163.149963-46.185974 243.880005 13.076965 20.519958 29.560974 37.260986 48.151978 49.954956l14.887024-23.682007c-15.619996-10.669983-29.460022-24.72998-40.440003-41.949951-43.179993-67.77002-25.869995-159.180054 38.789978-204.740051l.920838-.640015-15.039978-23.582031zm188.429932.670044-15.203003 23.471985c14.953003 10.515991 28.227051 24.189026 38.829101 40.824036 43.432007 68.153015 25.654908 160.119995-39.711059 205.399963l15.031006 23.582031c77.859008-53.939026 99.031006-163.470031 47.297973-244.650024-12.626953-19.813965-28.43396-36.107971-46.24292-48.63501z" fill="#4a0" fill-rule="evenodd" stroke="#f3f3f3" stroke-linejoin="round" stroke-width=".31342"/><path d="m900.309998 232.02002-.677002.47052c-47.677979 33.601013-60.440979 101.010009-28.592957 150.980041 8.095886 12.70398 18.300964 23.067993 29.809998 30.927002l9.216308-14.662048c-9.661926-6.597657-18.228027-15.302979-25.024048-25.96698-26.737976-41.955994-16.018982-98.544007 24.009034-126.75l.570068-.396241-9.311279-14.600036zm116.649963.414794-9.412293 14.532044c9.257142 6.510559 17.475037 14.974975 24.038025 25.273987 26.88794 42.192993 15.881958 99.127014-24.585022 127.159973l9.30542 14.600036c48.201966-33.393005 61.309021-101.200012 29.282044-151.460021-7.817261-12.266968-17.603028-22.354004-28.629029-30.109986z" fill="#4a0" fill-rule="evenodd" stroke="#f3f3f3" stroke-linejoin="round" stroke-width=".19404"/><path d="m926.650024 273.429993-.369567.256897c-26.026001 18.34198-32.992981 55.135986-15.607972 82.415954 4.419312 6.934754 9.989991 12.592041 16.273011 16.882019l5.030883-8.003296c-5.274108-3.601501-9.950134-8.353393-13.660034-14.174987-14.59497-22.903016-8.744079-53.791993 13.106018-69.190979l.311219-.216309-5.082825-7.969604zm63.677002.226501-5.137939 7.932373c5.053223 3.553894 9.539246 8.1745 13.122009 13.796021 14.67804 23.031982 8.6698 54.110962-13.419983 69.414001l5.079529 7.969605c26.311951-18.228028 33.46698-55.243042 15.983948-82.676026-4.267151-6.695984-9.60907-12.203003-15.627991-16.435974z" fill="#4a0" fill-rule="evenodd" stroke="#f3f3f3" stroke-linejoin="round" stroke-width=".10592"/><path d="m959.709961 304c-3.334961-.026672-6.720825.943848-9.707764 3.013123l-.112182.087768c-7.87854 5.552429-9.976441 16.68103-4.713623 24.939026 2.053588 3.222473 4.921569 5.529968 8.136596 6.830811-3.592651 51.211944-14.836059 216.039978-11.041015 220.559997h31.424011l-8.93634-220.150024c1.525817-.498719 3.020263-1.224976 4.419067-2.19397 7.965088-5.518005 10.131958-16.722046 4.839844-25.027039-3.307679-5.190368-8.750855-8.01477-14.30896-8.059387z" fill="#250" stroke="#000" stroke-width=".45839"/><path d="m952.296021 543.700012c0 32.195984-26.100037 58.29596-58.296021 58.29596s-58.296021-26.099976-58.296021-58.29596 26.100037-58.29599 58.296021-58.29599 58.296021 26.100006 58.296021 58.29599z"/><path d="m809.259033 473.660004c25.324951-17.623017 55.487-26.119019 84.742981-26.119019 31.179016 0 60.604004 9.143005 84.77301 26.058014l10.614991-18.386993c-27.419983-18.726014-60.465027-28.861023-95.388977-28.861023-34.926026 0-67.97406 10.135009-95.392029 28.864013l10.661011 18.449982z"/><path d="m781.257019 425.160004c33.893982-22.81601 73.916992-33.794007 112.73999-33.794007 38.828003 0 78.848999 10.977997 112.739991 33.794007l10.631958-18.415009c-35.609986-23.766998-78.309937-36.570007-123.369996-36.570007-45.064941 0-87.763977 12.805023-123.369934 36.571991l10.626953 18.420013z"/><path d="m753.291016 376.718994c42.448974-28.023987 92.309021-41.526977 140.710022-41.526977 48.395996 0 98.257995 13.50299 140.710022 41.526977l10.609985-18.376984c-43.800049-28.817016-96.120056-44.34201-151.320007-44.34201-55.204041 0-107.53003 15.524994-151.320008 44.343018l10.610962 18.375976z"/><path d="m705.34906 298.619232c-8.501282 0-15.400818 6.899567-15.400818 15.400788 0 8.501251 6.899536 15.400817 15.400818 15.400817 8.501221 0 15.400757-6.899566 15.400757-15.400817 0-8.501221-6.899536-15.400788-15.400757-15.400788zm0 31.991303v185.691345z" fill="none" stroke="url(#b)" stroke-linecap="round" stroke-width="12.486968"/><path d="m720.607361 274.438446c14.345886-.669922 26.346924 16.270935 26.793579 37.816681.446594 21.549561-10.834473 39.580048-25.176453 40.246124-.257995.015412-.477478.019257-.739258.019257" fill="none" stroke="url(#c)" stroke-linecap="round" stroke-width="12.70566"/><path d="m690.075317 274.985168c-14.342041-.666076-26.346923 16.274811-26.789734 37.820496-.446594 21.545715 10.830628 39.576233 25.176453 40.246155.257996.015411.477478.019256.735413.019256" fill="none" stroke="url(#d)" stroke-linecap="round" stroke-width="12.70566"/><path d="m734.957092 255.195129c23.763428-1.001037 43.645874 24.29477 44.385132 56.463196.739197 32.168427-17.945801 59.085175-41.709228 60.086212-.427369.019257-.789307.026947-1.22052.026947" fill="none" stroke="url(#e)" stroke-linecap="round" stroke-width="12.70566"/><path d="m675.725586 255.745728c-23.759583-1.001069-43.645874 24.294738-44.385071 56.463165-.739258 32.168426 17.949646 59.085174 41.709229 60.086212.431213.019287.79309.026947 1.22052.026947" fill="none" stroke="url(#f)" stroke-linecap="round" stroke-width="12.70566"/><path d="m749.968994 232.656067c31.413819-1.370667 57.702942 33.234924 58.677063 77.235016.977966 44.003937-23.724914 80.82724-55.138733 82.194061-.569824.026947-1.047241.038483-1.617065.038483" fill="none" stroke="url(#g)" stroke-linecap="round" stroke-width="12.70566"/><path d="m660.717529 233.206635c-31.413818-1.370697-57.702942 33.231109-58.680908 77.235015-.974121 44.003937 23.72876 80.827271 55.142578 82.194062.565979.023101 1.047241.034668 1.61322.038513" fill="none" stroke="url(#h)" stroke-linecap="round" stroke-width="12.70566"/><path d="m933.144836 143.621216c97.606995-19.247437 198.371643 11.608398 268.465882 82.208557 70.854614 71.366058 100.822998 173.716949 79.650024 272.028534" fill="none" stroke="#505050" stroke-linecap="round" stroke-linejoin="round" stroke-width="51.064369"/><path d="m955.847046 255.012207c60.076782-11.600098 121.984375 7.490723 165.09375 50.911377 43.871582 44.188293 62.355469 107.601593 49.098022 168.441833" fill="none" stroke="#505050" stroke-linecap="round" stroke-linejoin="round" stroke-width="31.537624"/><path d="m972.41803 336.328522c32.679321-6.02649 66.226501 4.472931 89.639221 28.054565 24.174805 24.349457 34.272949 59.340424 26.788696 92.826294" fill="none" stroke="#505050" stroke-linecap="round" stroke-linejoin="round" stroke-width="17.281837"/><path d="m1010.212158 418.244965c10.066345 10.139038 10.007569 26.519043-.13147 36.585479-10.13916 10.066468-26.519165 10.007386-36.585571-.131652-10.066345-10.139008-10.007446-26.518891.131653-36.585389 10.139099-10.066406 26.518982-10.007476 36.585388.131562z" fill="#f0f0f0" fill-opacity=".992157" fill-rule="evenodd" stroke="#505050" stroke-width="6.503194"/><path d="m333.063324 369.453949c7.939178 0 14.360382 6.421417 14.360382 14.360718v204.219879c0 7.939331-6.420715 14.360351-14.360382 14.360351-7.920898 0-14.360809-6.420654-14.360809-14.360351v-204.219879c0-7.939301 6.440399-14.360718 14.360809-14.360718" fill="#7d7d7d" fill-rule="evenodd" stroke="#7d7d7d" stroke-linejoin="round" stroke-width="4.921435"/><path d="m396.884369 450.480408c8.881409-5.843476 14.341583-15.667847 14.610748-26.29892.285462-10.611847-4.652771-20.704742-13.207153-27.010467" fill="none" stroke="#00c700" stroke-width="14.764306"/><path d="m448.382324 465.441528c12.245178-11.26535 19.070801-27.221435 18.801392-43.851959-.285462-16.628937-7.650574-32.354584-20.262451-43.198334" fill="none" stroke="#00c700" stroke-width="14.764306"/><path d="m497.399841 483.001312c25.914185-37.429718 25.780091-87.066162-.364288-124.362732" fill="none" stroke="#00c700" stroke-width="14.764306"/><path d="m550.944946 501.348419c27.644654-51.021545 28.836548-112.287536 3.19104-164.348419" fill="none" stroke="#00c700" stroke-width="14.764306"/><path d="m862.514465 434.68396c-3.083007-10.394836-8.184936-31.402802-24.554809-31.402802-16.369812 0-21.826477 20.95337-24.55481 31.402802l-43.652893 146.592102c13.641541 20.95343 122.773926 20.95343 136.169861 0z" fill="#3d7ca6"/><path d="m859.567871 354.144318c0 11.295196-9.139831 20.46231-20.462341 20.46231-11.295166 0-20.46228-9.167114-20.46228-20.46231 0-11.295227 9.167114-20.462342 20.46228-20.462342 11.32251 0 20.462341 9.167115 20.462341 20.462342z" fill="#3d7ca6"/><path d="m879.457214 322.359467s11.104248 11.377044 11.104248 33.012573m-11.104248 32.876129s11.104248-11.377045 11.104248-33.012543" fill="#3d7ca6" fill-rule="evenodd" stroke="#3d7ca6" stroke-linecap="round" stroke-width="17.379877"/><path d="m917.353455 289.401489s22.208435 22.781403 22.208435 66.052399m-22.208435 65.752289s22.208435-22.754151 22.208435-66.025147" fill="#3d7ca6" fill-rule="evenodd" stroke="#3d7ca6" stroke-linecap="round" stroke-width="17.379877"/><path d="m958.660034 256.470795s33.339966 34.131164 33.339966 99.037658m-33.339966 98.65564s33.339966-34.158386 33.339966-99.064911" fill="#3d7ca6" fill-rule="evenodd" stroke="#3d7ca6" stroke-linecap="round" stroke-width="17.379877"/><path d="m796.816772 322.359467s-11.104248 11.377044-11.104248 33.012573m11.104248 32.876129s-11.104248-11.377045-11.104248-33.012543" fill="#3d7ca6" fill-rule="evenodd" stroke="#3d7ca6" stroke-linecap="round" stroke-width="17.379877"/><path d="m760.093689 289.401489s-22.235718 22.781403-22.235718 66.052399m22.235718 65.752289s-22.235718-22.754151-22.235718-66.025147" fill="#3d7ca6" fill-rule="evenodd" stroke="#3d7ca6" stroke-linecap="round" stroke-width="17.379877"/><path d="m718.759827 256.470795s-33.312683 34.131164-33.312683 99.037658m33.312683 98.65564s-33.312683-34.158386-33.312683-99.064911" fill="#3d7ca6" fill-rule="evenodd" stroke="#3d7ca6" stroke-linecap="round" stroke-width="17.379877"/><path d="m1048.400024 138.50415c-1.271728-.009643-2.543823-.005798-3.82312.015198-81.880005 1.294006-148.25 60.848999-148.25 133.02002 0 64.553985 53.099976 117.329986 122.899964 126.829986l1.204895-6.857788c-66.071961-9.045502-116.309998-59.029999-116.309998-120.149994 0-68.379028 62.880005-124.799988 140.460022-126.029968 77.578003-1.226135 140.469971 53.215942 140.469971 121.599945 0 57.300018-44.156983 106.190033-104.119995 121.250031h-.014771c-.524902.131927-1.04956.274963-1.576904.401672l-37.531983-117.730042-.074462.401612 39.525024 123.990021c.603271-.144898 1.199707-.294953 1.800049-.44632 63.220947-15.937012 109.780029-67.509033 109.780029-127.950012 0-71.044007-64.332031-127.829956-144.440063-128.349976z" style="fill:#dc0000;stroke:#595e62;stroke-width:.12306;stroke-linecap:square;stroke-linejoin:bevel;opacity:.73171"/><path d="m1044.579956 175.992004c-58.228943.920227-105.429932 43.269959-105.429932 94.593995 0 45.906982 37.763001 83.444 87.402955 90.197021l.857177-4.881409c-46.986999-6.432495-82.718017-41.973999-82.718017-85.440002 0-48.627014 44.713989-88.748047 99.883056-89.619995 55.168946-.871887 99.891968 37.835998 99.891968 86.462982 0 41.108002-31.956055 76.13501-75.170044 86.513l-26.692016-83.717987-.054688.283509 28.113892 88.18103c45.611084-10.95401 79.345092-47.923004 79.345092-91.309998 0-51.324035-47.206054-92.182006-105.430053-91.262024z" style="fill:#dc0000;stroke:#595e62;stroke-width:.087513;stroke-linecap:square;stroke-linejoin:bevel;opacity:.73171"/><path d="m1044.579956 195.561035c-45.876953.725037-83.061951 34.09198-83.061951 74.527954 0 36.169007 29.752991 65.744019 68.862976 71.065003l.675538-3.845795c-37.019959-5.068207-65.171936-33.069977-65.171936-67.316009 0-38.311951 35.228942-69.922974 78.695983-70.609986 43.466919-.686951 78.703003 29.809998 78.703003 68.122009 0 32.388001-25.177002 59.984986-59.224975 68.161988l-21.03003-65.959992-.042846.223358 22.150024 69.476014c35.936035-8.630219 62.514038-37.757019 62.514038-71.942017 0-40.437012-37.192016-72.627991-83.070068-71.903015z" style="fill:#dc0000;stroke:#595e62;stroke-width:.06895;stroke-linecap:square;stroke-linejoin:bevel;opacity:.73171"/><path d="m1045.98999 220.530029c-.467651-.004028-.942627.007996-1.413208.015259-30.109985.47583-54.505005 22.372009-54.505005 48.911987 0 23.738007 19.524048 43.143006 45.192994 46.635987l.446411-2.513977c-24.297058-3.326294-42.783081-21.705017-42.783081-44.181 0-25.144989 23.122009-45.902008 51.649047-46.352997 28.527955-.450867 51.663941 19.571991 51.663941 44.71698 0 21.257019-16.524902 39.36499-38.870972 44.731995l-13.804931-43.289002-.03003.148743 14.533936 45.593994c23.585083-5.664093 41.028076-24.781006 41.028076-47.216003 0-26.125-23.646973-47.008973-53.107056-47.200989zm-3.659424 48.018982 39.436036 122.399994zm0 4.075867 39.436036 122.410034z" style="fill:#dc0000;stroke:#595e62;stroke-width:.045253;stroke-linecap:square;stroke-linejoin:bevel;opacity:.73171"/><path d="m999.97998 610.97998 49.466065-335.899963 73.464966 329.830017-109.660034-59.291015 85.152954-43.019013-72.82898-40.489014 59.060059-39.886993-49.137085-33.688019 30.414062-33.972992" fill="none" stroke="#234f72" stroke-width="8.0429"/><path d="m1066.808716 273.989197c.03479 6.824981-3.716431 13.145904-9.83252 16.568115-6.115967 3.42218-13.661255 3.42218-19.777343 0-6.115967-3.422211-9.867188-9.743134-9.83252-16.568115-.034668-6.824951 3.716553-13.145905 9.83252-16.568085 6.116088-3.422211 13.661376-3.422211 19.777343 0 6.116089 3.42218 9.86731 9.743134 9.83252 16.568085z" fill="#dc0000"/><path d="m393.984558 174c-41.161621 18.180237-41.161621 75.354858-.577545 95.297546" fill="none" filter="url(#i)" stroke="#fff" stroke-width="2.744416"/><path d="m409.993652 180.746704c-34.305206 22.870117-34.305206 57.175324 0 80.045471" fill="none" filter="url(#i)" stroke="#fff" stroke-width="3.201818"/><path d="m421.428711 189.894775c-22.870117 13.722046-27.444153 38.879212 0 59.462342" fill="none" filter="url(#i)" stroke="#fff" stroke-width="3.659221"/><path d="m433.961578 199.042847c-16.109039 9.499817-19.330749 26.915954 0 41.166198" fill="none" filter="url(#i)" stroke="#fff" stroke-width="4.116623"/><path d="m448.621338 208.190857c-7.796845 5.277832-9.356171 14.953674 0 22.870117" fill="none" filter="url(#i)" stroke="#fff" stroke-width="5.031429"/><path d="m542.32019 174c41.161744 18.180237 41.161744 75.354858.577637 95.297546" fill="none" filter="url(#i)" stroke="#fff" stroke-width="2.744416"/><path d="m526.311096 180.746704c34.305176 22.870117 34.305176 57.175324 0 80.045471" fill="none" filter="url(#i)" stroke="#fff" stroke-width="3.201818"/><path d="m514.876038 189.894775c22.870117 13.722046 27.444152 38.879212 0 59.462342" fill="none" filter="url(#i)" stroke="#fff" stroke-width="3.659221"/><path d="m502.320343 199.042847c16.109039 9.499817 19.330719 26.915954 0 41.166198" fill="none" filter="url(#i)" stroke="#fff" stroke-width="4.116623"/><path d="m487.683563 208.190857c7.796814 5.277832 9.356171 14.953674 0 22.870117" fill="none" filter="url(#i)" stroke="#fff" stroke-width="5.031429"/><path d="m469.204437 576.399963-2.287018-308.746765 77.758484 269.867554-77.758484-269.867554 77.758484 269.867554" fill="none" filter="url(#i)" stroke="#fff" stroke-linecap="round" stroke-width="8.004545"/><path d="m466.917419 267.653198-70.897399 272.154602" fill="none" filter="url(#i)" stroke="#fff" stroke-linecap="round" stroke-width="8.004545"/><path d="m405.168091 507.789612 64.036346 45.740234 66.323395-45.740234-66.323395-45.740265z" style="fill:none;stroke:#fff;stroke-width:4.574026;stroke-linecap:round;stroke-linejoin:round;filter:url(#i)"/><path d="m416.603149 466.623352 52.601288 32.018189 52.601288-34.305207-52.601288-36.592193z" style="fill:none;stroke:#fff;stroke-width:4.574026;stroke-linecap:round;stroke-linejoin:round;filter:url(#i)"/><path d="m425.75119 425.457123 43.453247 22.870148 41.16626-22.870148-43.453278-27.444153z" style="fill:none;stroke:#fff;stroke-width:4.574026;stroke-linecap:round;stroke-linejoin:round;filter:url(#i)"/><path d="m437.186279 384.290894 32.018158 18.296112 29.731171-22.870148-32.018189-13.722077z" style="fill:none;stroke:#fff;stroke-width:4.574026;stroke-linecap:round;stroke-linejoin:round;filter:url(#i)"/><path d="m446.33432 343.124664 22.870117 9.148041 18.296112-13.722076-20.58313-4.574036z" style="fill:none;stroke:#fff;stroke-width:4.574026;stroke-linecap:round;stroke-linejoin:round;filter:url(#i)"/><path d="m473.755585 222.504883c-.266053 5.039734-3.54596 8.837768-7.325745 8.482788-3.779968-.35492-6.628479-4.727966-6.362213-9.767578.266052-5.039734 3.545959-8.837586 7.325745-8.482605 3.683929.345581 6.501525 4.517151 6.375274 9.437988" fill="#fff" filter="url(#j)"/><path d="m466.91745 265.366211v-41.16626" fill="none" filter="url(#k)" stroke="#fff" stroke-width="3.045961"/><path d="m1179.078613 352.777039h.000122c11.209229 0 20.296021 12.180877 20.296021 27.206726v177.966003c0 15.025818-9.086792 27.206604-20.296021 27.206604h-.000122c-11.20935 0-20.296142-12.180786-20.296142-27.206604v-177.966003c0-15.025849 9.086792-27.206726 20.296142-27.206726z" stroke="#000" stroke-width="5.120994"/><path d="m1127.630249 248.820618c31.836426-18.380799 71.060425-18.380799 102.896851 0 31.836425 18.380676 51.448486 52.34967 51.448486 89.111267" fill="none" stroke="#000" stroke-width="22.058458"/><path d="m1092.431274 187.85614c53.617676-30.956177 119.677247-30.956177 173.2948 0 53.617676 30.956177 86.647461 88.165436 86.647461 150.077759" fill="none" stroke="#000" stroke-width="22.058458"/><path d="m1222.529419 337.938873c0 23.997193-19.453613 43.450745-43.450806 43.450745-23.99707 0-43.450561-19.453552-43.450561-43.450745 0-23.997192 19.453491-43.450744 43.450561-43.450744 23.997193 0 43.450806 19.453552 43.450806 43.450744z" stroke="#000" stroke-width="4.411692"/><path d="m1127.630249 427.043121c-23.633789-13.644897-40.879028-36.119506-47.942261-62.479522" fill="none" stroke="#000" stroke-width="22.058458"/><path d="m1092.431274 488.011658c-39.8031-22.980316-68.847107-60.831208-80.742553-105.225739" fill="none" stroke="#000" stroke-width="22.058458"/><g fill-rule="evenodd"><path d="m1041.03479 296.359253v.03482h-3.234741v-.03482z"/><path d="m1041.03479 296.411469-1.617432-.017396h1.617432z"/><path d="m1041.03479 296.411469c-.06958 4.282226-.991333 8.372985-2.608643 12.063354l-1.478271-.644073-1.478272-.644074c1.443482-3.324829 2.260865-6.980377 2.330445-10.809998l1.617309.017395z"/><path d="m1038.426147 308.474823c-1.617431 3.707764-3.913085 7.049988-6.747924 9.85257l-1.147827-1.166291-1.130372-1.148895c2.539063-2.506653 4.608643-5.500732 6.06958-8.825531l1.478272.644074z"/><path d="m1031.678223 318.327393c-2.834717 2.785186-6.208619 5.048156-9.93042 6.614837l-.626038-1.479645-.626098-1.497039c3.339111-1.410004 6.365173-3.446656 8.904357-5.953339l1.130372 1.148895z"/><path d="m1021.747803 324.94223c-3.739136 1.566651-7.82605 2.437042-12.121704 2.437042v-3.237793c3.860839 0 7.530395-.783325 10.869568-2.175933l.626098 1.497039z"/><path d="m1009.626099 327.379272c-4.330445 0-8.45221-.887786-12.20868-2.471862l.626038-1.49704.626099-1.479614c3.373901 1.427398 7.078247 2.210723 10.956543 2.210723z"/><path d="m997.417419 324.90741c-3.75653-1.584076-7.147827-3.899262-9.982666-6.736664l1.147828-1.148895 1.130493-1.13147c2.556518 2.541473 5.58258 4.612945 8.956482 6.040375l-.626099 1.479614z"/><path d="m987.434753 318.170746c-2.834777-2.837402-5.147827-6.231842-6.730407-9.991852l1.495666-.626678 1.478272-.626648c1.426086 3.359619 3.495605 6.405914 6.03479 8.964813l-1.130493 1.13147z"/><path d="m980.704346 308.178894c-1.582581-3.76001-2.469544-7.902954-2.469544-12.237427h3.234741c0 3.899262.782654 7.607056 2.208741 10.984101l-1.478272.626648z"/><path d="m978.234802 295.941467c0-4.334442.886963-8.477386 2.469544-12.237396l1.495666.626679 1.478272.644073c-1.426087 3.359619-2.208741 7.067413-2.208741 10.966644z"/><path d="m980.704346 283.704071c1.58258-3.76001 3.89563-7.137024 6.730407-9.991852l1.147828 1.148896 1.130493 1.148895c-2.539185 2.541473-4.608704 5.587768-6.03479 8.964813l-1.478272-.644073z"/><path d="m987.434753 273.712219c2.834839-2.837402 6.226136-5.135193 9.982666-6.719269l.626038 1.479645.626099 1.49704c-3.373902 1.427399-6.399964 3.498871-8.956482 6.040375l-1.130493-1.148895z"/><path d="m997.417419 266.99295c3.75647-1.584075 7.878235-2.471832 12.20868-2.471832v3.237763c-3.878296 0-7.582642.783355-10.956543 2.210754l-.626099-1.49704z"/><path d="m1009.626099 264.521118c4.330444 0 8.469543.887757 12.226074 2.471832l-.643494 1.49704-.626098 1.479645c-3.373902-1.427399-7.078248-2.210754-10.956482-2.210754z"/><path d="m1021.852173 266.99295c3.75647 1.584076 7.130493 3.899262 9.982666 6.736695l-1.147827 1.148865-1.147827 1.1315c-2.556519-2.541504-5.582642-4.612976-8.956604-6.040375l.626098-1.479645z"/><path d="m1031.834839 273.729645c2.834717 2.837402 5.130371 6.231842 6.730347 9.991852l-1.495606.626648-1.478271.626678c-1.426148-3.377045-3.495606-6.405945-6.052124-8.964813l1.147827-1.1315z"/><path d="m1038.565186 283.721497c1.582641 3.759979 2.469604 7.885528 2.469604 12.21997h-3.234741c0-3.881836-.782715-7.58963-2.20874-10.966644l1.478271-.626678z"/><path d="m1041.03479 295.941467v.104462h-3.234741v-.104462z"/><path d="m921.226074 544.675903h166.469605v15.718933h-166.469605z"/><path d="m950.704346 501.905945h111.913086v15.718872h-111.913086z"/><path d="m1062.617432 517.624817v-15.718872z"/><path d="m1062.617432 517.624817h-2.400025v-15.718872h2.400025z"/><path d="m1060.217407 501.905945v15.718872z"/><path d="m1060.217407 501.905945h5.391236v15.718872h-5.391236z"/><path d="m975.747803 459.15332h96.486938v15.718903h-96.486938z"/><path d="m1072.234741 474.872223v-15.718903z"/><path d="m1072.234741 474.872223h-29.460815v-15.718903h29.460815z"/><path d="m1108.652222 169.859619.312988.243714-1.96521 2.524047-1.96521 2.524109-.31311-.243713 1.965332-2.524048z"/><path d="m1109 170.120728-2 2.506652 1.96521-2.524047h.017456z"/><path d="m1109 170.120728c9.182617 7.311096 17.530396 15.631835 24.904297 24.770751l-2.486939 2.019288-2.486938 2.001831c-7.078247-8.773316-15.113037-16.745911-23.93042-23.778504l2-2.506714z"/><path d="m1133.904297 194.891479c7.374023 9.138917 13.773926 19.113343 19.008789 29.749268l-2.869629 1.427429-2.869507 1.409973c-5.026123-10.218139-11.165283-19.792236-18.24353-28.565551l2.486938-2.001831z"/><path d="m1152.913086 224.640747c5.252075 10.635925 9.339111 21.950745 12.121704 33.770355l-3.113037.73111-3.113037.73111c-2.678223-11.332215-6.591309-22.177033-11.634766-32.395173l2.869507-1.409973z"/><path d="m1165.03479 258.411102c2.782593 11.819641 4.260864 24.126679 4.260864 36.799256h-6.400024c0-12.15036-1.408692-23.987397-4.086914-35.337036l3.113037-.73111z"/><path d="m1169.295654 295.210358c0 14.430755-1.913086 28.4263-5.495605 41.725555l-3.095703-.835541-3.095703-.835571c3.443481-12.759613 5.286987-26.19812 5.286987-40.054443z"/><path d="m1163.800049 336.935913c-3.600098 13.299286-8.852173 25.919647-15.547852 37.617432l-2.765259-1.601502-2.782592-1.584076c6.417358-11.227752 11.478271-23.325927 14.904297-36.102966l3.095703.835571z"/><path d="m1148.252197 374.553345c-6.695678 11.680359-14.817383 22.455536-24.13916 32.047027l-2.295654-2.228149-2.295654-2.245545c8.956542-9.208526 16.747802-19.531127 23.182617-30.758911l2.782592 1.584076z"/><path d="m1124.113037 406.600372c-9.304321 9.591492-19.82605 18.016663-31.286987 25.049256l-1.669556-2.732972-1.669556-2.73294c11.008667-6.736664 21.095704-14.831116 30.034791-24.057038l2.295654 2.245545z"/><path d="m1018.704346 292.999634v.731109h-19.617371v-.731109z"/><path d="m1018.704346 293.730743c0 .626679 0 1.427399.017395 2.384827l-9.808716.052216-9.808655.052215c-.017395-.992218-.017395-1.827789-.017395-2.489258z"/><path d="m1018.721741 296.11557v3.42923h-19.617371v-3.324799l9.808655-.052215z"/><path d="m1018.721741 299.5448c0 2.315185-.017395 5.082977-.06958 8.28595l-9.808655-.174073-9.808716-.191498c.052185-3.06369.06958-5.709625.06958-7.920379z"/><path d="m1018.652161 307.83075c-.06958 3.220367-.17389 6.85852-.34784 10.897033l-9.791259-.43518-9.791321-.417786c.156494-3.847046.260864-7.328522.313049-10.409638l9.808716.191498z"/><path d="m1018.304321 318.727783c-.347778 8.059632-.973877 17.668518-2.104309 28.513336l-9.756531-1.027038-9.75653-1.027039c1.078247-10.392242 1.68695-19.600738 2.03479-27.312225l9.791321.417786z"/><path d="m996.686951 345.187042 9.75653 1.027039z"/><path d="m1016.200012 347.241119c-2.295654 21.672211-6.591308 48.235932-14.713074 76.975556l-9.443481-2.66333-9.426086-2.66333c7.75653-27.521119 11.878296-52.953339 14.06958-73.702973l9.75653 1.027039z"/><path d="m1001.486938 424.216675c-8.139099 28.844055-20.104309 59.864075-37.65216 90.344421l-8.504334-4.908874-8.486938-4.908875c16.678223-28.965942 28.034729-58.454101 35.773865-85.853332l9.426086 2.66333z"/><path d="m963.834778 514.561096c-17.617371 30.584839-40.869568 60.630005-71.513062 87.402588l-6.452148-7.398132-6.452149-7.398133c28.904297-25.240783 50.799988-53.580017 67.426087-82.424072l8.486938 4.908875z"/><path d="m1018.356506 292.634064v.731109h-19.61737v-.731109z"/><path d="m1018.356506 293.365173v2.489258l-9.808654-.052215-9.808716-.052216v-2.384827z"/><path d="m1018.356506 295.854431c-.017395.957428-.017395 2.071503-.017395 3.324829h-19.61737c0-1.288147 0-2.437042.017395-3.42926l9.808716.052216z"/><path d="m1018.339111 299.17926c0 2.210755.017395 4.856659.06958 7.92038l-9.808715.191467-9.808655.174072c-.052185-3.202972-.06958-5.970733-.06958-8.285919z"/><path d="m1018.408691 307.09964c.052185 3.081116.156556 6.562591.330445 10.409607l-9.808716.417785-9.79126.435181c-.17395-4.038513-.27832-7.676666-.347839-10.897034l9.808655-.174072z"/><path d="m1018.739136 317.509247c.330444 7.711487.939148 16.920013 2.017395 27.312225l-9.739136 1.027039-9.756531 1.027038c-1.147827-10.844818-1.773926-20.453705-2.121704-28.513336l9.79126-.435181z"/><path d="m1020.756531 344.821472c2.191284 20.749634 6.313049 46.181854 14.069519 73.702973l-9.426026 2.66333-9.443481 2.66333c-8.10437-28.739624-12.417419-55.303314-14.695679-76.975556l9.756531-1.027038z"/><path d="m1034.82605 418.524445c7.739136 27.399261 19.095703 56.88742 35.773926 85.853332l-8.486939 4.908905-8.504394 4.908875c-17.54773-30.480378-29.51294-61.500367-37.6521-90.344452l9.443481-2.66333z"/><path d="m1070.599976 504.377777c16.626098 28.844086 38.521728 57.183319 67.426147 82.424103l-6.45227 7.398132-6.452149 7.398133c-30.643433-26.772583-53.89563-56.817749-71.513061-87.402588l8.504394-4.908875z"/><path d="m1140.82605 148.135193.17395.156677-2.13916 2.384827-2.13916 2.384765-.173828-.156677 2.13916-2.384765z"/><path d="m1136.72168 153.061462 2.13916-2.384765z"/><path d="m1141 148.29187c20.086914 17.981812 36.452148 40.037048 47.808716 64.87738l-2.921753 1.322999-2.904297 1.340332c-10.973999-24.039612-26.817505-45.381104-46.260986-62.771119l2.13916-2.384765z"/><path d="m1188.808716 213.16925c11.339111 24.840394 17.669555 52.448517 17.669555 81.553711h-6.400024c0-28.147766-6.121704-54.868133-17.095581-78.89038l2.904297-1.340332z"/><path d="m1206.478271 294.722961c0 16.745942-2.10437 33.004456-6.03479 48.514435l-3.113037-.783325-3.095703-.800751c3.808716-15.005157 5.843506-30.72406 5.843506-46.930359z"/><path d="m1200.443481 343.237396c-3.947876 15.527405-9.739135 30.306305-17.130493 44.092987l-2.817383-1.514465-2.817382-1.514435c7.147827-13.334076 12.747924-27.625549 16.556518-42.648163l3.095703.800751z"/><path d="m1183.312988 387.330383c-7.391235 13.804047-16.382568 26.615906-26.713012 38.191834l-2.382569-2.141113-2.382568-2.123688c10-11.210388 18.695557-23.604462 25.843384-36.955933l2.817382 1.514435z"/><path d="m1156.599976 425.522217c-10.330445 11.575928-22.017334 21.915924-34.799927 30.776306l-1.826172-2.62851-1.82605-2.62854c12.382569-8.581848 23.687012-18.591095 33.687012-29.784057l2.382568 2.123688z"/><path d="m1088.652222 196.12738.243408.191529-1.982544 2.524048-1.982666 2.524108-.243408-.191528 1.982544-2.524048z"/><path d="m1088.913086 196.336304-2 2.506653 1.982544-2.524048v.017395z"/><path d="m1088.913086 196.336304c7.252075 5.779236 13.86084 12.359253 19.68689 19.583313l-2.486939 2.001892-2.486938 2.019226c-5.530396-6.858521-11.808716-13.090393-18.713013-18.591126l2-2.506652z"/><path d="m1108.599976 215.919617c5.843505 7.22406 10.886962 15.109619 15.043457 23.517425l-2.869507 1.410004-2.886963 1.427399c-3.93042-7.989991-8.730469-15.47519-14.260864-22.33371l2.486938-2.019226z"/><path d="m1123.643433 239.437042c4.13916 8.407776 7.373901 17.355194 9.582641 26.702973l-3.130371.731109-3.113037.73111c-2.087036-8.860382-5.147827-17.355194-9.095703-25.327789l2.886963-1.427399z"/><path d="m1133.226074 266.140015c2.191284 9.330352 3.356568 19.078491 3.356568 29.087768h-6.400025c0-9.504455-1.113037-18.765198-3.199951-27.625549l3.113037-.73111z"/><path d="m1136.582642 295.227783c0 11.401856-1.513062 22.455536-4.347901 32.98703l-3.095581-.835541-3.078247-.835571c2.678223-9.991852 4.121704-20.488525 4.121704-31.315918z"/><path d="m1132.234741 328.214813c-2.834717 10.514069-6.991211 20.488526-12.295654 29.731842l-2.765137-1.601471-2.782593-1.584076c5.026001-8.773315 8.973877-18.24295 11.669556-28.217407l3.078247.835571z"/><path d="m1119.939087 357.946655c-5.286865 9.225952-11.704346 17.738159-19.078247 25.32779l-2.295654-2.22815-2.295655-2.228149c6.991333-7.206665 13.095703-15.283692 18.121826-24.057038l2.782593 1.584076z"/><path d="m1100.86084 383.274445c-7.356445 7.58963-15.669556 14.256652-24.730347 19.809631l-1.669678-2.732971-1.669555-2.732971c8.608764-5.274445 16.48706-11.593323 23.478271-18.799988l2.295655 2.228149z"/><path d="m1068.547852 223.961853.191284.139282-1.878296 2.593689-1.878174 2.593689-.191406-.139282 1.878296-2.593689z"/><path d="m1068.86084 224.188171-2 2.506653 1.878296-2.593689.052124.052185z"/><path d="m1068.86084 224.188171c5.252197 4.195191 10.052246 8.964783 14.27832 14.204407l-2.486938 2.019287-2.487061 2.001831c-3.93042-4.874054-8.399902-9.312957-13.304321-13.212219l2-2.506653z"/><path d="m1083.13916 238.392578c4.243408 5.239655 7.89563 10.966675 10.904297 17.076691l-2.869507 1.410003-2.869629 1.409974c-2.799926-5.674805-6.208618-10.98407-10.13916-15.87555l2.487061-2.001831z"/><path d="m1094.043457 255.469269c3.008667 6.09259 5.373901 12.585541 6.956543 19.357025l-3.113037.748535-3.113037.73111c-1.478272-6.301483-3.669556-12.341858-6.469605-18.016693l2.869629-1.409974z"/><path d="m1101 274.826294c1.599976 6.788879 2.452148 13.856293 2.452148 21.115173h-6.400024c0-6.754059-.782593-13.334045-2.278198-19.635528l3.113037-.73111z"/><path d="m1103.452148 295.941467c0 8.28595-1.095581 16.310761-3.165161 23.935211l-3.078247-.835571-3.095703-.835541c1.913086-7.084838 2.939087-14.552612 2.939087-22.264099z"/><path d="m1100.286987 319.876678c-2.052246 7.641846-5.060913 14.883332-8.904419 21.585175l-2.782592-1.584076-2.782593-1.601471c3.582641-6.231872 6.382568-12.968536 8.295654-20.07074l3.095703.835541z"/><path d="m1091.382568 341.461853c-3.843383 6.701843-8.504272 12.88147-13.860839 18.382233l-2.295655-2.22815-2.295654-2.228149c4.973877-5.117798 9.321777-10.862244 12.886963-17.111481l2.782593 1.601471z"/><path d="m1077.521729 359.844086c-5.339112 5.518127-11.373902 10.339996-17.947876 14.378509l-1.669556-2.732971-1.669556-2.732971c6.121826-3.742584 11.721802-8.251099 16.695679-13.368866l2.295654 2.228149z"/><path d="m1050.82605 244.206665.121826.104431-2.087036 2.437042-2.086914 2.437043-.121704-.104431 2.086914-2.437043z"/><path d="m1046.773926 249.185181 2.086914-2.437043-1.982544 2.506684-.052246-.034821z"/><path d="m1050.843506 244.241486c3.75647 2.976654 7.165161 6.371093 10.173828 10.078888l-2.486938 2.019256-2.486939 2.019257c-2.713013-3.359619-5.79126-6.42334-9.165161-9.104065l1.982544-2.506684z"/><path d="m1061.017334 254.320374c3.008789 3.725189 5.617432 7.798522 7.756592 12.132965l-2.869629 1.427398-2.869507 1.410004c-1.93042-3.916657-4.27832-7.572235-6.991333-10.931854l2.486939-2.019257z"/><path d="m1068.773926 266.453339c2.13916 4.334442 3.808716 8.947387 4.939087 13.769256l-3.113037.73111-3.113038.731109c-1.026123-4.334442-2.539062-8.494812-4.452148-12.394073l2.869507-1.410004z"/><path d="m1073.713013 280.222595c1.130493 4.804444 1.739135 9.835175 1.739135 14.987763h-6.400024c0-4.647766-.539062-9.173706-1.565186-13.525544l3.113038-.731109z"/><path d="m1075.452148 295.210358c0 5.883728-.782592 11.593353-2.243408 17.007049l-3.095703-.835541-3.078247-.835571c1.321777-4.891479 2.017334-10.026672 2.017334-15.335937z"/><path d="m1073.20874 312.217407c-1.460937 5.431122-3.617431 10.566284-6.3479 15.335938l-2.765137-1.584076-2.782715-1.601502c2.469605-4.299621 4.400025-8.929992 5.721802-13.821472l3.078247.835571z"/><path d="m1066.86084 327.553345c-2.730347 4.769623-6.03479 9.15628-9.843506 13.055542l-2.278198-2.22815-2.295655-2.228149c3.426026-3.533692 6.417359-7.485169 8.869507-11.784821l2.782715 1.601502z"/><path d="m1057.017334 340.608887c-3.79126 3.916656-8.069458 7.345916-12.747803 10.218139l-1.669555-2.73294-1.669556-2.732971c4.20874-2.576294 8.086914-5.674805 11.513061-9.208527l2.295655 2.228149z"/><path d="m918.96521 175.203674-.313049.243714-1.96521-2.524048-1.96521-2.524109.313049-.243652 1.96521 2.524047z"/><path d="m914.721741 170.399231 1.96521 2.524109-2-2.506653.017395-.017456z"/><path d="m918.686951 175.429993c-8.817383 7.032592-16.852173 15.005188-23.93042 23.778503l-2.486939-2.001831-2.486999-2.019287c7.373901-9.138855 15.72174-17.459595 24.904358-24.770691l2 2.506653z"/><path d="m894.756531 199.208496c-7.078247 8.773377-13.200012 18.347412-18.243469 28.565552l-2.869568-1.409973-2.869568-1.427429c5.234741-10.635926 11.634765-20.610352 19.008667-29.749268l2.486999 2.019287z"/><path d="m876.513062 227.774048c-5.026124 10.21817-8.956543 21.062988-11.617432 32.395202l-3.113037-.731109-3.113037-.73111c2.782592-11.81961 6.869568-23.13443 12.10437-33.770385l2.869568 1.427429z"/><path d="m864.89563 260.16925c-2.678223 11.34964-4.086914 23.186677-4.086914 35.337037h-6.400025c0-12.672577 1.478272-24.979615 4.260865-36.799256l3.113037.73111z"/><path d="m860.808716 295.506287c0 13.856292 1.843445 27.29483 5.269531 40.054443l-3.078247.835571-3.095642.835541c-3.582642-13.299255-5.495667-27.2948-5.495667-41.725555z"/><path d="m866.078247 335.56073c3.443482 12.777039 8.487 24.875183 14.921753 36.102966l-2.782593 1.584076-2.782654 1.601502c-6.678222-11.697785-11.947815-24.318177-15.530395-37.617432l3.095642-.835541z"/><path d="m881 371.663696c6.417419 11.227783 14.226074 21.550385 23.165222 30.758911l-2.295654 2.245545-2.295654 2.228149c-9.321717-9.591491-17.443482-20.366668-24.139161-32.047027l2.782654-1.601502z"/><path d="m904.165222 402.422607c8.956543 9.225922 19.043457 17.320343 30.052185 24.057038l-1.669555 2.73294-1.669617 2.732972c-11.460816-7.032593-21.982605-15.457764-31.304321-25.049256l2.295654-2.228149z"/><path d="m887.052185 151.529602-.191345.156677-2.034729-2.471862-2.03479-2.471802.191284-.156677 2.03479 2.471862z"/><path d="m882.791321 146.742615 2.03479 2.471802-2.13916-2.384766.052185-.052246z"/><path d="m886.96521 151.599243c-19.443481 17.390015-35.269531 38.731507-46.243469 62.771118l-2.904358-1.340332-2.904358-1.322998c11.339172-24.840393 27.704346-46.895569 47.773926-64.87738l2.13916 2.384766z"/><path d="m840.721741 214.370361c-10.973938 24.022217-17.078247 50.742615-17.078247 78.890381h-6.400025c0-29.105194 6.330445-56.713348 17.669556-81.553711l2.904358 1.322998z"/><path d="m823.643494 293.260742c0 16.206299 2.017395 31.925171 5.843444 46.930359l-3.113037.800751-3.095642.783325c-3.947815-15.509979-6.03479-31.768524-6.03479-48.514435z"/><path d="m829.486938 340.191101c3.808716 15.022614 9.408692 29.314087 16.556519 42.648163l-2.834778 1.514435-2.817383 1.514435c-7.391296-13.786652-13.165222-28.565552-17.113037-44.092957l3.095642-.783325z"/><path d="m846.043457 382.839264c7.130432 13.351471 15.826111 25.745544 25.826111 36.938507l-2.38263 2.141113-2.382568 2.141114c-10.330444-11.575928-19.321777-24.387787-26.713074-38.191864l2.817383-1.514435z"/><path d="m871.869568 419.777771c10.017395 11.210388 21.321716 21.219635 33.704346 29.801483l-1.826111 2.62851-1.82605 2.62854c-12.782593-8.860382-24.487-19.200379-34.817383-30.776306l2.382568-2.141114z"/><path d="m939 201.454102-.243469.191467-1.982605-2.524109-1.982605-2.524048.243469-.191467 1.982605 2.524048z"/><path d="m934.791321 196.597412 1.982605 2.524048-2-2.506653h.017395z"/><path d="m938.773926 201.628174c-6.904358 5.500732-13.182617 11.732544-18.713074 18.591064l-2.486938-2.019226-2.486939-2.001892c5.82605-7.22406 12.434754-13.804016 19.686951-19.583313l2 2.506653z"/><path d="m920.060852 220.219238c-5.530395 6.858521-10.330444 14.34372-14.260864 22.33371l-2.869568-1.427399-2.869568-1.410003c4.13916-8.407746 9.182617-16.293305 15.026123-23.517426l2.486939 2.001892z"/><path d="m905.799988 242.552948c-3.93042 7.972595-7.008667 16.467407-9.078247 25.327789l-3.130432-.731109-3.113038-.73111c2.20868-9.347778 5.443482-18.295196 9.582581-26.702972l2.869568 1.410003z"/><path d="m896.721741 267.880737c-2.10437 8.860382-3.200012 18.121125-3.200012 27.62555h-6.399964c0-10.009247 1.165161-19.757386 3.356506-29.087769l3.113038.73111z"/><path d="m893.521729 295.506287c0 10.827423 1.443481 21.324096 4.121765 31.315948l-3.078247.835541-3.095704.818146c-2.834777-10.514069-4.347778-21.56778-4.347778-32.969635z"/><path d="m897.643494 326.822235c2.695617 9.974426 6.643432 19.444061 11.669555 28.217407l-2.782592 1.584076-2.782654 1.601471c-5.286927-9.243347-9.443482-19.217773-12.27826-29.749267l3.095704-.818146z"/><path d="m909.313049 355.039642c5.008667 8.773316 11.113037 16.850373 18.10437 24.057038l-2.295654 2.228149-2.295654 2.228119c-7.356568-7.5896-13.773926-16.101837-19.078308-25.327759l2.782654-1.601471z"/><path d="m927.417419 379.09668c7.008667 7.206665 14.886902 13.525543 23.495606 18.799987l-1.669556 2.732972-1.669555 2.73294c-9.060852-5.552948-17.373902-12.220001-24.747803-19.809631l2.295654-2.228119z"/><path d="m959.017395 229.358154-.173889.139283-2-2.506714-2-2.506653.173889-.139282 2 2.506713z"/><path d="m958.843506 229.497437-2-2.506714z"/><path d="m958.843506 229.497437c-4.904358 3.89923-9.373963 8.338104-13.304382 13.212188l-2.486939-2.001861-2.486938-2.019257c4.226074-5.239624 9.026062-10.009247 14.278259-14.204437l2 2.506653z"/><path d="m945.539124 242.709625c-3.93042 4.89148-7.339112 10.200745-10.1391 15.87555l-2.869567-1.410004-2.869568-1.409973c3.008667-6.110016 6.678222-11.837036 10.904358-17.076691l2.486938 2.019257z"/><path d="m935.400024 258.585175c-2.800048 5.674835-4.973938 11.71521-6.452209 18.016662l-3.130432-.731109-3.113037-.748505c1.599975-6.771484 3.947815-13.264435 6.956543-19.357025l2.869568 1.409973z"/><path d="m928.947815 276.601837c-1.495667 6.301483-2.278259 12.8815-2.278259 19.635559h-6.399964c0-7.25888.852173-14.326294 2.434754-21.115173l3.113037.748505z"/><path d="m926.669556 296.237396c0 7.711487 1.026123 15.17926 2.939148 22.264099l-3.095642.835541-3.095643.835571c-2.052185-7.62445-3.147827-15.649261-3.147827-23.935211z"/><path d="m929.608704 318.501495c1.913025 7.102204 4.713012 13.838868 8.278259 20.07074l-2.765198 1.601471-2.782654 1.584076c-3.843444-6.701843-6.852173-13.943329-8.921692-21.585175l3.095643-.835571z"/><path d="m937.886963 338.572235c3.58258 6.249237 7.913025 11.993683 12.886963 17.111481l-2.295655 2.228149-2.295654 2.22815c-5.339111-5.500763-10-11.68039-13.843506-18.382233l2.782654-1.584076z"/><path d="m950.773926 355.683716c4.973877 5.117767 10.591308 9.626282 16.713012 13.368866l-1.669555 2.732971-1.669556 2.732971c-6.573913-4.038513-12.608703-8.860382-17.96521-14.378509l2.295654-2.22815z"/><path d="m976.878235 249.498505-.139099.104461-1.913025-2.558899-1.913086-2.558868.13916-.104462 1.913025 2.558899z"/><path d="m972.913025 244.485199 1.913086 2.558868-2-2.506652.034729-.034821z"/><path d="m976.826111 249.550751c-3.373963 2.680725-6.45221 5.744446-9.165222 9.104065l-2.487-2.019257-2.486938-2.001861c3.008728-3.72519 6.400024-7.119629 10.13916-10.096283l2 2.506652z"/><path d="m967.660889 258.654816c-2.713074 3.359619-5.043518 7.015197-6.973938 10.931854l-2.869568-1.410004-2.869568-1.427398c2.121765-4.334443 4.730469-8.390381 7.739136-12.11557l2.486938 2.001861z"/><path d="m960.686951 269.58667c-1.93042 3.899261-3.426087 8.059631-4.452149 12.394073l-3.113037-.731109-3.113098-.73111c1.130493-4.821869 2.800049-9.434814 4.939148-13.769256l2.869568 1.427398z"/><path d="m956.234802 281.980743c-1.026123 4.351838-1.565246 8.877778-1.565246 13.525544h-6.399964c0-5.152588.608643-10.183319 1.739075-14.987763l3.113098.73111z"/><path d="m954.669556 295.506287c0 5.309265.695678 10.444458 2.017395 15.335937l-3.078247.835541-3.095642.835571c-1.460877-5.413696-2.24347-11.123321-2.24347-17.007049z"/><path d="m956.686951 310.842224c1.321716 4.89148 3.252197 9.521851 5.72174 13.821472l-2.782592 1.601502-2.782593 1.584076c-2.730469-4.769654-4.869568-9.904816-6.330444-15.335938l3.095642-.835571z"/><path d="m962.408691 324.663696c2.452149 4.299652 5.443482 8.251129 8.869568 11.784821l-2.295654 2.228149-2.295654 2.22815c-3.791321-3.899262-7.113037-8.28592-9.843445-13.055542l2.782593-1.584076z"/><path d="m971.278259 336.448517c3.426087 3.516296 7.286988 6.632233 11.513062 9.208526l-1.669556 2.732972-1.669617 2.73294c-4.678222-2.872223-8.956481-6.301483-12.765197-10.218139l2.295654-2.22815z"/></g><path d="m546.5 596.900024 65.5-80.700012 65.5 80.700012z"/><path d="m610 418.100006h4v178.399994h-4z"/><path d="m562.799988 493.799988c1.299988-1.599976.900024-3.899994-.700012-5.099976-22.099976-15.600006-36.599976-41.399994-36.599976-70.600006s14.5-55 36.599976-70.600006c1.700012-1.200012 2-3.5.700012-5.100006-1.200012-1.399994-3.200012-1.699982-4.799988-.600006-23.799988 16.900024-39.5 44.800018-39.5 76.300018s15.700012 59.399994 39.599976 76.299988c1.5 1.100006 3.600036.899994 4.700012-.600006z"/><path d="m661.200012 342.399994c-1.300049 1.600006-.900024 3.899994.699951 5.100006 22.100037 15.700012 36.600037 41.5 36.600037 70.600006s-14.5 55-36.600037 70.600006c-1.699951 1.199982-2 3.5-.699951 5.099976 1.199951 1.400024 3.199951 1.700012 4.799988.600006 23.899963-16.899994 39.599976-44.899994 39.599976-76.299988 0-31.5-15.700013-59.399994-39.599976-76.300018-1.600037-1.099976-3.700012-.799988-4.799988.600006z"/><path d="m581.799988 470.5c1.299988-1.600006 1-4-.799988-5.100006-15.400024-10.100006-25.599976-27.5-25.599976-47.200012 0-19.699982 10.199952-37.099976 25.599976-47.199982 1.700012-1.100006 2-3.5.799988-5.100006-1.099976-1.399994-3.099976-1.700012-4.599976-.700012-17.299988 11.200012-28.700012 30.800018-28.700012 52.900024 0 22.199982 11.400024 41.699982 28.700012 53.099976 1.5 1 3.5.700012 4.599976-.699982z"/><path d="m668.5 418.100006c0 19.700012-10.200012 37.100006-25.599976 47.200012-1.700012 1.099976-2 3.5-.799987 5.099976 1.099975 1.400024 3.099975 1.700012 4.599975.700012 17.299988-11.399994 28.700012-30.899994 28.700012-53.100006 0-22.199982-11.400024-41.699982-28.700012-53.100006-1.5-1-3.5-.699982-4.599975.700012-1.300049 1.600006-1 4 .799987 5.100006 15.399964 10.299988 25.599976 27.699982 25.599976 47.399994z"/><path d="m639 418.100006c0 14.911682-12.088318 27-27 27s-27-12.088318-27-27 12.088318-27 27-27 27 12.088318 27 27z" fill="#000068" stroke="#000"/><path d="m1274.135376 369.450806c-31.064331-34.114991-74.902222-55.450806-123.513306-55.450806-46.584839 0-88.845947 19.470795-119.622924 51.126007l7.146972 7.472107c28.961548-29.744751 68.6698-48.108185 112.478882-48.108185 45.867554 0 87.115601 20.183197 116.36499 52.437195l7.144165-7.452728zm-28.338867 29.626648c-23.792847-26.531525-57.639405-43.127686-95.171509-43.127686-35.504395 0-67.644653 14.871857-91.159912 38.933685l7.021728 7.340851c21.701172-22.168243 51.399048-35.787353 84.13733-35.787353 34.752685 0 66.052001 15.490051 88.027465 40.113098l7.147339-7.471832zm-28.338623 29.625946c-16.513062-18.955811-40.377686-30.805878-66.834107-30.805878-24.422729 0-46.568725 10.141449-62.822387 26.61084l7.021728 7.341125c14.436646-14.573364 34.146851-23.464782 55.799805-23.464782 23.6875 0 44.99646 10.727325 59.685913 27.790527l7.147339-7.341095v-.130249z" fill="#404040"/><path d="m1152.567261 480.955475c-10.071045 0-18.23523-8.205017-18.23523-18.326172 0-10.121185 8.164185-18.326172 18.23523-18.326172 10.070923 0 18.235107 8.204987 18.235107 18.326172 0 10.121155-8.164184 18.326172-18.235107 18.326172z" fill="#404040"/></svg>