<svg viewBox="0 0 463.08 463.08" xmlns="http://www.w3.org/2000/svg" xmlns:xlink="http://www.w3.org/1999/xlink"><filter id="a"><feGaussianBlur stdDeviation=".81070223"/></filter><filter id="b"><feGaussianBlur stdDeviation="1.0174043"/></filter><linearGradient id="c" gradientUnits="userSpaceOnUse" x1="277.5" x2="284.25" y1="484.15" y2="443.88"><stop offset="0" stop-color="#89269d"/><stop offset=".33681" stop-color="#a40000"/><stop offset="1" stop-color="#89269d" stop-opacity="0"/></linearGradient><radialGradient id="d" cx="-167" cy="337.36" gradientTransform="matrix(1.3393 0 0 1.1719 495.16 127.69)" gradientUnits="userSpaceOnUse" r="56"><stop offset="0" stop-color="#042b76"/><stop offset="1" stop-color="#2e75f8"/></radialGradient><linearGradient id="e" gradientUnits="userSpaceOnUse" x1="242.385624" x2="252.073176" y1="226.280125" y2="338.551032"><stop offset="0" stop-color="#2a5e89"/><stop offset="1" stop-color="#2a5e89" stop-opacity="0"/></linearGradient><radialGradient id="f" cx="81.5" cy="127.88" gradientTransform="matrix(1.5048 .23121 -.16112 1.0486 317.46 104.94)" gradientUnits="userSpaceOnUse" r="231.54"><stop offset="0" stop-color="#acacac"/><stop offset="1"/></radialGradient><linearGradient id="g" gradientTransform="matrix(0 1 -1 0 511.38 554.38)" gradientUnits="userSpaceOnUse" x1="-356.81" x2="47.811" y1="233.88" y2="233.88"><stop offset="0"/><stop offset="1" stop-color="#fff" stop-opacity=".99608"/></linearGradient><linearGradient id="h" gradientUnits="userSpaceOnUse" spreadMethod="reflect" x1="-838.19" x2="-807.77" y1="-119.64" y2="-191.78"><stop offset="0" stop-color="#cdd0ce"/><stop offset="1" stop-color="#cdd0ce" stop-opacity="0"/></linearGradient><linearGradient id="i" gradientUnits="userSpaceOnUse" x1="-228.89" x2="22.886" y1="249.36" y2="249.36"><stop offset="0" stop-color="#aed3ff"/><stop offset=".21015" stop-color="#d6e9ff" stop-opacity=".13245"/><stop offset=".77785" stop-color="#c2deff" stop-opacity=".13245"/><stop offset="1" stop-color="#aed3ff"/></linearGradient><linearGradient id="j" gradientUnits="userSpaceOnUse" x1="-210.09" x2="-149.5" y1="245.86" y2="245.86"><stop offset="0" stop-color="#fff"/><stop offset="1" stop-color="#fff" stop-opacity=".037931"/></linearGradient><linearGradient id="k" gradientUnits="userSpaceOnUse" x1="-210.09" x2="-164.83" y1="245.86" y2="249.55"><stop offset="0" stop-color="#fff"/><stop offset="1" stop-color="#fff" stop-opacity=".053137"/></linearGradient><linearGradient id="l" gradientUnits="userSpaceOnUse" x1="-153" x2="-145.56" y1="-47.638" y2="-89.638"><stop offset="0" stop-color="#2ad4ff"/><stop offset="1" stop-color="#2ad4ff" stop-opacity="0"/></linearGradient><g transform="translate(-45.961 -168.34)"><path d="m483 326.36a187 187 0 1 1 -374 0 187 187 0 1 1 374 0z" fill="#212121" stroke="#000" stroke-linecap="round" stroke-linejoin="round" stroke-width="3.5433" transform="translate(-18.5 73.514)"/><path d="m478.27 399.88c0-110.63-90.14-200.78-200.77-200.78s-200.78 90.15-200.78 200.78c.005 110.62 90.15 200.77 200.78 200.77s200.77-90.15 200.77-200.77zm-36.87 0c0 90.67-73.22 163.9-163.9 163.9s-163.9-73.23-163.9-163.9c0-90.68 73.22-163.91 163.9-163.91s163.9 73.23 163.9 163.91z" fill="#a3a3a3" stroke="url(#g)" stroke-linecap="round" stroke-linejoin="round" stroke-width="3.0725"/><path d="m277.5 168.34c-127.58 0-231.54 103.96-231.54 231.54.001 127.57 103.96 231.54 231.54 231.54s231.54-103.97 231.54-231.54c0-127.58-103.96-231.54-231.54-231.54zm0 42.52c104.57 0 189.02 84.45 189.02 189.02s-84.45 189.02-189.02 189.02-189.02-84.45-189.02-189.02 84.45-189.02 189.02-189.02z" fill="url(#f)"/><g fill="none" stroke-linecap="round" stroke-linejoin="round"><path d="m22 249.36a125 125 0 1 1 -250 0 125 125 0 1 1 250 0z" stroke="url(#i)" stroke-width="1.7717" transform="matrix(0 -1 1 0 28.138 296.88)"/><path d="m-96 245.86a53.5 51.5 0 1 1 -107 0 53.5 51.5 0 1 1 107 0z" filter="url(#a)" stroke="url(#j)" stroke-width="8.8583" transform="matrix(0 1 -1 0 523.36 549.38)"/><path d="m-96 245.86a53.5 51.5 0 1 1 -107 0 53.5 51.5 0 1 1 107 0z" opacity=".55517" stroke="url(#k)" stroke-width="4.7956" transform="matrix(0 1.3049 -1.3555 0 610.78 594.96)"/></g><path d="m277.5 235.74c-69.05 0-126.98 47.9-142.34 112.27h284.68c-15.36-64.37-73.29-112.27-142.34-112.27z" fill="url(#e)"/><path d="m22 249.36a125 125 0 1 1 -250 0 125 125 0 1 1 250 0z" fill="none" stroke="url(#i)" stroke-linecap="round" stroke-linejoin="round" stroke-width="1.7717" transform="matrix(0 -.86893 .86893 0 60.822 310.38)"/><path d="m271.5 457.42c-41.4 0-75 29.4-75 65.63 0 6.58 1.13 12.91 3.19 18.9 23.49 12.99 50.51 20.38 79.31 20.38 21.35 0 41.72-4.05 60.41-11.44 4.54-8.45 7.09-17.89 7.09-27.84 0-36.23-33.6-65.63-75-65.63z" fill="url(#d)" opacity=".34138"/><path d="m-114-68.638a39 21 0 1 1 -78 0 39 21 0 1 1 78 0z" fill="#5fd3bc" opacity=".3838" transform="translate(430.5 404.51)"/><path d="m300.01 403.61-46.94 1.16-9.32 73c9.52 4.04 20.63 6.37 32.5 6.37 12.92 0 24.95-2.77 35-7.49z" fill="url(#c)" opacity=".92759"/><path d="m-114-68.638a39 21 0 1 1 -78 0 39 21 0 1 1 78 0z" fill="url(#l)" opacity=".3838" transform="matrix(1.6795 0 0 1 535.96 383.51)"/><path d="m64.548 410.36 1.656-.16c-.439.57-.75 1.18-.933 1.8s-.241 1.27-.173 1.94c.134 1.33.643 2.3 1.527 2.93.88.62 2.087.85 3.621.7 1.528-.16 2.664-.63 3.406-1.41.738-.79 1.039-1.85.906-3.17-.068-.68-.254-1.3-.558-1.87-.304-.58-.729-1.1-1.275-1.58l1.641-.17c.428.51.767 1.07 1.015 1.67.249.59.407 1.23.476 1.91.177 1.76-.219 3.2-1.19 4.31-.976 1.12-2.394 1.78-4.254 1.96-1.866.19-3.386-.16-4.561-1.07-1.179-.9-1.858-2.23-2.035-3.98-.07-.7-.043-1.36.082-1.99.119-.64.336-1.24.649-1.82m.277-6.96 5.896 1.87-.196-4.28zm-1.513.96-.081-1.79 11.449-4.97.074 1.64-2.94 1.2.24 5.25 3.038.92.076 1.67zm-.299-8.59.025-2.13 9.817-5.06-9.758-.11.018-1.53 11.663.13-.024 2.13-9.817 5.06 9.757.11-.017 1.53zm.261-12.67.152-2.12 10.103-4.46-9.733-.7.109-1.53 11.635.84-.152 2.12-10.103 4.46 9.733.7-.11 1.52zm2.707-17.2c-.153 1.14.149 2.1.906 2.88s1.866 1.27 3.327 1.46c1.456.2 2.652.02 3.588-.53.936-.56 1.481-1.41 1.633-2.54.152-1.14-.151-2.09-.909-2.87-.757-.78-1.863-1.26-3.319-1.46-1.461-.19-2.659-.02-3.595.54-.935.54-1.479 1.38-1.631 2.52m-1.27-.17c.217-1.62.935-2.84 2.155-3.67 1.214-.82 2.735-1.11 4.562-.87 1.822.25 3.213.93 4.172 2.04.954 1.12 1.322 2.49 1.105 4.11-.218 1.62-.935 2.85-2.149 3.68-1.215.83-2.735 1.12-4.563.87-1.827-.24-3.218-.92-4.172-2.04-.958-1.12-1.328-2.49-1.11-4.12m1.477-8.46.412-2.08 10.575-3.19-9.573-1.89.297-1.5 11.443 2.26-.412 2.09-10.575 3.18 9.572 1.89-.296 1.5zm3.705-16.96 2.516-8.81 1.156.33 6.757 9.6 2.075-7.26 1.277.36-2.615 9.16-1.157-.33-6.757-9.6-1.975 6.92zm6.046-15.94c-.379 1.08-.277 2.08.305 3 .584.92 1.571 1.62 2.962 2.11 1.386.48 2.594.55 3.622.2 1.03-.36 1.734-1.08 2.113-2.16s.276-2.08-.31-2.99c-.584-.91-1.569-1.61-2.955-2.1-1.391-.49-2.601-.56-3.629-.2-1.026.34-1.729 1.06-2.108 2.14m-1.209-.43c.541-1.54 1.491-2.59 2.852-3.15 1.356-.56 2.904-.54 4.644.07 1.735.61 2.96 1.55 3.673 2.84.708 1.29.792 2.7.251 4.25-.542 1.54-1.492 2.6-2.85 3.17-1.356.56-2.904.54-4.644-.07s-2.964-1.56-3.673-2.84c-.711-1.3-.796-2.72-.253-4.27m5.984-11.94c-.446 1.06-.408 2.06.116 3.02.525.95 1.466 1.71 2.824 2.29 1.353.57 2.554.71 3.602.42 1.05-.29 1.799-.96 2.245-2.02.445-1.05.405-2.05-.123-3-.525-.95-1.464-1.71-2.817-2.28-1.358-.58-2.561-.72-3.609-.43-1.046.28-1.792.95-2.238 2m-1.181-.5c.637-1.5 1.652-2.49 3.045-2.97 1.389-.47 2.932-.35 4.631.36 1.693.72 2.856 1.74 3.487 3.07.626 1.33.621 2.75-.015 4.25-.639 1.51-1.653 2.51-3.044 2.99-1.389.48-2.932.36-4.631-.36-1.698-.72-2.86-1.74-3.487-3.07-.629-1.33-.624-2.76.014-4.27m3.652-7.82 1.055-2.1 8.429.9-5.751-6.23 1.055-2.11 10.424 5.24-.69 1.37-9.154-4.59 5.8 6.28-.711 1.41-8.499-.9 9.153 4.6-.687 1.37zm9.328-17.52.821-1.35 8.826 5.37 2.96-4.85 1.13.69-3.77 6.2zm4.977-8.04 4.13-6.11 1.1.74-3.246 4.81 2.866 1.93 3.1-4.61 1.1.75-3.1 4.6 3.5 2.36 3.32-4.92 1.1.75-4.2 6.23zm6.08-8.88 1.29-1.69 10.9 1.77-7.78-5.89.92-1.22 9.3 7.04-1.28 1.69-10.9-1.77 7.78 5.89-.93 1.23zm12.53-15.06 1.17 1c-.6.27-1.13.56-1.58.88-.45.31-.84.66-1.16 1.04-.55.65-.86 1.27-.9 1.84-.05.57.16 1.05.63 1.45.39.33.79.47 1.19.41.4-.07.94-.39 1.63-.94l.76-.6c.93-.76 1.8-1.16 2.59-1.22.79-.07 1.55.21 2.27.82.87.73 1.27 1.57 1.23 2.53-.05.95-.54 1.99-1.49 3.11-.35.42-.78.83-1.28 1.22s-1.05.76-1.67 1.12l-1.24-1.05c.69-.26 1.3-.57 1.84-.92.53-.35.99-.75 1.38-1.2.58-.69.89-1.34.94-1.94s-.18-1.11-.68-1.54c-.44-.37-.9-.52-1.37-.46s-1.03.34-1.67.85l-.77.61c-.93.75-1.77 1.16-2.49 1.24s-1.42-.17-2.1-.75c-.79-.67-1.17-1.47-1.16-2.4.02-.94.44-1.9 1.27-2.87.35-.42.75-.81 1.19-1.18s.93-.72 1.47-1.05m9.99-9.21 1.64 7.2 2.79-2.83zm-1.27-.67 1.39-1.42 5.42 5.34 1.16-1.19.94.92-1.17 1.19 1.96 1.93-1.1 1.12-1.96-1.93-3.7 3.75-1.08-1.07zm12.04-7.44.56 5.27 5.49 1.05-1.25 1.15-4.2-.8.46 4.25-1.25 1.15-.6-5.67-5.11-.96 1.24-1.15 3.82.72-.4-3.86z" fill="#e6e6e6"/><g fill="none" stroke-linecap="round" stroke-linejoin="round"><path d="m-414-119.64a212 212 0 1 1 -424 0 212 212 0 1 1 424 0z" opacity=".67606" stroke="url(#h)" stroke-width=".37938" transform="matrix(.87231 0 0 .87231 823.57 506.11)"/><path d="m-414-119.64a212 212 0 1 1 -424 0 212 212 0 1 1 424 0z" opacity=".67606" stroke="url(#h)" stroke-width=".37938" transform="matrix(.85351 .077215 -.077215 .85351 799.31 555.44)"/><path d="m275.5 211.84c-104.57 0-189.03 84.46-189.03 189.04-.001 104.57 84.46 189.03 189.03 189.03s189.03-84.46 189.03-189.03c0-104.58-84.46-189.04-189.03-189.04z" stroke="#000" stroke-width="3.5433"/></g><path d="m-137 243.36-21.62 9.46-19-14 2.62-23.46 21.62-9.45 19 14z" fill="#ff7f2a" filter="url(#b)" opacity=".67606" transform="matrix(.63005 0 0 .54478 371.29 255.09)"/><path d="m-137 243.36-21.62 9.46-19-14 2.62-23.46 21.62-9.45 19 14z" fill="#636667" filter="url(#b)" opacity=".67606" transform="matrix(.7919 0 0 .7919 414.23 209.03)"/><path d="m-414-119.64a212 212 0 1 1 -424 0 212 212 0 1 1 424 0z" style="opacity:.67606;stroke-linejoin:round;stroke-linecap:round;stroke-width:.37938;fill:none;stroke:url(#h)" transform="matrix(.83843 .12016 -.12016 .83843 782.61 582.64)"/></g></svg>