<svg height="534" viewBox="0 0 526 534" width="526" xmlns="http://www.w3.org/2000/svg"><g fill="#fff"><path d="m262.865509 132.274292c-1.007538.001587-109.840393.39151-109.914566 114.904816-.047745 73.718475 49.964035 101.074737 46.467484 107.47464l10.924606 38.844299 2.395279.001587c-8.514084-.005524-15.403046 6.873962-15.40857 15.388611-.005508 8.514129 6.873993 15.403076 15.388627 15.408599l17.79309.011536-23.616226 9.052551c-7.948379 3.051697-11.961197 12.063477-8.909637 20.012329 3.051666 7.948334 11.89299 11.790436 19.840652 8.738373l95.150009-36.551727c.943878-.362335 1.741364-.852203 2.567231-1.367126.054779-.003327.117157.004608.170837.000122 7.963928-.588746 14.205383-7.097382 14.210632-15.217621.005371-8.280487-6.514282-15.039124-14.703827-15.408203l10.974915-38.830078c-3.488342-6.405335 46.55896-33.697022 46.60672-107.414368.074158-114.504486-108.757568-115.035217-109.765625-115.047089zm-39.368668 26.664154c-.003433.121002-.000137.220612-.000228.342194 5.576049-1.377625 8.151916 7.703003.900192 9.842468-21.808121 6.150268-34.804306 33.76416-34.804306 33.76416-4.474076 7.752747-12.867615 2.408936-9.67833-3.128754 3.737152-10.11206 19.786072-35.193939 43.583084-40.81961zm84.511002 275.68512c-1.995697-.06482-4.00177.259613-5.9888 1.022644l-95.149994 36.551727c-7.948349 3.051697-11.961044 11.892883-8.9095 19.840576 1.144348 2.980652 3.218613 5.322083 5.641418 7.018433 1.290848 1.583679 2.774216 3.0065 4.616806 4.109192l45.150147 26.890625c3.066162 2.514831 6.868591 3.960388 10.776123 3.942138 3.811279.060547 7.560883-1.229492 10.609924-3.585937l45.527558-27.174378c8.392822-5.007934 11.273285-15.9234 6.517242-24.461517-4.755524-8.538544-15.384552-11.353821-23.778046-6.345734l-38.852172 23.072205-12.655747-7.536194 61.436875-23.570617c7.948333-3.051636 11.961029-11.892884 8.909454-19.840516-2.288635-5.961364-7.86496-9.738372-13.851959-9.932251z"/><path d="m271.597443 8.728516-.033081 51.045837c-.003022 4.69873-3.814576 8.50528-8.513215 8.502258h-.000732c-4.698639-.003051-8.505264-3.814544-8.502228-8.513275l.033066-51.045807c.003052-4.69873 3.814621-8.50531 8.51326-8.502258h.000732c4.698639.003052 8.505249 3.814514 8.502198 8.513245z"/><path d="m138.859833 40.724243 25.493515 44.223969c2.346649 4.070739.948959 9.273071-3.121781 11.61969l-.000579.000366c-4.070755 2.346588-9.273087.948944-11.619721-3.121796l-25.493523-44.223968c-2.346649-4.07074-.948974-9.273102 3.121781-11.619751l.000572-.000305c4.07077-2.34668 9.273087-.949006 11.619736 3.121795z"/><path d="m33.134857 132.65979 44.190468 25.551514c4.067635 2.35202 5.458511 7.556152 3.106522 11.62384l-.000328.000549c-2.35199 4.067688-7.556183 5.458557-11.623826 3.106568l-44.190464-25.551544c-4.06768-2.35199-5.458543-7.556183-3.106554-11.623902l.000328-.000549c2.351992-4.067688 7.556176-5.458466 11.623854-3.106476z"/><path d="m387.632294 40.885132-25.551575 44.190674c-2.351959 4.067688-.961151 9.271881 3.106567 11.62384l.00055.000366c4.067718 2.35199 9.271881.96109 11.623871-3.106628l25.551574-44.190644c2.35199-4.067718.961121-9.271911-3.106567-11.62384l-.00058-.000397c-4.067688-2.351989-9.271851-.96112-11.62384 3.106629z"/><path d="m493.236145 132.96051-44.223785 25.494293c-4.070771 2.346741-5.468384 7.549012-3.121643 11.619751l.000335.000611c2.34671 4.070801 7.549042 5.468353 11.619782 3.121612l44.223785-25.494323c4.07074-2.346711 5.468353-7.549012 3.121643-11.619721l-.000366-.00061c-2.34671-4.07074-7.549072-5.468292-11.619751-3.121613z"/><path d="m517.723572 246.404449-32.610962-.021118c-4.6987-.003021-8.510224 3.80362-8.513245 8.50232v.000641c-.003052 4.69873 3.803528 8.510192 8.502228 8.513244l32.610992.021118c4.698731.003052 8.510193-3.803497 8.513245-8.502227v-.000641c.003052-4.6987-3.803528-8.510285-8.502258-8.513337z"/><path d="m41.118862 246.095734-32.610999-.021119c-4.698683-.003051-8.51021 3.80362-8.513254 8.50232v.000641c-.003044 4.69873 3.803548 8.510193 8.502231 8.513244l32.611001.021118c4.698685.003052 8.510209-3.803497 8.513253-8.502227v-.000641c.003044-4.6987-3.803547-8.510285-8.502232-8.513336z"/></g></svg>