<?xml version="1.0" encoding="UTF-8"?>
<!-- Generated by Pixelmator Pro 3.7.1 -->
<svg width="872" height="725" viewBox="0 0 872 725" xmlns="http://www.w3.org/2000/svg">
    <g id="Group">
        <g id="layer1">
            <g id="g4865">
                <path id="path3082" fill="#fe6634" fill-rule="evenodd" stroke="none" d="M 628.280945 580.443787 C 628.280945 550.282104 603.909607 525.88855 573.748596 525.88855 C 543.586853 525.88855 519.193359 550.282776 519.193359 580.443787 C 519.193359 610.60553 543.587524 634.999023 573.748596 634.999023 C 603.909607 634.999023 628.280945 610.604858 628.280945 580.443787 Z M 286.032959 580.443787 C 286.032959 550.282104 261.638763 525.88855 231.477753 525.88855 C 201.316681 525.88855 176.945343 550.282776 176.945343 580.443787 C 176.945343 610.60553 201.316681 634.999023 231.477753 634.999023 C 261.639496 634.999023 286.032959 610.604858 286.032959 580.443787 Z M 687.543823 580.443115 L 687.543823 548.816772 L 625.026367 548.816772 C 630.718567 558.015198 634.014954 568.846619 634.014954 580.443115 L 687.543823 580.443115 Z M 513.48645 580.443115 C 513.48645 568.846619 516.782959 558.015198 522.475037 548.816772 L 282.752716 548.816772 C 288.444916 558.015198 291.741241 568.846619 291.741241 580.443115 L 513.48645 580.443115 Z M 171.215607 580.443115 C 171.215607 568.846619 174.512238 558.015198 180.204193 548.816772 L 124.935272 548.816772 L 124.935272 580.443115 L 171.215607 580.443115 Z M 666.601929 118.003601 C 661.090576 117.34845 655.696716 117.003784 650.342712 116.999939 L 650.342468 117.016968 C 634.276672 117.004822 618.531982 120.094543 600.653381 127.287415 C 557.306396 144.749939 532.020752 179.538696 492.253784 194.644592 C 442.721741 213.459625 387.928864 213.243378 335.592621 221.520355 C 324.677002 223.246704 313.931244 222.965149 302.783722 226.271027 C 289.77829 229.986633 276.750763 233.907593 265.603241 237.623413 C 257.970032 234.937561 249.719452 233.921021 241.671539 233.921021 C 229.282135 233.921021 217.30014 236.610809 206.364594 241.972473 C 197.4888 246.930664 189.858673 253.716705 184.082977 262.380524 C 173.137421 277.869659 166.323639 295.846069 164.87973 314.838837 C 161.365814 339.403595 159.296661 364.373047 158.054779 388.929932 L 207.190033 389.576752 L 207.190033 381.30191 C 207.190033 355.089172 208.827118 328.884277 212.542938 302.257599 C 214.602692 288.838226 218.964569 275.604492 225.568268 263.427002 C 227.012238 260.943054 228.851166 258.683014 230.921173 256.825104 C 231.95108 256.209106 232.801971 255.387878 233.619843 254.973877 C 240.435181 250.854156 248.066223 248.783203 256.124115 249.197205 C 244.976532 261.586639 236.916687 275.81604 231.969086 291.507141 C 231.141083 293.980804 230.50943 296.24823 230.095551 298.934082 C 229.043427 305.849304 228.339081 312.890137 228.021271 320.03302 C 229.14743 327.411469 231.615631 335.33374 236.229065 343.898376 C 238.428955 354.390717 240.373047 363.129425 240.912811 365.153625 C 241.47171 367.248352 242.062439 368.610016 242.559387 369.755432 C 243.984039 373.039215 244.637726 374.545959 241.559631 386.453827 C 239.045959 396.176086 224.627411 419.121155 216.980621 424.146698 C 216.980621 424.146698 217.174286 424.185913 217.471283 424.302826 C 217.423309 424.335449 217.384552 424.381592 217.337433 424.414337 C 217.245514 424.478088 217.15921 424.550781 217.069794 424.615082 C 217.067352 424.616486 217.063507 424.615814 217.059418 424.615112 C 217.055267 424.61438 217.050812 424.613617 217.047577 424.615082 C 216.622894 424.921082 216.233673 425.2341 215.865509 425.551849 C 215.864288 425.553192 215.860626 425.552612 215.856415 425.551941 C 215.851837 425.551208 215.846588 425.550354 215.843231 425.551849 C 215.661407 425.709137 215.498871 425.882751 215.330292 426.042511 C 215.328644 426.044006 215.322723 426.043182 215.317413 426.04245 C 215.312469 426.041748 215.308014 426.041138 215.308014 426.042511 C 215.13974 426.202332 214.995087 426.371124 214.83963 426.533203 C 214.677216 426.702118 214.520172 426.852753 214.371246 427.023865 C 213.787994 427.694427 213.314667 428.381714 212.921478 429.075836 C 212.135101 430.463989 211.683929 431.884155 211.49411 433.268921 C 211.351776 434.307526 211.341705 435.329712 211.427216 436.302216 C 211.541229 437.598907 211.83548 438.805664 212.163177 439.870819 C 212.327057 440.403412 212.464325 440.949127 212.586945 441.476685 C 212.832306 442.531769 213.010101 443.590302 213.16684 444.799896 C 213.24527 445.404785 213.314545 446.053253 213.389862 446.740356 C 213.615936 448.801514 213.854706 451.287445 214.282074 454.613403 C 214.424591 455.722015 214.58255 456.919189 214.772736 458.226624 C 215.165497 460.923004 215.419769 464.680084 215.553375 469.155029 C 215.740509 475.420044 215.695282 483.086823 215.486542 491.213196 C 215.455597 492.41803 215.413361 493.671539 215.375031 494.893311 C 213.196136 500.914093 212.022552 502.112061 211.404938 507.49469 C 211.309052 508.330261 211.23465 509.234558 211.181915 510.148895 C 208.885223 516.616272 207.66745 517.755066 207.033417 523.285583 C 206.953949 523.978333 206.881744 524.698242 206.832733 525.448975 C 214.359589 522.064819 222.700043 520.185303 231.478058 520.185303 C 241.232483 520.185303 250.442322 522.527344 258.599396 526.653442 C 258.840515 522.302368 257.711395 516.186401 256.738586 510.916992 C 256.465424 509.437439 256.20462 508.024628 255.989899 506.736389 C 255.006683 500.836792 254.354004 489.694946 254.517883 474.797485 C 254.584961 468.750183 259.638855 458.732971 263.038208 452.650116 C 265.634216 448.00235 268.571899 435.251282 272.003967 431.349884 C 279.97049 422.29422 289.746918 404.807404 291.385712 401.529999 C 292.935913 398.430328 303.264984 380.994171 307.578552 373.851288 C 309.219849 372.399323 311.058716 370.692841 312.998383 368.78833 C 331.153229 372.126373 354.149261 376.777191 383.612274 383.687195 C 383.638031 383.569824 383.67569 383.470428 383.701477 383.352661 C 389.689575 384.594574 395.868042 385.84671 402.057587 386.876648 C 421.051086 390.390564 440.24939 392.028809 459.646118 392.028809 C 476.165131 392.028809 493.075256 390.703705 509.806946 388.304077 C 509.860199 388.296417 509.827759 388.375977 509.79657 388.452301 C 509.781738 388.488647 509.767212 388.524261 509.76236 388.549408 C 518.820129 387.519775 530.637207 386.149872 543.307129 383.776428 C 543.534241 387.643311 544.039001 391.511353 544.552673 395.44809 C 545.72345 404.420288 546.940796 413.749451 545.024475 424.235687 C 544.861023 429.656372 544.653381 434.774719 544.422241 439.335114 C 544.22937 439.328461 544.185974 439.716949 544.333008 440.807159 C 544.201416 443.262482 544.072876 445.503906 543.93158 447.364441 C 543.896484 447.606689 543.861023 447.848358 543.825806 448.088348 C 543.561707 449.886963 543.311218 451.592834 543.351685 452.761932 C 542.04071 459.644348 542.056213 462.26062 543.039429 467.504517 C 543.559692 470.280151 546.35321 487.849731 544.44458 504.260986 C 543.545593 506.292816 542.978027 507.865479 542.816467 510.773682 C 542.801392 511.056885 542.801331 511.351257 542.794189 511.643585 C 540.481262 517.868958 539.033752 518.889221 538.757263 523.866028 C 538.643066 525.921326 538.81958 528.237671 539.015259 530.805908 C 539.025879 530.945129 539.03656 531.085083 539.047241 531.22583 C 548.865845 524.284912 560.83136 520.185303 573.75177 520.185303 C 579.360168 520.185303 584.790771 520.95575 589.944641 522.393433 C 585.349792 510.349426 580.050232 487.012817 581.893188 480.930664 C 584.078552 473.720703 584.536926 466.057556 583.855896 460.611847 C 584.347107 458.319092 584.08136 454.559326 583.935486 452.495026 C 583.912109 452.164154 583.891785 451.876831 583.878174 451.646088 C 584.256104 440.766174 585.341003 423.825806 585.439392 417.610291 L 585.439453 417.595795 L 585.439392 417.588043 C 593.049805 394.735474 607.871826 361.750732 610.441711 356.074066 C 614.978088 352.074371 618.94574 347.568054 622.15094 342.469177 C 626.94751 334.838806 627.507996 325.179352 628.106079 316.061615 C 628.187866 315.812683 628.23584 315.535461 628.264709 315.368469 C 628.290283 315.22049 628.300903 315.159119 628.306824 315.280914 L 628.306824 315.236847 C 628.306519 306.163696 628.306152 297.290833 628.507568 288.405121 L 628.908997 266.301971 C 629.115967 247.723175 634.4953 229.355652 644.61084 213.464661 C 649.151489 215.941589 653.902893 218.225769 659.063599 220.289612 C 660.508484 227.309753 662.558838 234.328094 665.241699 241.143799 C 668.338562 247.949097 670.210205 255.157623 670.416199 262.376923 C 670.829163 265.678558 670.829163 269.000092 670.416199 272.301849 C 670.623169 275.189728 672.059204 278.08432 674.743103 279.528259 C 675.155151 279.740295 675.378418 279.727783 675.791382 279.929718 C 678.68103 280.141876 681.365967 281.173584 683.842834 282.405487 C 687.351501 284.677338 691.468323 285.728699 695.597107 285.728699 C 704.268066 285.728699 711.904724 280.77121 715.826721 273.127289 C 716.446167 271.481445 716.846985 269.821686 717.053467 268.175842 C 719.324219 251.040192 720.354431 233.70752 720.354431 216.364166 L 720.354431 213.665436 C 720.561768 209.330322 720.577454 204.81958 720.577454 200.483826 C 720.577454 192.433044 720.365906 184.379456 719.952942 176.328735 C 720.159912 166.832703 720.995178 157.112549 722.027161 147.824219 C 730.283447 140.805481 738.531921 133.988159 747.408386 126.970032 C 742.660767 126.55719 737.931458 126.345581 732.977722 126.345581 C 721.005127 126.345581 709.230896 127.793823 697.670776 130.270996 C 687.349731 127.174194 677.658142 119.317993 666.601929 118.003601 Z"/>
            </g>
        </g>
        <g id="Group-copy">
            <path id="Path" fill="none" stroke="#ffffff" stroke-width="9.232873" stroke-linecap="round" stroke-linejoin="round" d="M 434.380127 352.370453 C 434.380127 352.370453 439.465027 310.958527 395.602051 302.512939"/>
            <path id="path1" fill="none" stroke="#ffffff" stroke-width="9.232873" stroke-linecap="round" stroke-linejoin="round" d="M 425.147247 319.132111 C 391.977661 343.621735 391.908905 343.137573 391.908905 343.137573 Z"/>
            <path id="path2" fill="none" stroke="#ffffff" stroke-width="9.232873" stroke-linecap="round" stroke-linejoin="round" d="M 418.255219 276.094574 C 418.255219 276.094574 448.851349 304.461426 481.377747 273.845703"/>
            <path id="path3" fill="none" stroke="#ffffff" stroke-width="9.232873" stroke-linecap="round" stroke-linejoin="round" d="M 450.607239 288.068665 C 450.172302 246.840363 450.605042 247.068054 450.605042 247.068054 Z"/>
            <path id="path4" fill="none" stroke="#ffffff" stroke-width="9.232873" stroke-linecap="round" stroke-linejoin="round" d="M 508.957306 304.647583 C 508.957306 304.647583 467.24762 305.699066 465.334747 350.326721"/>
            <path id="path5" fill="none" stroke="#ffffff" stroke-width="9.232873" stroke-linecap="round" stroke-linejoin="round" d="M 477.43512 318.661346 C 506.530121 347.875092 506.06131 348.014221 506.06131 348.014221 Z"/>
        </g>
    </g>
</svg>
