<svg height="250" viewBox="0 0 250 250" width="250" xmlns="http://www.w3.org/2000/svg" xmlns:xlink="http://www.w3.org/1999/xlink"><radialGradient id="a" cx="158.756033" cy="87.264699" gradientUnits="userSpaceOnUse" r="95.578744"><stop offset=".00001" stop-color="#d3d7cf"/><stop offset="1" stop-color="#2e3436"/></radialGradient><linearGradient id="b"><stop offset=".00001"/><stop offset="1" stop-color="#d3d7cf"/></linearGradient><linearGradient id="c" gradientUnits="userSpaceOnUse" x1="125.368469" x2="129.502056" xlink:href="#b" y1="19.162799" y2="19.162799"/><linearGradient id="d" gradientUnits="userSpaceOnUse" x1="123.595109" x2="134.133205" xlink:href="#b" y1="38.113335" y2="37.858538"/><filter id="e" color-interpolation-filters="sRGB" filterUnits="userSpaceOnUse" height="250" width="250" x="0" y="0"><feGaussianBlur stdDeviation=".501764"/></filter><linearGradient id="f"><stop offset=".00001"/><stop offset="1" stop-opacity="0"/></linearGradient><linearGradient id="g" gradientUnits="userSpaceOnUse" x1="167.444978" x2="181.608971" xlink:href="#f" y1="86.956463" y2="98.66608"/><linearGradient id="h" gradientUnits="userSpaceOnUse" x1="174.960922" x2="171.596784" xlink:href="#b" y1="87.650273" y2="84.388183"/><linearGradient id="i" gradientUnits="userSpaceOnUse" x1="190.377301" x2="192.448146" xlink:href="#b" y1="79.988251" y2="82.726906"/><linearGradient id="j" gradientUnits="userSpaceOnUse" x1="74.267252" x2="60.103259" xlink:href="#f" y1="85.143514" y2="96.85313"/><linearGradient id="k" gradientUnits="userSpaceOnUse" x1="66.751308" x2="70.115446" xlink:href="#b" y1="85.837323" y2="82.575233"/><linearGradient id="l"><stop offset=".00001" stop-color="#f2f2f2"/><stop offset="1" stop-color="#f2f2f2" stop-opacity="0"/></linearGradient><linearGradient id="m" gradientUnits="userSpaceOnUse" x1="56.090305" x2="59.512358" xlink:href="#l" y1="80.332542" y2="90.488107"/><linearGradient id="n" gradientUnits="userSpaceOnUse" x1="51.334929" x2="49.264085" xlink:href="#b" y1="78.175301" y2="80.913957"/><linearGradient id="o" gradientUnits="userSpaceOnUse" x1="166.926992" x2="181.090986" xlink:href="#f" y1="173.524112" y2="161.814496"/><linearGradient id="p" gradientUnits="userSpaceOnUse" x1="170.987157" x2="178.832416" xlink:href="#b" y1="173.814995" y2="162.841795"/><linearGradient id="q" gradientUnits="userSpaceOnUse" x1="189.859315" x2="192.607659" xlink:href="#b" y1="180.492325" y2="176.85769"/><linearGradient id="r" gradientUnits="userSpaceOnUse" x1="81.864375" x2="67.700381" xlink:href="#f" y1="178.703968" y2="166.994352"/><linearGradient id="s" gradientUnits="userSpaceOnUse" x1="77.435807" x2="65.721698" xlink:href="#b" y1="175.111755" y2="166.425024"/><linearGradient id="t" gradientUnits="userSpaceOnUse" x1="63.687427" x2="67.109481" xlink:href="#l" y1="183.51494" y2="173.359375"/><linearGradient id="u" gradientUnits="userSpaceOnUse" x1="58.932052" x2="56.861207" xlink:href="#b" y1="185.672181" y2="182.933525"/><path d="m180.234512 38.496399c3.53096 2.34819 4.56691 7.053238 2.270508 10.497833-1.234527 1.85611-3.202865 2.95253-5.292084 3.228775l-2.615829 4.471955-8.995667-5.96547 3.125168-4.152511c-.561142-2.020142-.302154-4.256134.932373-6.112244 2.296402-3.444595 7.035981-4.316544 10.575531-1.968338zm-1.804306 2.7108c-1.951065-1.294968-4.584167-.768356-5.887756 1.182724-1.294968 1.942444-.75972 4.575531 1.182739 5.870499 1.95105 1.294967 4.592774.768356 5.887741-1.18274 1.294968-1.95108.768357-4.575515-1.182724-5.870483z" fill="#616665"/><path d="m65.120857 42.001419c-3.539551 2.348206-4.56689 7.053253-2.270511 10.497849 1.234554 1.856109 3.194255 2.952529 5.283481 3.220153l2.624436 4.480576 8.987053-5.974106-3.116532-4.143875c.552506-2.028778.302162-4.256104-.932388-6.112244-2.29641-3.444595-7.035965-4.316543-10.575539-1.968353zm1.804314 2.710815c1.951088-1.294967 4.584198-.768356 5.879158 1.174088 1.294968 1.95108.768333 4.584168-1.182755 5.879135-1.951057 1.294953-4.584175.759705-5.879135-1.182739-1.294967-1.95105-.768333-4.575531 1.182732-5.870484z" fill="#616665"/><path d="m210.089417 124.852356c0 46.613678-37.84163 84.40155-84.52166 84.40155-46.680024 0-84.521656-37.787872-84.521656-84.40155 0-46.613693 37.841632-84.40155 84.521656-84.40155 46.68003 0 84.52166 37.787857 84.52166 84.40155z" fill="url(#a)" stroke="#445057" stroke-width=".431653"/><path d="m124.819901 4.989594v28.53746h4.465301v-28.53746z" fill="url(#c)"/><path d="m117.803009 33.272308v7.643921h7.016892 4.465301 7.016892v-7.643921z" fill="url(#d)"/><path d="m153.698776 111.407486c.178559.025513.357193 0 .484818-.076355.153091-.076523.255096-.178391.331634-.331253l14.18689-10.268402c2.908859 3.56723 6.787247 5.274322 9.41539 3.898468.102081-.05101.204178-.152863.306259-.229386l.076538.152878 5.511383-4.204056.153168-.076522c.102005-.076355.153091-.203873.229629-.254731.255097-.152877.535813-.331253.739914-.560638.255188-.25473.433808-.534973.637894-.866226.178635-.331253.357269-.713501.459351-1.121109.127548-.407761.204101-.815369.255096-1.273987.025543-.331253.076553-.662506.076553-1.019257 0-.25473-.05101-.484115-.076553-.738845-.050995-.382264-.076538-.764374-.178543-1.17212-.076553-.48413-.153091-.968246-.306274-1.452362-.10199-.30574-.280625-.611496-.408173-.942749-.102097-.25473-.204163-.534958-.306259-.789871-.255097-.56047-.484726-1.146606-.790985-1.681579-.229645-.382264-.484818-.688004-.739914-1.044754-.153092-.203736-.306259-.407609-.459336-.636994-.025466 0 0-.050857 0-.076355-.408203-.509628-.918548-.993759-1.352355-1.426864-.484803-.484116-.944077-.891877-1.454361-1.273987-1.454422-1.121109-2.959839-1.83461-4.388749-1.987488-.918609-.101868-1.760604 0-2.55159.382263-.229629.127365-.459335.30574-.637909.484116l-.076522.076355c-.17865.178375-.382813.35675-.561356.560638l-3.903946 3.032089c-.306259.076355-.586899.178376-.867615.305741-2.883239 1.528717-3.138412 6.217071-.791 10.828888l-14.671661 10.599487.076522.076507c-.382705.382111-.382705 1.222977.076554 1.987336.408279.662506.995163 1.070266 1.505508 1.121124z" fill="#60625e" filter="url(#e)"/><path d="m180.693954 89.664505c2.008515 3.223099 2.782654 6.835968 2.018708 9.421402-.763932 2.585434-2.944123 3.731125-5.685318 2.987671-2.741242-.743454-5.606323-3.257507-7.471405-6.555985-2.008545-3.223068-2.782685-6.835937-2.018708-9.421386.763932-2.58545 2.944108-3.731125 5.685318-2.987686 2.741211.743469 5.606293 3.257522 7.471405 6.555984z" fill="url(#g)"/><path d="m175.519928 79.303375-5.664536 4.379959-.229644.157975c-.255173.165618-.5103.338882-.714432.557998-2.092331 2.145401-1.939255 6.726654.637894 11.068405 2.908813 4.925217 7.833374 7.66684 10.920822 6.051423.459274-.249695.791-.629349 1.122711-1.034485l5.89418-4.540467z" fill="url(#h)"/><path d="m186.766739 85.332947c2.008545 3.223114 2.782669 6.835983 2.018722 9.421402-.763931 2.585434-2.944107 3.73114-5.685318 2.987671-2.741241-.743439-5.606323-3.257492-7.471405-6.55597-2.008545-3.223083-2.782669-6.835952-2.018722-9.421402.763946-2.585434 2.944137-3.731124 5.685333-2.98767 2.741211.743454 5.606308 3.257507 7.47139 6.555969z" fill="#a4a7a1"/><path d="m199.760117 72.742477-19.468689 14.01384h.076629c-.459427.254746-.484817 1.273972 0 2.038193.535736.764511 1.428879 1.273987 2.015702 1.019241.051071 0 .102005 0 .153076-.25473l19.443161-14.01384z" fill="url(#i)"/><path d="m201.752747 73.67601c.366989.578217.508453 1.226364.368866 1.690186-.139588.463821-.537949.669357-1.038804.53598-.500869-.133362-1.024353-.584381-1.365142-1.176132-.36699-.578217-.508438-1.226349-.368851-1.690171.139603-.463836.537949-.669372 1.038803-.535995.50087.133377 1.024368.584396 1.365128 1.176132z" fill="#a5a8a2"/><path d="m61.018284 87.851563c-2.00853 3.223083-2.782654 6.835952-2.018715 9.421401.763935 2.585434 2.944115 3.731125 5.685322 2.987671 2.741234-.743454 5.606323-3.257507 7.471397-6.555984 2.008553-3.223084 2.782677-6.835953 2.018715-9.421387-.763931-2.585449-2.944115-3.73114-5.685326-2.987686-2.741203.743469-5.606292 3.257523-7.471393 6.555985z" fill="url(#j)"/><path d="m66.192291 77.490433 5.664551 4.379959.229637.157974c.255173.165619.510307.338867.71444.557999 2.092331 2.145401 1.939239 6.726639-.637894 11.06839-2.908821 4.925232-7.833382 7.666854-10.920834 6.051422-.45927-.249695-.790989-.629334-1.122711-1.03447l-5.89418-4.540481z" fill="url(#k)"/><path d="m54.945484 83.520004c-2.00853 3.223099-2.782654 6.835968-2.018719 9.421402.763939 2.585434 2.944119 3.731125 5.685322 2.987671 2.741234-.743439 5.60632-3.257492 7.471401-6.555969 2.008553-3.223099 2.782677-6.835968 2.018715-9.421402-.763939-2.585434-2.944114-3.73114-5.685321-2.987671-2.741208.743454-5.606297 3.257507-7.471398 6.555969z" stroke="url(#m)" stroke-width=".282442"/><path d="m41.952106 70.92952 19.468701 14.013839h-.076626c.459427.254746.48481 1.273987 0 2.038208-.535732.764511-1.428886 1.273972-2.015705 1.019226-.051079 0-.102009 0-.153088-.254715l-19.443157-14.013839z" fill="url(#n)"/><path d="m39.959469 71.863068c-.366985.578216-.508431 1.226364-.368847 1.690185.139584.463822.537937.669342 1.038799.53598.500866-.133377 1.024365-.584396 1.365139-1.176132.366993-.578216.508438-1.226349.368851-1.690185-.139584-.463822-.537941-.669358-1.038799-.535981-.500862.133362-1.024361.584382-1.365143 1.176133z"/><path d="m124.819901 245.044952v-28.537475h4.465301v28.537475z" fill="#2e3436"/><path d="m117.803009 216.762222v-7.643921h7.016892 4.465301 7.016892v7.643921z" fill="#2e3436"/><path d="m180.175964 170.816071c2.008515-3.223114 2.782654-6.835968 2.018723-9.421402-.763947-2.585434-2.944138-3.731125-5.685333-2.987687-2.741227.74347-5.606308 3.257508-7.47139 6.556-2.00856 3.223084-2.782684 6.835938-2.018723 9.421387.763932 2.585434 2.944107 3.73114 5.685318 2.987671 2.741211-.743454 5.606308-3.257508 7.471405-6.555969z" fill="url(#o)"/><path d="m175.001953 181.1772-5.664551-4.379959-.229644-.157974c-.255173-.165619-.5103-.338882-.714432-.557999-2.092331-2.145385-1.939255-6.726654.637909-11.06839 2.908798-4.925232 7.833359-7.666854 10.920822-6.051437.459274.24971.790985.629349 1.122696 1.03447l5.894195 4.540496z" fill="url(#p)"/><path d="m186.248764 175.147614c2.00853-3.223099 2.782654-6.835968 2.018723-9.421387-.763947-2.585434-2.944123-3.73114-5.685334-2.987671-2.741226.743439-5.606323 3.257477-7.471389 6.555969-2.008561 3.223084-2.78267 6.835953-2.018723 9.421402.763931 2.585434 2.944122 3.731125 5.685318 2.987671 2.741211-.743454 5.606293-3.257507 7.471405-6.555984z" fill="#5e6463"/><path d="m199.242142 187.738098-19.468689-14.01384h.076614c-.459427-.25473-.484817-1.273986 0-2.038192.535721-.764511 1.428894-1.273987 2.015701-1.019257.051072 0 .102005 0 .153092.254746l19.443146 14.013839z" fill="url(#q)"/><path d="m201.234772 186.804565c.366989-.578216.508438-1.226364.36885-1.690185-.139587-.463837-.537933-.669357-1.038803-.53598-.500869.133361-1.024368.584381-1.365127 1.176117-.366989.578216-.508454 1.226364-.368851 1.690185.139572.463837.537933.669357 1.038803.535996.500855-.133377 1.024338-.584397 1.365128-1.176133z" fill="#636867"/><path d="m177.096878 93.393311c.153091.025497.331726 0 .459274-.076371.153092-.076507.255173-.178375.331711-.305725l3.674317-2.624496-1.99025-3.108444-4.159103 2.930069.076538.10202c-.357178.382095-.382721 1.197479.076538 1.987335.408279.662491 1.020706 1.044754 1.530975 1.095612z" fill="#60625e" filter="url(#e)"/><path d="m176.841705 181.706085c.178635.025498.816529 1.528717.484818-.076523-.025467-.152877.255173-.152877.331711-.30574l3.903946-5.809296-1.99025-3.108612-4.388748 6.115204.076553.101868c-.382721.382248-.382721 1.197616.076538 1.987488.40828.662338.995163 1.044586 1.505432 1.095611z" fill="#555753" filter="url(#e)"/><path d="m68.61541 175.995911c-2.00853-3.223084-2.782654-6.835953-2.018723-9.421387.763939-2.585434 2.944123-3.73114 5.685326-2.987671 2.741226.743439 5.606323 3.257492 7.471397 6.555969 2.008553 3.223084 2.782677 6.835968 2.018715 9.421402-.763939 2.585434-2.944114 3.731125-5.685325 2.987686-2.741204-.743469-5.606293-3.257507-7.47139-6.555999z" fill="url(#r)"/><path d="m73.789421 186.357056 5.664543-4.379959.229637-.157975c.255173-.165619.510315-.338882.71444-.558014 2.092331-2.145385 1.939247-6.726623-.637894-11.068389-2.908821-4.925217-7.833389-7.66684-10.920837-6.051423-.459267.249695-.790985.629349-1.122704 1.034485l-5.894184 4.540467z" fill="url(#s)"/><path d="m62.542606 180.327469c-2.008529-3.223099-2.782653-6.835953-2.018718-9.421402.763939-2.585419 2.944118-3.73111 5.685325-2.987671 2.741226.743454 5.606316 3.257507 7.471398 6.555984 2.008552 3.223084 2.782676 6.835953 2.018715 9.421402-.763939 2.585434-2.944115 3.731125-5.685326 2.987671-2.741203-.743469-5.606293-3.257507-7.471394-6.555984z" stroke="url(#t)" stroke-width=".282442"/><path d="m49.549229 192.917953 19.4687-14.013839h-.076622c.459419-.25473.48481-1.273987 0-2.038178-.535736-.764526-1.428886-1.273987-2.015709-1.019256-.051079 0-.102005 0-.153091.25473l-19.443154 14.01384z" fill="url(#u)"/><path d="m47.556591 191.984421c-.366985-.578232-.50843-1.226364-.368847-1.690186.139584-.463821.537937-.669357 1.038799-.535995.500866.133392 1.024365.584396 1.365143 1.176147.366989.578217.508435 1.226349.368847 1.690186-.139583.463806-.537937.669342-1.038799.53598-.500862-.133377-1.024361-.584396-1.365143-1.176132z"/></svg>