<svg height="250" viewBox="0 0 250 250" width="250" xmlns="http://www.w3.org/2000/svg" xmlns:xlink="http://www.w3.org/1999/xlink"><linearGradient id="a" gradientUnits="userSpaceOnUse" x1="0" x2="250" y1="125" y2="125"><stop offset="0" stop-color="#09388f"/><stop offset="1" stop-color="#0376bb"/></linearGradient><radialGradient id="b" cx="156.610403" cy="89.861425" gradientUnits="userSpaceOnUse" r="94.005722"><stop offset=".00001" stop-color="#d3d7cf"/><stop offset="1" stop-color="#2e3436"/></radialGradient><linearGradient id="c" gradientUnits="userSpaceOnUse" x1="122.254103" x2="129.701911" y1="21.400298" y2="21.400298"><stop offset=".00001"/><stop offset=".711695" stop-color="#d3d7cf"/></linearGradient><linearGradient id="d"><stop offset=".00001"/><stop offset="1" stop-color="#d3d7cf"/></linearGradient><linearGradient id="e" gradientUnits="userSpaceOnUse" x1="122.028152" x2="132.392814" xlink:href="#d" y1="41.518987" y2="41.268383"/><filter id="f" color-interpolation-filters="sRGB" filterUnits="userSpaceOnUse" height="250" width="250" x="0" y="0"><feGaussianBlur stdDeviation=".493506"/></filter><linearGradient id="g"><stop offset=".00001"/><stop offset="1" stop-opacity="0"/></linearGradient><linearGradient id="h" gradientUnits="userSpaceOnUse" x1="165.156346" x2="179.087231" xlink:href="#g" y1="89.558262" y2="101.075163"/><linearGradient id="i" gradientUnits="userSpaceOnUse" x1="172.548594" x2="169.239822" xlink:href="#d" y1="90.240652" y2="87.03225"/><linearGradient id="j" gradientUnits="userSpaceOnUse" x1="195.450203" x2="199.033386" y1="75.317974" y2="80.056671"><stop offset=".00001"/><stop offset=".570192" stop-color="#d3d7cf"/></linearGradient><linearGradient id="k" gradientUnits="userSpaceOnUse" x1="79.358025" x2="61.450801" xlink:href="#g" y1="83.976521" y2="98.780731"/><linearGradient id="l" gradientUnits="userSpaceOnUse" x1="69.855782" x2="74.108988" xlink:href="#d" y1="84.853689" y2="80.729501"/><linearGradient id="m"><stop offset=".00001" stop-color="#f2f2f2"/><stop offset="1" stop-color="#f2f2f2" stop-opacity="0"/></linearGradient><linearGradient id="n" gradientUnits="userSpaceOnUse" x1="56.377311" x2="60.703738" xlink:href="#m" y1="77.894116" y2="90.733573"/><linearGradient id="o" gradientUnits="userSpaceOnUse" x1="47.061067" x2="43.782704" y1="72.01301" y2="76.348587"><stop offset=".00001"/><stop offset=".507159" stop-color="#d3d7cf"/></linearGradient><linearGradient id="p" gradientUnits="userSpaceOnUse" x1="164.646886" x2="178.57777" xlink:href="#g" y1="174.701192" y2="163.184291"/><linearGradient id="q" gradientUnits="userSpaceOnUse" x1="168.640228" x2="176.356371" xlink:href="#d" y1="174.987288" y2="164.194683"/><linearGradient id="r" gradientUnits="userSpaceOnUse" x1="193.040867" x2="197.292484" y1="187.128064" y2="181.505376"><stop offset=".00001"/><stop offset=".541145" stop-color="#d3d7cf"/></linearGradient><linearGradient id="s" gradientUnits="userSpaceOnUse" x1="80.984217" x2="67.053332" xlink:href="#g" y1="179.795799" y2="168.278898"/><linearGradient id="t" gradientUnits="userSpaceOnUse" x1="76.628533" x2="65.107214" xlink:href="#d" y1="176.262706" y2="167.71894"/><linearGradient id="u" gradientUnits="userSpaceOnUse" x1="63.106423" x2="66.472157" xlink:href="#m" y1="184.527593" y2="174.539166"/><linearGradient id="v" gradientUnits="userSpaceOnUse" x1="53.865709" x2="50.917035" y1="191.005241" y2="187.105671"><stop offset=".00001"/><stop offset=".499862" stop-color="#d3d7cf"/></linearGradient><path d="m250 125c0-69.035599-55.964401-125-125-125-69.035595 0-125 55.964401-125 125s55.964405 125 125 125c69.035599 0 125-55.964401 125-125z" fill="url(#a)" fill-rule="evenodd"/><path d="m177.735397 41.895737c3.47284 2.309555 4.491745 6.937164 2.233139 10.325073-1.214203 1.825561-3.150161 2.903946-5.205001 3.175629l-2.57277 4.398361-8.847625-5.867279 3.073745-4.084183c-.55191-1.986893-.29718-4.186081.917023-6.011642 2.258606-3.387909 6.920197-4.245514 10.401489-1.935959zm-1.774627 2.666198c-1.918946-1.273651-4.508713-.755722-5.790848 1.163254-1.273651 1.910477-.747208 4.500229 1.163269 5.77388 1.918945 1.273651 4.517197.755722 5.790848-1.163269 1.273651-1.918976.755722-4.500213-1.163269-5.773865z" fill="#454545"/><path d="m64.516258 45.343094c-3.481292 2.309555-4.491726 6.937164-2.233139 10.325073 1.214234 1.825562 3.141686 2.903931 5.196526 3.167145l2.581245 4.406845 8.83915-5.875793-3.065247-4.075669c.543411-1.995407.297188-4.186065-.917046-6.011658-2.258613-3.387908-6.920166-4.245498-10.401489-1.935943zm1.77462 2.666183c1.918976-1.273651 4.508751-.755706 5.782402 1.15477 1.273651 1.918976.755684 4.508728-1.163292 5.782379-1.918945 1.273652-4.50872.747208-5.782379-1.163269-1.273647-1.918945-.755684-4.500229 1.163269-5.77388z" fill="#2a2a2a"/><path d="m207.098953 126.830467c0 45.846535-37.218841 83.01249-83.130615 83.01249s-83.130615-37.165955-83.130615-83.01249c0-45.846519 37.218841-83.012474 83.130615-83.012474s83.130615 37.165955 83.130615 83.012474z" fill="url(#b)" stroke="#445057" stroke-width=".424549"/><path d="m121.265701 6v31.008194h8.045471v-31.008194z" fill="url(#c)"/><path d="m116.331375 36.757645v7.518112h6.901405 4.391808 6.901413v-7.518112z" fill="url(#e)"/><path d="m151.636383 113.606873c.175613.025085.351303 0 .476822-.075104.150589-.075257.2509-.175446.326187-.325806l13.9534-10.099396c2.860992 3.508515 6.675552 5.187516 9.260437 3.83432.100403-.050186.200821-.15036.301208-.225631l.075287.15036 5.420685-4.134857.150635-.075257c.100341-.075103.150589-.200531.22586-.250534.250901-.15036.526993-.325805.727738-.551422.250976-.250534.426666-.526169.627395-.851974.17569-.325791.35138-.701752.451783-1.102646.125457-.401062.200744-.801956.2509-1.253021.025116-.325806.075287-.651597.075287-1.002488 0-.250534-.050171-.47615-.075287-.726684-.050156-.375962-.075272-.751785-.175614-1.152832-.075286-.476166-.150558-.952317-.301223-1.428452-.100312-.30072-.276017-.60144-.401459-.927231-.100403-.250549-.200806-.526168-.301224-.77687-.250885-.551255-.476745-1.127747-.777969-1.653916-.225846-.375961-.476822-.676681-.727722-1.027557-.150574-.200379-.301224-.400894-.451783-.626511-.025039 0 0-.050018 0-.075104-.401474-.501235-.903427-.977386-1.330093-1.403366-.476822-.476165-.928543-.877212-1.43042-1.253036-1.430481-1.102646-2.911148-1.804413-4.316513-1.954773-.903503-.100189-1.731628 0-2.509613.375977-.225845.125274-.451782.300704-.627396.47615l-.075286.075089c-.17569.175445-.376496.350891-.552109.551406l-3.839691 2.982193c-.301224.075104-.57724.175446-.853333.300721-2.8358 1.503555-3.086777 6.114746-.777985 10.650665l-14.430206 10.425033.075272.075257c-.376404.375824-.376404 1.20285.075302 1.954635.40155.651596.978775 1.052643 1.480728 1.102662z" fill="#60625e" filter="url(#f)"/><path d="m178.187271 92.221741c1.975464 3.170059 2.736847 6.723465 1.985474 9.266327-.751358 2.542892-2.895645 3.669738-5.591751 2.938507-2.696106-.731217-5.514038-3.203888-7.348435-6.448075-1.975494-3.170044-2.736877-6.723449-1.985473-9.266342.751358-2.542892 2.89566-3.669723 5.591751-2.938507 2.69609.731232 5.514022 3.203903 7.348434 6.44809z" fill="url(#h)"/><path d="m173.098404 82.031128-5.57132 4.307877-.22586.15538c-.250962.162887-.501908.333297-.702683.548813-2.057892 2.110077-1.907318 6.615936.627396 10.88623 2.860947 4.844162 7.704468 7.540665 10.741104 5.951828.451706-.245575.777969-.618973 1.104233-1.017456l5.79718-4.465744z" fill="url(#i)"/><path d="m184.16011 87.961472c1.97548 3.170059 2.736878 6.723465 1.985505 9.266342-.751358 2.542877-2.895661 3.669723-5.591751 2.938507-2.696122-.731217-5.514054-3.203888-7.348435-6.44809-1.975494-3.170028-2.736893-6.723434-1.985504-9.266342.751373-2.542877 2.895676-3.669708 5.591766-2.938507 2.696091.731232 5.514023 3.203903 7.348419 6.44809z" fill="#a4a7a1"/><path d="m211.685303 62.780609-33.686692 24.248154h.132584c-.794937.44078-.838867 2.204361 0 3.526672.926987 1.32283 2.472397 2.204392 3.487763 1.763611.088394 0 .176513 0 .264892-.440781l33.642517-24.248153z" fill="url(#j)"/><path d="m215.133148 64.395905c.63501 1.000488.879761 2.121963.638245 2.924514-.241547.802567-.930817 1.158203-1.79744.92743-.866653-.230774-1.772461-1.01117-2.362121-2.035065-.634995-1.000488-.879731-2.121964-.638214-2.92453.241546-.802551.930816-1.158188 1.797439-.927414.866654.230789 1.772461 1.011185 2.362091 2.035065z" fill="#a5a8a2"/><path d="m62.607647 87.400253c-2.539337 4.074875-3.518047 8.642548-2.552219 11.911255.965827 3.268707 3.722183 4.717194 7.187828 3.777252 3.465675-.939926 7.087951-4.118377 9.445922-8.288574 2.539368-4.07489 3.518082-8.642563 2.552216-11.91127-.96582-3.268707-3.722176-4.717194-7.187828-3.777252-3.465645.939941-7.087914 4.118408-9.445919 8.288589z" fill="url(#k)"/><path d="m69.149033 74.300888 7.161567 5.537491.290322.199722c.322609.209397.645172.428436.903251.705475 2.645287 2.712372 2.451737 8.504349-.80648 13.993515-3.677551 6.226868-9.903572 9.693039-13.806969 7.650681-.580643-.315674-1.000027-.795655-1.419414-1.307846l-7.451886-5.740433z" fill="url(#l)"/><path d="m54.929939 81.923965c-2.539337 4.074875-3.518051 8.642548-2.552219 11.911255.965828 3.268723 3.722183 4.717179 7.187828 3.777253 3.465675-.939927 7.087948-4.118378 9.445927-8.288575 2.539367-4.07489 3.518074-8.642547 2.552215-11.91127-.965828-3.268707-3.722183-4.717178-7.187828-3.777252-3.465649.939941-7.087917 4.118408-9.445923 8.288589z" stroke="url(#n)" stroke-width=".357085"/><path d="m32.207081 60.542191 30.82098 22.185363h-.1213c.727318.403275.767502 2.016861 0 3.226685-.848125 1.210297-2.262081 2.016846-3.19107 1.613556-.080872 0-.161492 0-.24236-.403259l-30.780548-22.185364z" fill="url(#o)"/><path d="m29.052528 62.020096c-.58098.915375-.804901 1.941452-.583925 2.67572.220978.734283.851612 1.059662 1.644529.848526.792923-.211151 1.621672-.925156 2.16116-1.861938.580986-.915375.804909-1.941452.583923-2.675751-.220977-.734268-.851612-1.059647-1.644527-.848496-.792917.211121-1.621666.925141-2.16116 1.861939z"/><path d="m123.23278 245.044952v-28.06781h4.391808v28.06781z"/><path d="m116.331375 217.227692v-7.518113h6.901405 4.391808 6.901413v7.518113z" fill="#262626"/><path d="m177.677811 172.03772c1.975464-3.170059 2.736847-6.72345 1.985489-9.266358-.751374-2.542877-2.895676-3.669708-5.591752-2.938492-2.696121.731217-5.514053 3.203888-7.348434 6.448075-1.975494 3.170044-2.736877 6.72345-1.985504 9.266342.751358 2.542892 2.89566 3.669723 5.591751 2.938507 2.696106-.731216 5.514038-3.203903 7.34845-6.448074z" fill="url(#p)"/><path d="m172.588943 182.228333-5.571319-4.307892-.225861-.155365c-.250976-.162888-.501907-.333313-.702682-.548828-2.057892-2.110077-1.907334-6.615937.627411-10.886216 2.860931-4.844162 7.704452-7.540664 10.741089-5.951843.451721.24559.777984.619003 1.104232 1.017441l5.797181 4.465774z" fill="url(#q)"/><path d="m183.650665 176.297974c1.975464-3.170044 2.736847-6.72345 1.985489-9.266327-.751373-2.542893-2.89566-3.669739-5.591766-2.938507-2.696106.731201-5.514054 3.203888-7.348419 6.448074-1.97551 3.170029-2.736878 6.72345-1.985489 9.266342.751358 2.542877 2.89566 3.669724 5.591751 2.938507 2.696091-.731231 5.514023-3.203903 7.348434-6.448089z" fill="#5e6463"/><path d="m207.555862 198.337097-30.117584-21.679046h.11853c-.710723-.394074-.749984-1.970826 0-3.153046.828766-1.182678 2.210465-1.97081 3.118241-1.576752.079025 0 .157806 0 .236831.394074l30.078064 21.679062z" fill="url(#r)"/><path d="m210.638412 196.892944c.567719-.8945.78653-1.897155.570603-2.614685-.215927-.717529-.832169-1.035476-1.60701-.829147-.774826.206314-1.584656.904037-2.111832 1.819443-.567718.894485-.786544 1.897155-.570587 2.614669.215927.717515.832169 1.035477 1.606995.829148.774811-.20633 1.58464-.904022 2.111831-1.819428z" fill="#636867"/><path d="m174.649399 95.889175c.150574.025086.326263 0 .451721-.075119.150558-.075241.250977-.17543.326248-.300689l3.613831-2.581299-1.957474-3.057297-4.090668 2.881851.075287.100342c-.351303.375809-.376434 1.177765.075272 1.95462.401565.651597 1.003906 1.027558 1.505783 1.077591z" fill="#60625e" filter="url(#f)"/><path d="m174.398422 182.748505c.175705.025085.803086 1.503555.476837-.075257-.025039-.15036.250977-.15036.326249-.30072l3.839691-5.713684-1.957474-3.057434-4.316528 6.014557.075302.100174c-.376435.375961-.376435 1.177917.075271 1.954788.401551.651428.978775 1.027405 1.480652 1.077576z" fill="#555753" filter="url(#f)"/><path d="m67.9533 177.132324c-1.975471-3.170059-2.736862-6.723449-1.985496-9.266342.751366-2.542892 2.895668-3.669723 5.591759-2.938507 2.696113.731216 5.514045 3.203888 7.348434 6.448074 1.975495 3.170044 2.736878 6.72345 1.985489 9.266358-.751366 2.542877-2.89566 3.669723-5.591759 2.938492-2.696083-.731217-5.514023-3.203888-7.348427-6.448075z" fill="url(#s)"/><path d="m73.04216 187.322937 5.57132-4.307892.225853-.155365c.250976-.162887.501915-.333313.702682-.548828 2.0579-2.110077 1.907326-6.615936-.627396-10.886215-2.860946-4.844162-7.704467-7.540665-10.741096-5.951828-.451714.245575-.777977.618988-1.104233 1.017441l-5.79718 4.465759z" fill="url(#t)"/><path d="m61.980442 181.392578c-1.975471-3.170044-2.736858-6.72345-1.985493-9.266327.751366-2.542877 2.895665-3.669739 5.591759-2.938507 2.696114.731201 5.514046 3.203888 7.348427 6.448074 1.975502 3.170044 2.736885 6.72345 1.985496 9.266343-.751365 2.542877-2.89566 3.669723-5.591758 2.938507-2.696091-.731232-5.514027-3.203888-7.348431-6.44809z" stroke="url(#u)" stroke-width=".277794"/><path d="m40.505516 201.322495 27.721466-19.9543h-.1091c.654175-.362717.690315-1.814026 0-2.902176-.762833-1.088593-2.034592-1.814026-2.870163-1.45131-.072739 0-.145249 0-.217987.362717l-27.685101 19.9543z" fill="url(#v)"/><path d="m37.668198 199.993225c-.522553-.823318-.723954-1.746216-.5252-2.406647.198753-.660431.765968-.953094 1.479145-.763183.713184.189911 1.458591.832107 1.943825 1.674682.52256.823334.72396 1.746216.525199 2.406662-.198753.660431-.765968.953095-1.479145.763184-.713176-.189911-1.458583-.832108-1.943824-1.674698z"/></svg>