<svg height="943" viewBox="0 0 490 943" width="490" xmlns="http://www.w3.org/2000/svg" xmlns:xlink="http://www.w3.org/1999/xlink"><linearGradient id="a"><stop offset=".00001" stop-color="#fff"/><stop offset=".032429" stop-color="#fff"/><stop offset=".44815" stop-color="#6e6e6e"/><stop offset=".72669" stop-color="#fff"/><stop offset="1" stop-color="#6e6e6e"/></linearGradient><linearGradient id="b" gradientUnits="userSpaceOnUse" x1="480.709173" x2="490.512473" xlink:href="#a" y1="348.061036" y2="348.061036"/><linearGradient id="c" gradientUnits="userSpaceOnUse" x1="480.247115" x2="487.080523" xlink:href="#a" y1="453.399304" y2="453.399304"/><filter id="d" color-interpolation-filters="sRGB" filterUnits="userSpaceOnUse" height="943" width="490" x="0" y="0"><feGaussianBlur stdDeviation=".445218"/></filter><linearGradient id="e"><stop offset=".00001" stop-color="#fff"/><stop offset="1" stop-color="#fff" stop-opacity="0"/></linearGradient><linearGradient id="f" gradientUnits="userSpaceOnUse" x1="513.123549" x2="373.74352" xlink:href="#e" y1="31.519804" y2="85.595625"/><linearGradient id="g" gradientUnits="userSpaceOnUse" x1="-73.733176" x2="299.258833" xlink:href="#e" y1="230.211456" y2="558.0435"/><path d="m480.919983 360.210999-.215393-24.299988h6.248047v4.1698l3.447204 2.444397.107727 10.783996-3.23175 2.731995.107727 4.1698z" fill="url(#b)"/><path d="m480.380005 505.621002v-103.800018l5.639282.278564s-1.746277 31.957001-1.654297 47.959015c.106751 18.554016 2.557801 55.565003 2.557801 55.565003z" fill="url(#c)" stroke="#000" stroke-width=".29183"/><path d="m29.757002 1.083008h421.836016c15.473327 0 28.016967 12.54364 28.016967 28.016968v884.145996c0 15.473388-12.54364 28.017028-28.016967 28.017028h-421.836016c-15.473367 0-28.016999-12.54364-28.016999-28.017028v-884.145996c0-15.473328 12.543632-28.016968 28.016999-28.016968z" fill-rule="evenodd" stroke="#fff" stroke-linejoin="bevel" stroke-width="3.4867"/><path d="m481.450012 360.161011-.034485-24.217041 5.507996.030334-.020142 4.201294.112061 7.304016.140442 5.475281.068603 3.799377.100098 3.426636z" fill="none" stroke="#1a1a1a" stroke-width=".13147"/><path d="m31.816008 3.836975h418.447969c15.378967 0 27.846008 12.467102 27.846008 27.846008v880.187989c0 15.378906-12.467041 27.846008-27.846008 27.846008h-418.447969c-15.37893 0-27.846009-12.467102-27.846009-27.846008v-880.187989c0-15.378906 12.467079-27.846008 27.846009-27.846008z" fill="none" stroke="#808080" stroke-linejoin="bevel" stroke-width="2.6189"/><text fill="#fff" font-family="Helvetica" font-size="20.350798" x="403" xml:space="preserve" y="96">12:36     </text><path d="m365.220001 95.250977 28.471009.07904v-11.619018l-28.471009-.07898-.024994 3.469177-3.309112.03949-.025879 5.09259 3.375488.032715z" fill="none" stroke="#fff" stroke-width="1.2164"/><g fill-rule="evenodd"><path d="m386.140015 84.671021h6.128479v9.385253h-6.128479z" fill="#f9f9f9"/><path d="m378.940002 84.671021h6.12851v9.385253h-6.12851z" fill="#f9f9f9"/><path d="m371.570007 84.671021h6.12851v9.385253h-6.12851z" fill="#f9f9f9"/><path d="m332.959991 90.700989h2.935425v5.041504h-2.935425z" fill="#fff"/><path d="m337.529999 88.051025h2.935394v7.696106h-2.935394z" fill="#fff"/><path d="m342.220001 85.270996h2.935395v10.471008h-2.935395z" fill="#fff"/><path d="m346.76001 81.770996h2.935394v13.970032h-2.935394z" fill="#fff" opacity=".4292"/></g><path d="m241.01001 828.510986-17.438019 19.620972 4.624603.037354v12.033996h8.095215l.120056-12.072021h9.420777l-.120057 11.807006 7.667511.025269v-11.794983l3.837189-.037414z" fill="none" stroke="#fff" stroke-width="2.3153"/><path d="m369.860016 838.901001h31.953979v20.311951h-31.953979z" fill="none" stroke="#fff" stroke-width="2.106"/><path d="m378.940002 834.971008h26.929993v19.931946" fill="none" stroke="#fff" stroke-width="1.9465"/><path d="m101.681145 835.190674-.039322 11.743408-9.808335-5.906921z" fill="#fff" stroke="#fff" stroke-width=".47529"/><path d="m95.01001 858.460999c16.841995.506347 33.515991 1.25946 33.494995-8.547791-.020905-9.807312-11.400009-8.904419-33.751007-8.904419" fill="none" stroke="#fff" stroke-width="2.0211"/><path d="m250.905823 41.534302c0 5.50531-4.560837 9.968689-10.187317 9.968689-5.626068 0-10.187332-4.462952-10.187332-9.968689 0-5.505249 4.560852-9.968628 10.187332-9.968628 5.626053 0 10.187317 4.462951 10.187317 9.968628z" fill="#fff" fill-rule="evenodd" opacity=".13" stroke="#fff" stroke-width="1.591053"/><path d="m244.812286 41.601685c0 2.19873-1.821624 3.981384-4.068863 3.981384-2.24707 0-4.068862-1.782471-4.068862-3.981384 0-2.198731 1.821624-3.981324 4.068862-3.981324 2.247071 0 4.068863 1.78241 4.068863 3.981324z" fill="none" opacity=".95575" stroke="#000100" stroke-width=".123755"/><path d="m244.812286 41.601685c0 2.19873-1.821624 3.981384-4.068863 3.981384-2.24707 0-4.068862-1.782471-4.068862-3.981384 0-2.198731 1.821624-3.981324 4.068862-3.981324 2.247071 0 4.068863 1.78241 4.068863 3.981324z" fill="#fff" fill-rule="evenodd" opacity=".19469" stroke="#000100" stroke-width=".123755"/><path d="m239.537094 43.831238c0 .48645-.402969.880798-.900101.880798-.4971 0-.900116-.394348-.900116-.880798 0-.486389.402985-.880799.900116-.880799.497086 0 .900101.394349.900101.880799z" fill="#d5fff6" fill-rule="evenodd" opacity=".37611" stroke="#3d3f41" stroke-width=".007346"/><path d="m241.644272 41.60144c0 .483826-.400818.876038-.895264.876038-.494415 0-.895263-.392212-.895263-.876038 0-.483825.400817-.876098.895263-.876098.494415 0 .895264.392212.895264.876098z" fill-rule="evenodd" opacity=".71681" stroke="#3d3f41" stroke-width=".007306"/><path d="m237.52272 41.153564c-.018417-.109497-.029937-.221801-.029937-.335205 0-1.4281 1.502884-2.586181 3.359191-2.586181 1.856308 0 3.359177 1.158142 3.359177 2.586181 0 .089234-.018478.176453-.029922.263367-.561219-.62323-1.822235-1.05365-3.299179-1.05365-1.533234 0-2.833451.463928-3.359192 1.125488z" style="fill:#00cc8a;fill-rule:evenodd;stroke:#3d3f41;stroke-width:.024333;opacity:.57522;filter:url(#d)"/><path d="m237.351715 42.319397c-.018417.109558-.029922.221863-.029922.335266 0 1.428101 1.502868 2.586121 3.359176 2.586121s3.359192-1.158081 3.359192-2.586121c0-.089233-.018494-.176514-.029938-.263428-.561218.623291-1.822235 1.05365-3.299179 1.05365-1.533218 0-2.83345-.463867-3.359192-1.125427z" style="fill:#ff2a2a;fill-rule:evenodd;stroke:#3d3f41;stroke-width:.024333;opacity:.57522;filter:url(#d)"/><path d="m244.096344 39.99408c0 .893615-.751801 1.618042-1.67926 1.618042-.927384 0-1.679261-.724366-1.679261-1.618042 0-.893616.751801-1.618103 1.679261-1.618103.927398 0 1.67926.724426 1.67926 1.618103z" fill="#afe9c6" fill-rule="evenodd" opacity=".52655" stroke="#3d3f41" stroke-width=".013601"/><path d="m251.80542 41.534302c0 5.993347-4.965164 10.852356-11.090424 10.852356-6.124801 0-11.090408-4.858582-11.090408-10.852356 0-5.993347 4.965164-10.852356 11.090408-10.852356 6.124802 0 11.090424 4.858581 11.090424 10.852356z" fill="none" opacity=".68584" stroke="#fff" stroke-width=".523227"/><path d="m477.450012 137.341003c-1.140625-5.927185-.004028.010498-.01062.010498h-1.020264c-34.340026-67.150024-83.180023-107.820007-125.820037-132.220031 26.400024-.201721 42.028015-.32367 57.626007-.932129 86.913025-3.390381 66.974975.730408 69.218994 133.140014z" fill="url(#f)" fill-rule="evenodd" opacity=".58173"/><path d="m21.770002 70.231018c-.017303 0-.028198.012207-.028198.031555v801.470032c0 .019653.010803.06366.028198.06366h3.951294c91.890002-407.099945 221.360003-653.669983 335.470019-801.559937h-339.420016z" fill="url(#g)" fill-rule="evenodd" opacity=".58173"/><text xml:space="preserve"><tspan fill="#00a2ff" font-family="Helvetica" font-size="36.131" letter-spacing="2.0414" x="296" xml:space="preserve" y="43"></tspan><tspan fill="#00a2ff" font-family="Helvetica" font-size="7.2262" letter-spacing="2.0414">z</tspan><tspan fill="#00a2ff" font-family="Helvetica" font-size="36.131" letter-spacing="2.0414" xml:space="preserve"></tspan><tspan fill="#00a2ff" font-family="Helvetica" font-size="9.936" letter-spacing="2.0414">z</tspan><tspan fill="#00a2ff" font-family="Helvetica" font-size="36.131" letter-spacing="2.0414" xml:space="preserve"></tspan><tspan fill="#00a2ff" font-family="Helvetica" font-size="12.646" letter-spacing="2.0414">z</tspan><tspan fill="#00a2ff" font-family="Helvetica" font-size="36.131" letter-spacing="2.0414" xml:space="preserve"></tspan></text></svg>