<svg height="81" viewBox="0 0 459 81" width="459" xmlns="http://www.w3.org/2000/svg"><g opacity=".397295"><path d="m153 0h9v9h-9z"/><path d="m153 9h9v9h-9z"/><path d="m153 45h9v9h-9z"/><path d="m153 63h9v9h-9z"/><path d="m162 18h9v9h-9z"/><path d="m162 27h9v9h-9z"/><path d="m162 36h9v9h-9z"/><path d="m162 63h9v9h-9z"/><path d="m171 0h9v9h-9z"/><path d="m171 9h9v9h-9z"/><path d="m171 36h9v9h-9z"/><path d="m171 45h9v9h-9z"/><path d="m180 9h9v9h-9z"/><path d="m180 36h9v9h-9z"/><path d="m180 54h9v9h-9z"/><path d="m171 72h9v9h-9z"/><path d="m189 9h9v9h-9z"/><path d="m189 18h9v9h-9z"/><path d="m126 54h9v9h-9z"/><path d="m189 45h9v9h-9z"/><path d="m189 54h9v9h-9z"/><path d="m189 63h9v9h-9z"/><path d="m189 72h9v9h-9z"/><path d="m198 9h9v9h-9z"/><path d="m198 27h9v9h-9z"/><path d="m198 36h9v9h-9z"/><path d="m198 54h9v9h-9z"/><path d="m198 72h9v9h-9z"/><path d="m207 0h9v9h-9z"/><path d="m207 18h9v9h-9z"/><path d="m207 36h9v9h-9z"/><path d="m207 54h9v9h-9z"/><path d="m108 72h9v9h-9z"/><path d="m216 0h9v9h-9z"/><path d="m216 18h9v9h-9z"/><path d="m216 27h9v9h-9z"/><path d="m216 36h9v9h-9z"/><path d="m216 54h9v9h-9z"/><path d="m216 63h9v9h-9z"/><path d="m216 72h9v9h-9z"/><path d="m378 0h9v9h-9z"/><path d="m378 18h9v9h-9z"/><path d="m378 45h9v9h-9z"/><path d="m378 54h9v9h-9z"/><path d="m225 9h9v9h-9z"/><path d="m225 36h9v9h-9z"/><path d="m0 0h9v9h-9z"/><path d="m0 9h9v9h-9z"/><path d="m0 45h9v9h-9z"/><path d="m0 63h9v9h-9z"/><path d="m387 0h9v9h-9z"/><path d="m387 9h9v9h-9z"/><path d="m387 18h9v9h-9z"/><path d="m387 27h9v9h-9z"/><path d="m234 18h9v9h-9z"/><path d="m234 27h9v9h-9z"/><path d="m234 36h9v9h-9z"/><path d="m234 45h9v9h-9z"/><path d="m81 72h9v9h-9z"/><path d="m234 63h9v9h-9z"/><path d="m234 72h9v9h-9z"/><path d="m9 0h9v9h-9z"/><path d="m9 18h9v9h-9z"/><path d="m9 27h9v9h-9z"/><path d="m9 45h9v9h-9z"/><path d="m9 54h9v9h-9z"/><path d="m396 0h9v9h-9z"/><path d="m396 27h9v9h-9z"/><path d="m396 36h9v9h-9z"/><path d="m396 54h9v9h-9z"/><path d="m243 9h9v9h-9z"/><path d="m243 18h9v9h-9z"/><path d="m243 36h9v9h-9z"/><path d="m243 72h9v9h-9z"/><path d="m18 9h9v9h-9z"/><path d="m18 45h9v9h-9z"/><path d="m405 0h9v9h-9z"/><path d="m405 18h9v9h-9z"/><path d="m405 36h9v9h-9z"/><path d="m252 0h9v9h-9z"/><path d="m252 18h9v9h-9z"/><path d="m252 54h9v9h-9z"/><path d="m252 72h9v9h-9z"/><path d="m27 18h9v9h-9z"/><path d="m27 45h9v9h-9z"/><path d="m27 63h9v9h-9z"/><path d="m414 18h9v9h-9z"/><path d="m414 27h9v9h-9z"/><path d="m378 72h9v9h-9z"/><path d="m387 63h9v9h-9z"/><path d="m396 63h9v9h-9z"/><path d="m396 72h9v9h-9z"/><path d="m414 54h9v9h-9z"/><path d="m405 72h9v9h-9z"/><path d="m261 18h9v9h-9z"/><path d="m261 72h9v9h-9z"/><path d="m36 0h9v9h-9z"/><path d="m36 9h9v9h-9z"/><path d="m36 18h9v9h-9z"/><path d="m36 63h9v9h-9z"/><path d="m36 72h9v9h-9z"/><path d="m423 0h9v9h-9z"/><path d="m423 18h9v9h-9z"/><path d="m423 27h9v9h-9z"/><path d="m423 45h9v9h-9z"/><path d="m270 9h9v9h-9z"/><path d="m45 27h9v9h-9z"/><path d="m45 36h9v9h-9z"/><path d="m45 54h9v9h-9z"/><path d="m45 63h9v9h-9z"/><path d="m432 9h9v9h-9z"/><path d="m441 9h9v9h-9z"/><path d="m432 18h9v9h-9z"/><path d="m432 36h9v9h-9z"/><path d="m432 45h9v9h-9z"/><path d="m432 54h9v9h-9z"/><path d="m279 27h9v9h-9z"/><path d="m270 45h9v9h-9z"/><path d="m279 54h9v9h-9z"/><path d="m54 18h9v9h-9z"/><path d="m54 27h9v9h-9z"/><path d="m288 0h9v9h-9z"/><path d="m144 72h9v9h-9z"/><path d="m288 18h9v9h-9z"/><path d="m288 36h9v9h-9z"/><path d="m288 45h9v9h-9z"/><path d="m288 54h9v9h-9z"/><path d="m63 18h9v9h-9z"/><path d="m63 45h9v9h-9z"/><path d="m450 18h9v9h-9z"/><path d="m450 27h9v9h-9z"/><path d="m450 45h9v9h-9z"/><path d="m450 54h9v9h-9z"/><path d="m441 63h9v9h-9z"/><path d="m441 72h9v9h-9z"/><path d="m297 0h9v9h-9z"/><path d="m297 9h9v9h-9z"/><path d="m297 18h9v9h-9z"/><path d="m297 45h9v9h-9z"/><path d="m297 72h9v9h-9z"/><path d="m72 0h9v9h-9z"/><path d="m72 9h9v9h-9z"/><path d="m72 18h9v9h-9z"/><path d="m72 27h9v9h-9z"/><path d="m72 54h9v9h-9z"/><path d="m72 63h9v9h-9z"/><path d="m306 27h9v9h-9z"/><path d="m306 72h9v9h-9z"/><path d="m81 27h9v9h-9z"/><path d="m81 36h9v9h-9z"/><path d="m81 45h9v9h-9z"/><path d="m315 9h9v9h-9z"/><path d="m315 18h9v9h-9z"/><path d="m315 36h9v9h-9z"/><path d="m315 45h9v9h-9z"/><path d="m315 63h9v9h-9z"/><path d="m315 72h9v9h-9z"/><path d="m90 9h9v9h-9z"/><path d="m90 27h9v9h-9z"/><path d="m324 0h9v9h-9z"/><path d="m324 9h9v9h-9z"/><path d="m324 18h9v9h-9z"/><path d="m324 45h9v9h-9z"/><path d="m324 63h9v9h-9z"/><path d="m351 36h9v9h-9z"/><path d="m99 27h9v9h-9z"/><path d="m99 54h9v9h-9z"/><path d="m333 18h9v9h-9z"/><path d="m333 63h9v9h-9z"/><path d="m333 72h9v9h-9z"/><path d="m108 0h9v9h-9z"/><path d="m108 9h9v9h-9z"/><path d="m108 18h9v9h-9z"/><path d="m108 27h9v9h-9z"/><path d="m108 36h9v9h-9z"/><path d="m108 45h9v9h-9z"/><path d="m108 54h9v9h-9z"/><path d="m342 9h9v9h-9z"/><path d="m342 18h9v9h-9z"/><path d="m342 27h9v9h-9z"/><path d="m342 54h9v9h-9z"/><path d="m117 9h9v9h-9z"/><path d="m117 27h9v9h-9z"/><path d="m117 36h9v9h-9z"/><path d="m117 63h9v9h-9z"/><path d="m351 0h9v9h-9z"/><path d="m351 18h9v9h-9z"/><path d="m351 54h9v9h-9z"/><path d="m126 0h9v9h-9z"/><path d="m126 36h9v9h-9z"/><path d="m360 9h9v9h-9z"/><path d="m360 45h9v9h-9z"/><path d="m360 72h9v9h-9z"/><path d="m135 36h9v9h-9z"/><path d="m135 45h9v9h-9z"/><path d="m369 0h9v9h-9z"/><path d="m369 9h9v9h-9z"/><path d="m369 18h9v9h-9z"/><path d="m369 36h9v9h-9z"/><path d="m369 45h9v9h-9z"/><path d="m369 54h9v9h-9z"/><path d="m144 0h9v9h-9z"/><path d="m144 9h9v9h-9z"/><path d="m144 18h9v9h-9z"/><path d="m144 27h9v9h-9z"/><path d="m144 45h9v9h-9z"/><path d="m144 63h9v9h-9z"/></g></svg>