<svg height="450" viewBox="0 0 800 450" width="800" xmlns="http://www.w3.org/2000/svg"><g fill="none" stroke="#d5d5d5" stroke-dasharray="17.222222 8.611111" stroke-width="4.305555"><path d="m122.5 311.666687h-53.333336"/><path d="m149.166672 251.666672-35.000145-79.166611"/><path d="m176.666672 248.333328 13.333313-39.58342"/><path d="m209.583145 363.750275-26.249863-28.333466"/><path d="m335 327.083252-131.250061-15.416107"/><path d="m450 349.583374-49.999939-7.917175"/><path d="m527.499268 214.998901-132.499268 96.667786"/><path d="m605.833374 248.333359-18.333008-26.66655"/><path d="m527.499939 178.750153-77.499512-37.500641"/><path d="m647.499573 104.999817-68.332398 67.500732"/><path d="m698.749817 111.250031 15.417358 67.499053"/><path d="m713.33313 81.250031 45.41687 23.749877"/><path d="m262.916656 248.333328-53.333328 37.916672"/></g><path d="m129.166672 135c0-16.568542-13.431465-30-30.000008-30-16.568542 0-30 13.431458-30 30s13.431458 30 30 30c16.568543 0 30.000008-13.431458 30.000008-30z" fill="#d5d5d5" fill-rule="evenodd"/><path d="m203.59375 297.32843c0-21.076172-18.153458-38.161774-40.546875-38.161774s-40.546875 17.085602-40.546875 38.161774 18.153458 38.161774 40.546875 38.161774 40.546875-17.085602 40.546875-38.161774z" fill="#041065" fill-rule="evenodd"/><path d="m158.476517 270.29718c6.601394 11.016724-1.910919 16.071045-2.655274 26.297974 0 6.808349 3.776352 12.334106 8.429703 12.334106 4.653336 0 8.429688-5.525757 8.429688-12.334106.166763-13.489319-7.056962-20.37497-14.204117-26.297974z" fill="#fff"/><path d="m192.471405 307.857269c0-4.53244-12.638855-8.206695-28.22966-8.206695s-28.22966 3.674255-28.22966 8.206695 12.638855 8.206696 28.22966 8.206696 28.22966-3.674256 28.22966-8.206696z" fill="#fff" fill-rule="evenodd" opacity=".695792"/><path d="m713.984375 73.786774c0-17.279206-14.883057-31.286774-33.242187-31.286774-18.359131 0-33.242188 14.007568-33.242188 31.286774 0 17.279205 14.883057 31.286743 33.242188 31.286743 18.35913 0 33.242187-14.007538 33.242187-31.286743z" fill="#041065" fill-rule="evenodd"/><path d="m676.995178 51.625305c5.412171 9.032013-1.56665 13.175812-2.17688 21.560272 0 5.581788 3.096009 10.112091 6.911011 10.112091 3.815064 0 6.911072-4.530303 6.911072-10.112091.136719-11.059173-5.785584-16.704315-11.645203-21.560272z" fill="#fff"/><path d="m704.865784 82.418793c0-3.715912-10.361939-6.728241-23.143982-6.728241-12.782044 0-23.143982 3.012329-23.143982 6.728241 0 3.715881 10.361938 6.72821 23.143982 6.72821 12.782043 0 23.143982-3.012329 23.143982-6.72821z" fill="#fff" fill-rule="evenodd" opacity=".695792"/><path d="m293.75 251.666672c0-16.568543-13.431458-30-30-30s-30 13.431457-30 30c0 16.568557 13.431458 30.000015 30 30.000015s30-13.431458 30-30.000015z" fill="#d5d5d5" fill-rule="evenodd"/><path d="m587.5 195c0-16.568542-13.431458-30-30-30s-30 13.431458-30 30 13.431458 30 30 30 30-13.431458 30-30z" fill="#00a1fe" fill-rule="evenodd"/><path d="m510 357.083344c0-16.568543-13.431458-30-30-30s-30 13.431457-30 30c0 16.568542 13.431458 30 30 30s30-13.431458 30-30z" fill="#d5d5d5" fill-rule="evenodd"/><path d="m450 111.25c0-16.568542-13.431458-30-30-30s-30 13.431458-30 30 13.431458 30 30 30 30-13.431458 30-30z" fill="#d5d5d5" fill-rule="evenodd"/><path d="m233.75 165c0-16.568542-13.431458-30-30-30s-30 13.431458-30 30 13.431458 30 30 30 30-13.431458 30-30z" fill="#d5d5d5" fill-rule="evenodd"/><path d="m69.166664 311.666687c0-16.568542-13.431454-30-29.999996-30-16.568544 0-30.000001 13.431458-30.000001 30 0 16.568512 13.431457 29.999969 30.000001 29.999969 16.568542 0 29.999996-13.431457 29.999996-29.999969z" fill="#d5d5d5" fill-rule="evenodd"/><path d="m269.583344 393.75c0-16.568542-13.431458-30-30.000016-30-16.568542 0-30 13.431458-30 30s13.431458 30 30 30c16.568558 0 30.000016-13.431458 30.000016-30z" fill="#d5d5d5" fill-rule="evenodd"/><path d="m758.75 208.75c0-16.568542-13.431458-30-30-30s-30 13.431458-30 30 13.431458 30 30 30 30-13.431458 30-30z" fill="#d5d5d5" fill-rule="evenodd"/><path d="m788.75 105c0-16.568542-13.431458-30-30-30s-30 13.431458-30 30 13.431458 30 30 30 30-13.431458 30-30z" fill="#d5d5d5" fill-rule="evenodd"/><path d="m400 327.083344c0-16.568573-13.431458-30.000031-30-30.000031s-30 13.431458-30 30.000031c0 16.568542 13.431458 30 30 30s30-13.431458 30-30z" fill="#00a1fe" fill-rule="evenodd"/><path d="m647.5 281.666687c0-16.568542-13.431458-30.000015-30-30.000015s-30 13.431473-30 30.000015 13.431458 30 30 30 30-13.431458 30-30z" fill="#d5d5d5" fill-rule="evenodd"/></svg>